<svg width="420" height="305" viewBox="0 0 420 305" fill="none" xmlns="http://www.w3.org/2000/svg">
    <path d="M187.944 216.21V272.883H119.668L117.647 221.248L187.944 216.21Z" fill="#222747"/>
    <path d="M108.585 83.7726L96.4062 149.971L57.6881 154.341C57.6881 154.341 52.2481 158.67 53.3143 163.281L54.3804 167.891C54.3804 167.891 100.829 168.717 108.374 166.251C115.919 163.785 115.884 103.761 115.75 97.1646C115.615 90.5682 108.585 83.7726 108.585 83.7726Z" fill="url(#paint0_linear)"/>
    <path d="M176.756 80.1522L209.326 107.206L268.973 96.3737C268.973 96.3737 272.886 104.142 273.179 107.03L273.472 109.924C273.472 109.924 214.646 127.932 207.007 127.569C199.368 127.206 170.933 103.972 170.933 103.972L176.756 80.1522Z" fill="url(#paint1_linear)"/>
    <path d="M132.392 73.5734L108.585 83.7726L110.131 225.314C110.131 225.314 155.877 234.359 173.92 229.69L191.963 225.004L179.134 84.1651C179.029 83.0393 178.579 81.9734 177.844 81.1135C177.11 80.2535 176.128 79.6415 175.033 79.3613L153.78 73.8546L132.392 73.5734Z" fill="url(#paint2_linear)"/>
    <path d="M108.374 106.262L109.663 225.314C109.663 225.314 145.954 232.49 166.638 230.756L108.374 106.262Z" fill="url(#paint3_linear)"/>
    <path d="M220.07 136.345L216.965 169.743L190.78 218.056L199.075 222.157L234.446 173.076L235.658 134.909L220.07 136.345Z" fill="url(#paint4_linear)"/>
    <path d="M286.735 243.24C286.735 243.24 288.024 255.285 288.024 260.95C288.024 266.615 285.546 275.103 285.546 275.103H243.209L246.279 239.462L286.735 243.24Z" fill="url(#paint5_linear)"/>
    <path d="M217.369 135.706C217.369 135.706 221.019 113.064 227.879 106.743C232.799 102.197 237.597 102.326 240.948 103.087C244.299 103.849 247.392 115.36 244.129 130.885C241.885 141.646 241.592 142.777 241.592 142.777C241.592 142.777 223.936 143.369 217.369 135.706Z" fill="url(#paint6_linear)"/>
    <path d="M264.668 96.3502L292.318 108.682L287.239 244.424H220.07L226.122 111.201C226.181 109.918 226.565 108.671 227.235 107.577C227.906 106.482 228.843 105.574 229.959 104.938L244.604 96.6256L264.668 96.3502Z" fill="url(#paint7_linear)"/>
    <path d="M121.648 167.458L127.507 225.601L190.188 252.233C190.188 252.233 194.874 257.751 190.188 264.963L119.668 244.424L121.648 167.458Z" fill="url(#paint8_linear)"/>
    <path d="M80.8411 154.283L59.4709 162.519C57.6098 163.231 56.0165 164.505 54.9122 166.164C53.8078 167.822 53.2472 169.784 53.3082 171.775L56.6063 275.871H123.388L121.76 169.022C121.724 166.551 120.925 164.152 119.473 162.153C118.02 160.154 115.985 158.653 113.646 157.856L99.4581 153.023L80.8411 154.283Z" fill="url(#paint9_linear)"/>
    <path d="M351.244 91.8395H350.658V277.095H351.244V91.8395Z" fill="#292929"/>
    <path d="M359.51 109.772H358.924V272.754H359.51V109.772Z" fill="#292929"/>
    <path d="M356.58 143.345H355.995V278.156H356.58V143.345Z" fill="#292929"/>
    <path d="M341.625 172.473H341.039V278.156H341.625V172.473Z" fill="#292929"/>
    <path d="M364.53 202.203H363.944V277.09H364.53V202.203Z" fill="#303D72"/>
    <path d="M337.712 130.223C347.671 125.196 358.895 127.458 362.855 135.278C366.815 143.099 361.976 153.486 352.07 158.536C342.164 163.586 321.081 182.367 317.121 174.576C313.161 166.784 327.788 135.249 337.712 130.223Z" fill="url(#paint10_linear)"/>
    <path d="M326.095 230.258C334.613 221.079 349.24 220.792 358.771 229.632C368.302 238.472 369.111 253.065 360.593 262.256C352.076 271.448 339.106 301.278 329.581 292.444C320.055 283.61 317.577 239.444 326.095 230.258Z" fill="url(#paint11_linear)"/>
    <path d="M318.468 175.021C330.026 167.194 344.395 168.225 350.558 177.329C356.721 186.433 352.357 200.176 340.804 207.985C329.252 215.795 306.043 242.549 299.874 233.451C293.706 224.353 306.915 182.848 318.468 175.021Z" fill="url(#paint12_linear)"/>
    <path d="M384.875 137.95C371.612 133.591 358.08 138.536 354.653 148.975C351.226 159.414 359.187 171.424 372.45 175.777C385.712 180.129 415.366 199.473 418.793 189.028C422.22 178.583 398.132 142.302 384.875 137.95Z" fill="url(#paint13_linear)"/>
    <path d="M54.0938 196.122L56.6186 275.871H123.401L122.768 256.386L67.5029 226.146L72.5057 186.023L54.0938 196.122Z" fill="url(#paint14_linear)"/>
    <path d="M368.835 97.6743C360.283 101.271 355.649 109.643 358.478 116.374C361.308 123.105 370.534 125.659 379.081 122.062C387.628 118.465 410.932 115.255 408.102 108.518C405.273 101.781 377.382 94.0832 368.835 97.6743Z" fill="url(#paint15_linear)"/>
    <path d="M350.605 77.4749C355.948 81.1422 357.934 87.5277 355.04 91.734C352.146 95.9402 345.479 96.3737 340.143 92.7064C334.806 89.0392 319.323 83.5324 322.194 79.332C325.064 75.1316 345.268 73.8135 350.605 77.4749Z" fill="url(#paint16_linear)"/>
    <path d="M406.157 269.89H0V275.871H406.157V269.89Z" fill="#292929"/>
    <path d="M406.157 275.871H0V278.865H406.157V275.871Z" fill="#292929"/>
    <path d="M320.887 245.08C333.007 238.155 347.248 240.276 352.708 249.825C358.168 259.374 352.766 272.725 340.652 279.649C328.537 286.574 303.359 311.472 297.888 301.911C292.417 292.35 308.772 252.01 320.887 245.08Z" fill="url(#paint17_linear)"/>
    <path d="M395.537 207.487C380.148 196.942 359.738 196.942 349.95 207.534C340.161 218.126 344.677 235.255 360.09 245.812C375.503 256.369 405.074 291.032 414.863 280.452C424.652 269.872 410.926 218.044 395.537 207.487Z" fill="url(#paint18_linear)"/>
    <path d="M110.296 252.625C110.296 252.625 122.012 255.994 128.017 257.898C134.021 259.802 137.753 262.801 137.46 263.826C137.167 264.852 136.728 265.068 136.728 265.068H112.27L102.019 259.175L110.296 252.625Z" fill="#FBAD83"/>
    <path d="M54.8665 166.251C54.8665 166.251 32.6058 221.149 37.2923 238.22C41.9787 255.291 110.131 264.963 110.131 264.963C110.131 264.963 112.117 259.983 112.475 256.175L112.855 252.368L53.3082 231.852C53.3082 231.852 72.4524 193.269 73.501 180.885C74.5496 168.501 54.8665 166.251 54.8665 166.251Z" fill="url(#paint19_linear)"/>
    <path d="M153.259 265.068H244.832C245.797 265.068 246.722 264.685 247.404 264.003C248.087 263.32 248.47 262.395 248.47 261.43V197.669C248.47 196.704 248.087 195.779 247.404 195.096C246.722 194.414 245.797 194.031 244.832 194.031H153.259V265.068Z" fill="#DADADA"/>
    <path d="M152.063 265.068H153.54C154.402 265.067 155.228 264.724 155.837 264.114C156.446 263.505 156.789 262.679 156.791 261.817V197.282C156.789 196.42 156.446 195.594 155.837 194.985C155.228 194.375 154.402 194.032 153.54 194.031H152.063V265.068Z" fill="#7B7B7B"/>
    <path d="M195.917 229.55C195.917 233.65 198.401 236.943 201.465 236.943C204.529 236.943 207.007 233.633 207.007 229.55C207.007 225.466 204.523 222.156 201.465 222.156C198.407 222.156 195.917 225.466 195.917 229.55Z" fill="#00B98F"/>
    <path d="M152.058 265.068H99.6519V269.89H152.058V265.068Z" fill="#7B7B7B"/>
    <path d="M245.423 265.068H152.063V269.89H245.423V265.068Z" fill="#DADADA"/>
    <path d="M287.174 244.424L291.509 128.506L280.215 125.899L253.473 244.424H287.174Z" fill="url(#paint20_linear)"/>
    <path d="M80.8413 154.283C80.8413 154.283 85.8734 163.433 93.5885 163.287C101.304 163.14 99.4758 153.023 99.4758 153.023L80.8413 154.283Z" fill="white"/>
    <path d="M113.394 107.006C113.394 107.006 117.249 138.231 115.738 144.335C114.226 150.44 98.7492 149.198 91.0693 148.577C83.3894 147.956 79.3005 148.993 75.9379 147.118C72.5754 145.243 78.7381 125.712 78.7381 125.712L113.394 107.006Z" fill="#292929"/>
    <path d="M105.51 150.27C103.202 150.323 100.955 149.522 99.2011 148.021C97.4469 146.521 96.3083 144.425 96.0035 142.137C95.6987 139.848 96.2491 137.528 97.5492 135.62C98.8494 133.712 100.808 132.352 103.049 131.799C103.124 131.779 103.203 131.789 103.27 131.828C103.337 131.866 103.386 131.929 103.407 132.004C103.426 132.079 103.416 132.159 103.378 132.227C103.34 132.295 103.276 132.345 103.202 132.367C101.051 132.954 99.2038 134.337 98.0347 136.236C96.8656 138.134 96.4618 140.406 96.9051 142.591C97.3484 144.776 98.6056 146.711 100.422 148.004C102.239 149.296 104.479 149.85 106.688 149.553C108.898 149.256 110.912 148.129 112.322 146.403C113.732 144.676 114.434 142.478 114.284 140.253C114.134 138.029 113.144 135.944 111.515 134.422C109.886 132.9 107.739 132.055 105.51 132.056C105.432 132.056 105.357 132.026 105.302 131.971C105.248 131.916 105.217 131.841 105.217 131.763C105.218 131.686 105.25 131.613 105.304 131.558C105.359 131.503 105.432 131.472 105.51 131.471C108.002 131.471 110.393 132.461 112.156 134.224C113.919 135.986 114.909 138.377 114.909 140.87C114.909 143.363 113.919 145.754 112.156 147.517C110.393 149.279 108.002 150.27 105.51 150.27Z" fill="white"/>
    <path d="M100.934 140.328L99.4582 153.023C99.4582 153.023 97.7008 155.952 88.5154 155.952C85.8623 156 83.2346 155.429 80.8413 154.283V131.881L100.934 140.328Z" fill="url(#paint21_linear)"/>
    <path d="M101.207 139.672L100.032 147.718C98.0831 147.836 96.123 147.72 94.2177 147.373C91.7045 146.914 84.5249 141.022 79.9536 132.582L101.207 139.672Z" fill="url(#paint22_linear)"/>
    <path d="M112.791 99.9473C112.791 99.9473 114.935 121.23 111.942 131.535C108.948 141.84 99.6399 146.181 91.3859 144.312C88.328 143.609 77.2563 131.16 75.8562 115.782C74.4561 100.404 75.7917 95.7703 78.2931 92.519C80.7945 89.2677 103.524 85.2196 107.654 88.7756C111.784 92.3315 112.791 99.9473 112.791 99.9473Z" fill="url(#paint23_linear)"/>
    <path d="M105.51 99.1681C105.51 99.1681 112.475 109.01 114.232 109.297C115.99 109.584 116.183 103.046 115.75 97.1646C115.041 87.8734 108.585 83.7726 108.585 83.7726L105.51 99.1681Z" fill="#292929"/>
    <path d="M112.135 91.3883C112.135 91.3883 110.056 102.859 105.691 109.719C101.327 116.579 84.942 114.077 82.0129 114.282C79.0839 114.487 82.4289 137.557 84.5085 145.249C86.5881 152.941 71.6207 150.65 66.8405 149.614C62.0604 148.577 59.5648 108.055 65.8037 92.3608C72.0425 76.6665 97.8063 77.2757 104.871 80.7145C106.907 81.7063 108.648 83.2131 109.923 85.0853C111.197 86.9576 111.959 89.1304 112.135 91.3883Z" fill="#292929"/>
    <path d="M74.9014 127.124C74.9014 130.147 78.9259 132.836 81.3921 132.836C83.8583 132.836 83.8408 130.147 83.8408 127.124C83.8408 124.101 81.8373 121.646 79.3711 121.646C76.9048 121.646 74.9014 124.077 74.9014 127.124Z" fill="url(#paint24_linear)"/>
    <path d="M76.8459 125.77C77.1329 124.282 79.359 123.351 80.5658 123.585C81.7725 123.82 78.6033 124.669 78.3163 126.151C78.0292 127.633 79.7222 129.115 78.5155 128.881C77.3087 128.647 76.5589 127.253 76.8459 125.77Z" fill="#F75801"/>
    <path d="M94.1805 119.977C94.0542 119.976 93.9313 119.935 93.8303 119.859C93.7293 119.783 93.6555 119.677 93.6199 119.556C93.5843 119.435 93.5889 119.305 93.6329 119.187C93.6769 119.068 93.758 118.967 93.8641 118.899L98.99 115.577C99.0577 115.533 99.1338 115.504 99.2134 115.491C99.293 115.478 99.3745 115.481 99.4527 115.501L103.249 116.491C103.323 116.511 103.393 116.545 103.455 116.591C103.516 116.638 103.568 116.696 103.607 116.763C103.646 116.83 103.671 116.903 103.682 116.98C103.692 117.056 103.687 117.134 103.668 117.209C103.648 117.283 103.614 117.353 103.567 117.415C103.521 117.476 103.462 117.528 103.396 117.567C103.329 117.606 103.255 117.631 103.179 117.641C103.102 117.652 103.025 117.647 102.95 117.627L99.4059 116.702L94.4968 119.883C94.4025 119.944 94.2927 119.976 94.1805 119.977Z" fill="#292929"/>
    <path d="M115.17 118.612C115.058 118.611 114.948 118.579 114.854 118.518L112.048 116.702L108.533 117.627C108.458 117.647 108.38 117.652 108.304 117.641C108.228 117.631 108.154 117.606 108.087 117.567C108.021 117.528 107.962 117.476 107.916 117.415C107.869 117.353 107.835 117.283 107.815 117.209C107.796 117.134 107.791 117.056 107.801 116.98C107.812 116.903 107.837 116.83 107.876 116.763C107.915 116.696 107.967 116.638 108.028 116.591C108.089 116.545 108.159 116.511 108.234 116.491L112.03 115.501C112.108 115.481 112.19 115.478 112.269 115.491C112.349 115.504 112.425 115.533 112.493 115.577L115.516 117.534C115.622 117.603 115.704 117.704 115.747 117.823C115.791 117.942 115.795 118.072 115.759 118.194C115.723 118.315 115.648 118.422 115.546 118.497C115.444 118.572 115.32 118.613 115.193 118.612H115.17Z" fill="#292929"/>
    <path d="M80.8413 150.27C78.5398 150.316 76.3016 149.514 74.5535 148.016C72.8054 146.519 71.6695 144.43 71.3626 142.148C71.0556 139.867 71.5989 137.552 72.8889 135.646C74.179 133.739 76.1255 132.374 78.3575 131.81C78.4352 131.789 78.518 131.8 78.5877 131.84C78.6575 131.88 78.7085 131.947 78.7295 132.024C78.7504 132.102 78.7397 132.185 78.6996 132.254C78.6595 132.324 78.5933 132.375 78.5156 132.396C76.3649 132.984 74.5179 134.367 73.3488 136.265C72.1797 138.163 71.7759 140.435 72.2192 142.62C72.6625 144.805 73.9197 146.74 75.7362 148.033C77.5528 149.325 79.7927 149.879 82.0023 149.582C84.2119 149.285 86.2258 148.159 87.6362 146.432C89.0466 144.705 89.7479 142.507 89.598 140.282C89.4482 138.058 88.4584 135.974 86.8292 134.452C85.2 132.93 83.0532 132.084 80.8237 132.086C80.746 132.086 80.6715 132.055 80.6166 132C80.5617 131.945 80.5308 131.87 80.5308 131.793C80.5308 131.715 80.5617 131.641 80.6166 131.586C80.6715 131.531 80.746 131.5 80.8237 131.5C83.3166 131.5 85.7073 132.49 87.47 134.253C89.2327 136.016 90.223 138.407 90.223 140.899C90.223 143.392 89.2327 145.783 87.47 147.546C85.7073 149.309 83.3166 150.299 80.8237 150.299L80.8413 150.27Z" fill="white"/>
    <path d="M264.667 70.6443V96.3503C264.667 96.3503 260.35 100.018 252.758 99.5782C245.728 99.174 244.615 96.6491 244.615 96.6491L241.686 83.3157L264.644 70.6677" fill="url(#paint25_linear)"/>
    <path d="M238.792 59.0117H225.746V59.5975H238.792V59.0117Z" fill="#292929"/>
    <path d="M229.629 40.9273C229.629 40.9273 227.415 46.4047 227.415 51.1968C227.415 55.0574 228.973 62.3275 228.973 62.3275L237.848 39.6677L229.629 40.9273Z" fill="#292929"/>
    <path d="M230.263 82.8338C237.267 97.1237 254.613 88.6802 262.048 81.4729C269.484 74.2656 268.468 46.7236 266.396 41.5067C264.324 36.2898 247.136 32.0595 238.102 35.4222C229.067 38.7848 223.272 68.5383 230.263 82.8338Z" fill="url(#paint26_linear)"/>
    <path d="M265.429 64.1494C264.167 64.0328 262.942 63.6637 261.826 63.0641C260.71 62.4645 259.726 61.6466 258.933 60.659C258.139 59.6714 257.552 58.5344 257.207 57.3154C256.862 56.0965 256.765 54.8206 256.923 53.5635C257.321 50.3649 258.264 49.3397 257.432 46.311C255.804 40.2653 248.528 40.8335 243.642 43.0948C238.757 45.3561 233.42 45.3444 229.214 42.1634C227.211 40.6519 224.692 36.4398 227.416 32.0403C230.14 27.6407 239.829 22.3566 239.829 22.3566C239.829 22.3566 238.657 24.9986 239.044 26.3695C239.431 27.7403 265.177 20.0015 270.449 31.4427C275.721 42.8839 268.692 64.4482 268.692 64.4482L265.429 64.1494Z" fill="#292929"/>
    <path d="M269.951 64.3017C269.951 68.1095 264.889 71.4898 261.785 71.4898C258.68 71.4898 258.732 68.1095 258.732 64.3017C258.732 60.4938 261.251 57.4065 264.356 57.4065C267.461 57.4065 269.951 60.4938 269.951 64.3017Z" fill="url(#paint27_linear)"/>
    <path d="M267.631 63.9619C267.988 65.6667 266.044 67.6585 264.655 67.9514C263.267 68.2443 266.254 65.9186 265.891 64.2139C265.528 62.5091 263.068 61.7007 264.456 61.4077C265.844 61.1148 267.268 62.2572 267.631 63.9619Z" fill="#F75801"/>
    <path d="M230.614 67.3363C227.785 67.3363 225.482 64.3545 225.482 60.6872C225.482 57.0199 227.785 54.0381 230.614 54.0381C233.444 54.0381 235.746 57.0199 235.746 60.6872C235.746 64.3545 233.414 67.3363 230.614 67.3363ZM230.614 54.6239C228.107 54.6239 226.068 57.3421 226.068 60.6872C226.068 64.0323 228.107 66.7505 230.614 66.7505C233.121 66.7505 235.16 64.0264 235.16 60.6872C235.16 57.348 233.092 54.6239 230.614 54.6239Z" fill="#292929"/>
    <path d="M242.687 67.3363C239.858 67.3363 237.556 64.3545 237.556 60.6872C237.556 57.0199 239.858 54.0381 242.687 54.0381C245.517 54.0381 247.819 57.0199 247.819 60.6872C247.819 64.3545 245.517 67.3363 242.687 67.3363ZM242.687 54.6239C240.18 54.6239 238.141 57.3421 238.141 60.6872C238.141 64.0323 240.18 66.7505 242.687 66.7505C245.195 66.7505 247.233 64.0264 247.233 60.6872C247.233 57.348 245.195 54.6239 242.687 54.6239Z" fill="#292929"/>
    <path d="M259.459 59.0117H247.409V59.5975H259.459V59.0117Z" fill="#292929"/>
    <path d="M237.843 59.0117H235.424V59.5975H237.843V59.0117Z" fill="#1A2249"/>
    <path d="M232.29 76.4459H243.221C243.221 76.4459 241.03 81.6188 237.316 81.7594C233.602 81.9 232.29 76.4459 232.29 76.4459Z" fill="white"/>
    <path d="M303.448 136.345L286.46 142.203L294.661 175.273L276.442 246.421L271.276 249.474C271.276 249.474 270.983 257.089 276.624 258.554C282.265 260.018 284.31 255.847 284.31 255.847V250.264C288.826 238.852 311.491 181.453 311.843 177.751C312.235 173.638 303.448 136.345 303.448 136.345Z" fill="url(#paint28_linear)"/>
    <path d="M284.573 144.247C284.573 144.247 277.877 124.47 280.689 116.491C282.716 110.738 286.629 108.799 289.646 107.991C292.663 107.182 300.032 115.132 304.028 129.004C306.793 138.612 307.039 139.643 307.039 139.643C307.039 139.643 293.114 147.628 284.573 144.247Z" fill="url(#paint29_linear)"/>
    <path d="M268.803 96.2331C268.803 96.2331 270.56 94.4756 275.083 96.2331C279.605 97.9906 280.519 100.873 280.279 103.761C280.039 106.649 274.509 108.114 271.017 107.135C267.526 106.157 264.433 102.349 264.685 100.803C264.937 99.256 268.803 96.2331 268.803 96.2331Z" fill="url(#paint30_linear)"/>
    <path d="M53.0975 171.207C52.0854 170.564 51.2207 169.713 50.5601 168.712C49.8996 167.711 49.458 166.582 49.2644 165.398C49.0709 164.214 49.1296 163.003 49.4368 161.844C49.7441 160.684 50.2928 159.603 51.0472 158.671C51.2288 158.442 51.4221 158.219 51.633 157.991C55.6458 153.539 59.3891 153.802 62.5993 155.366C65.8095 156.931 65.0363 163.937 62.365 167.516C59.6937 171.096 54.978 172.314 53.3084 171.342L53.0975 171.207Z" fill="url(#paint31_linear)"/>
    <path d="M132.393 46.1509V73.5734C132.393 73.5734 136.997 77.4809 145.099 77.0122C152.591 76.5787 153.78 73.8663 153.78 73.8663L156.879 59.6425L132.393 46.1509Z" fill="url(#paint32_linear)"/>
    <path d="M169.802 13.163C169.802 13.163 173.434 14.5163 173.182 23.1865C173.059 27.2873 171.524 35.0788 171.524 35.0788L162.058 10.9017L169.802 13.163Z" fill="#1A2249"/>
    <path d="M170.247 58.5235C162.76 74.2764 144.178 64.9676 136.217 57.0297C128.256 49.0917 129.363 18.7459 131.566 12.9872C133.769 7.22858 152.157 2.57126 161.858 6.2854C171.559 9.99953 177.733 42.7648 170.247 58.5235Z" fill="url(#paint33_linear)"/>
    <path d="M141.999 32.2198C141.999 32.2198 144.067 49.654 148.842 51.0483C152.942 52.22 158.595 46.4144 165.947 46.1039C170.048 45.9282 171.518 46.3148 173.182 47.4396C172.807 51.2713 171.818 55.0177 170.253 58.5352C162.766 74.288 144.184 64.9793 136.223 57.0413C132.392 53.1866 130.635 44.0887 130.137 35.0787L141.999 32.2198Z" fill="#292929"/>
    <path d="M138.877 38.459C138.877 38.459 141.173 38.6874 142.111 37.3224C143.048 35.9575 140.353 28.248 143.077 20.0699C145.016 14.2116 153.833 10.8548 161.05 12.2725C168.267 13.6902 170.083 14.3288 170.821 12.2315C171.559 10.1343 168.659 5.20159 166.135 3.25079C163.61 1.29999 151.894 -2.15052 142.116 1.84481C132.339 5.84015 130.4 8.49394 128.186 14.8326C125.972 21.1712 127.407 37.053 128.186 38.0665C128.965 39.0799 138.877 38.459 138.877 38.459Z" fill="#292929"/>
    <path d="M127.817 37.1643C127.817 41.224 133.213 44.8327 136.522 44.8327C139.832 44.8327 139.809 41.224 139.809 37.1643C139.809 33.1045 137.126 29.8121 133.81 29.8121C130.495 29.8121 127.817 33.1045 127.817 37.1643Z" fill="url(#paint34_linear)"/>
    <path d="M173.182 47.4514C173.182 47.4514 173.182 66.5435 170.933 69.9882C168.683 73.4328 161.308 74.1768 157.969 72.7415C154.63 71.3063 149.182 66.1276 147.852 61.7456C146.522 57.3636 167.623 51.0835 167.623 51.0835L173.182 47.4514Z" fill="#292929"/>
    <path d="M130.008 35.2662C129.621 37.0823 131.695 39.2088 133.177 39.5252C134.659 39.8415 131.473 37.3576 131.859 35.5357C132.246 33.7138 134.87 32.8584 133.388 32.5421C131.906 32.2258 130.389 33.4501 130.008 35.2662Z" fill="#F75801"/>
    <path d="M169.298 53.6729C169.298 53.6729 161.378 53.8838 160.06 53.462L158.753 53.046C158.753 53.046 158.789 56.9183 162.462 58.254C166.135 59.5897 168.144 57.1234 168.636 55.7584C169.128 54.3934 169.298 53.6729 169.298 53.6729Z" fill="white"/>
    <path d="M109.297 131.97C109.297 131.97 101.377 132.181 100.059 131.759L98.7524 131.343C98.7524 131.343 98.7876 135.216 102.461 136.551C106.134 137.887 108.143 135.421 108.635 134.056C109.127 132.691 109.297 131.97 109.297 131.97Z" fill="white"/>
    <path d="M167.353 29.402C167.216 29.4005 167.084 29.3509 166.979 29.2618C166.875 29.1727 166.805 29.0498 166.782 28.9145C166.759 28.7792 166.784 28.6401 166.853 28.5215C166.922 28.4029 167.031 28.3123 167.16 28.2655C169.414 27.598 171.813 27.598 174.067 28.2655C174.144 28.2834 174.217 28.3168 174.281 28.3638C174.345 28.4108 174.399 28.4703 174.44 28.5389C174.48 28.6074 174.506 28.6834 174.516 28.7623C174.526 28.8412 174.52 28.9213 174.498 28.9977C174.476 29.0742 174.439 29.1454 174.389 29.207C174.339 29.2686 174.276 29.3193 174.206 29.356C174.135 29.3927 174.058 29.4147 173.979 29.4206C173.899 29.4265 173.82 29.4162 173.744 29.3903C171.719 28.8089 169.572 28.8089 167.547 29.3903C167.483 29.4049 167.418 29.4089 167.353 29.402Z" fill="#292929"/>
    <path d="M153.991 31.3704C153.85 31.3718 153.712 31.3219 153.605 31.2298C153.487 31.128 153.415 30.9838 153.404 30.8289C153.393 30.6741 153.444 30.5211 153.546 30.4038C153.687 30.2456 156.991 26.5256 162.878 28.4061C163.026 28.4527 163.15 28.5564 163.222 28.6943C163.294 28.8322 163.308 28.993 163.262 29.1413C163.215 29.2897 163.111 29.4135 162.973 29.4855C162.836 29.5574 162.675 29.5717 162.526 29.5251C157.389 27.8848 154.548 31.0365 154.431 31.1712C154.376 31.2337 154.308 31.2838 154.232 31.3182C154.157 31.3525 154.074 31.3703 153.991 31.3704Z" fill="#292929"/>
    <defs>
        <linearGradient id="paint0_linear" x1="84.3848" y1="93.5339" x2="84.3848" y2="168.207" gradientUnits="userSpaceOnUse">
            <stop stop-color="#7C7C7C"/>
            <stop offset="1" stop-color="#7E7E7E"/>
        </linearGradient>
        <linearGradient id="paint1_linear" x1="222.181" y1="85.6465" x2="222.181" y2="127.677" gradientUnits="userSpaceOnUse">
            <stop stop-color="#7C7C7C"/>
            <stop offset="1" stop-color="#7E7E7E"/>
        </linearGradient>
        <linearGradient id="paint2_linear" x1="150.261" y1="226.375" x2="150.261" y2="69.7831" gradientUnits="userSpaceOnUse">
            <stop stop-color="#22252B"/>
            <stop offset="1" stop-color="#E5E5E5"/>
        </linearGradient>
        <linearGradient id="paint3_linear" x1="137.497" y1="227.339" x2="137.497" y2="103.259" gradientUnits="userSpaceOnUse">
            <stop stop-color="#22252B"/>
            <stop offset="1" stop-color="#E5E5E5"/>
        </linearGradient>
        <linearGradient id="paint4_linear" x1="221.138" y1="178.125" x2="216.451" y2="138.951" gradientUnits="userSpaceOnUse">
            <stop stop-color="#F8A695"/>
            <stop offset="1" stop-color="#FF6B4D"/>
        </linearGradient>
        <linearGradient id="paint5_linear" x1="265.61" y1="274.05" x2="265.61" y2="238.604" gradientUnits="userSpaceOnUse">
            <stop stop-color="#22252B"/>
            <stop offset="1" stop-color="#E5E5E5"/>
        </linearGradient>
        <linearGradient id="paint6_linear" x1="231.436" y1="107.328" x2="231.436" y2="142.874" gradientUnits="userSpaceOnUse">
            <stop stop-color="#7C7C7C"/>
            <stop offset="1" stop-color="#E4E4E4"/>
        </linearGradient>
        <linearGradient id="paint7_linear" x1="256.183" y1="240.047" x2="256.183" y2="92.7858" gradientUnits="userSpaceOnUse">
            <stop stop-color="#22252B"/>
            <stop offset="1" stop-color="#E5E5E5"/>
        </linearGradient>
        <linearGradient id="paint8_linear" x1="155.954" y1="178.755" x2="155.954" y2="265.174" gradientUnits="userSpaceOnUse">
            <stop stop-color="#7C7C7C"/>
            <stop offset="1" stop-color="#E4E4E4"/>
        </linearGradient>
        <linearGradient id="paint9_linear" x1="88.3355" y1="272.24" x2="88.3355" y2="150.066" gradientUnits="userSpaceOnUse">
            <stop stop-color="#22252B"/>
            <stop offset="1" stop-color="#E5E5E5"/>
        </linearGradient>
        <linearGradient id="paint10_linear" x1="348.433" y1="130.104" x2="317.589" y2="142.682" gradientUnits="userSpaceOnUse">
            <stop stop-color="#BBBBBB"/>
            <stop offset="1" stop-color="#7A7A7A"/>
        </linearGradient>
        <linearGradient id="paint11_linear" x1="358.731" y1="223.094" x2="344.151" y2="298.946" gradientUnits="userSpaceOnUse">
            <stop offset="0.0318243" stop-color="#7A7A7A"/>
            <stop offset="1" stop-color="#484848"/>
        </linearGradient>
        <linearGradient id="paint12_linear" x1="299.616" y1="171.834" x2="363.088" y2="191.347" gradientUnits="userSpaceOnUse">
            <stop offset="0.0378675" stop-color="#54C99C"/>
            <stop offset="1" stop-color="#1BA06D"/>
        </linearGradient>
        <linearGradient id="paint13_linear" x1="355.413" y1="138.124" x2="424.983" y2="167.956" gradientUnits="userSpaceOnUse">
            <stop offset="0.0378675" stop-color="#54C99C"/>
            <stop offset="1" stop-color="#1BA06D"/>
        </linearGradient>
        <linearGradient id="paint14_linear" x1="88.7368" y1="273.215" x2="88.7368" y2="183.86" gradientUnits="userSpaceOnUse">
            <stop stop-color="#22252B"/>
            <stop offset="1" stop-color="#E5E5E5"/>
        </linearGradient>
        <linearGradient id="paint15_linear" x1="391.572" y1="98.1686" x2="367.969" y2="116.708" gradientUnits="userSpaceOnUse">
            <stop stop-color="#BBBBBB"/>
            <stop offset="1" stop-color="#7A7A7A"/>
        </linearGradient>
        <linearGradient id="paint16_linear" x1="322.665" y1="75.9641" x2="353.675" y2="95.7011" gradientUnits="userSpaceOnUse">
            <stop offset="0.0378675" stop-color="#54C99C"/>
            <stop offset="1" stop-color="#1BA06D"/>
        </linearGradient>
        <linearGradient id="paint17_linear" x1="298.185" y1="242.999" x2="363.958" y2="265.158" gradientUnits="userSpaceOnUse">
            <stop offset="0.0378675" stop-color="#54C99C"/>
            <stop offset="1" stop-color="#1BA06D"/>
        </linearGradient>
        <linearGradient id="paint18_linear" x1="346.529" y1="202.2" x2="430.315" y2="229.362" gradientUnits="userSpaceOnUse">
            <stop offset="0.0378675" stop-color="#54C99C"/>
            <stop offset="1" stop-color="#1BA06D"/>
        </linearGradient>
        <linearGradient id="paint19_linear" x1="74.7335" y1="177.688" x2="74.7335" y2="265.176" gradientUnits="userSpaceOnUse">
            <stop stop-color="#7C7C7C"/>
            <stop offset="1" stop-color="#E4E4E4"/>
        </linearGradient>
        <linearGradient id="paint20_linear" x1="272.483" y1="139.632" x2="272.483" y2="244.68" gradientUnits="userSpaceOnUse">
            <stop stop-color="#7C7C7C"/>
            <stop offset="1" stop-color="#7E7E7E"/>
        </linearGradient>
        <linearGradient id="paint21_linear" x1="91.3703" y1="145.814" x2="90.4195" y2="139.288" gradientUnits="userSpaceOnUse">
            <stop stop-color="#F8A695"/>
            <stop offset="1" stop-color="#FF6B4D"/>
        </linearGradient>
        <linearGradient id="paint22_linear" x1="78.1055" y1="127.16" x2="88.7677" y2="146.545" gradientUnits="userSpaceOnUse">
            <stop stop-color="#F8A695"/>
            <stop offset="1" stop-color="#FF6B4D"/>
        </linearGradient>
        <linearGradient id="paint23_linear" x1="95.3301" y1="120.579" x2="92.5291" y2="105.215" gradientUnits="userSpaceOnUse">
            <stop stop-color="#F8A695"/>
            <stop offset="1" stop-color="#FF6B4D"/>
        </linearGradient>
        <linearGradient id="paint24_linear" x1="79.5857" y1="128.122" x2="79.1249" y2="125.095" gradientUnits="userSpaceOnUse">
            <stop stop-color="#F8A695"/>
            <stop offset="1" stop-color="#FF6B4D"/>
        </linearGradient>
        <linearGradient id="paint25_linear" x1="253.728" y1="87.4111" x2="252.527" y2="79.575" gradientUnits="userSpaceOnUse">
            <stop stop-color="#F8A695"/>
            <stop offset="1" stop-color="#FF6B4D"/>
        </linearGradient>
        <linearGradient id="paint26_linear" x1="248.511" y1="66.8527" x2="259.269" y2="56.3295" gradientUnits="userSpaceOnUse">
            <stop stop-color="#F8A695"/>
            <stop offset="1" stop-color="#FF6B4D"/>
        </linearGradient>
        <linearGradient id="paint27_linear" x1="264.611" y1="65.5573" x2="264.029" y2="61.7472" gradientUnits="userSpaceOnUse">
            <stop stop-color="#F8A695"/>
            <stop offset="1" stop-color="#FF6B4D"/>
        </linearGradient>
        <linearGradient id="paint28_linear" x1="292.538" y1="207.254" x2="279.292" y2="148.993" gradientUnits="userSpaceOnUse">
            <stop stop-color="#F8A695"/>
            <stop offset="1" stop-color="#FF6B4D"/>
        </linearGradient>
        <linearGradient id="paint29_linear" x1="293.513" y1="112.238" x2="293.513" y2="145.162" gradientUnits="userSpaceOnUse">
            <stop stop-color="#7C7C7C"/>
            <stop offset="1" stop-color="#E4E4E4"/>
        </linearGradient>
        <linearGradient id="paint30_linear" x1="272.868" y1="102.389" x2="272.561" y2="99.0993" gradientUnits="userSpaceOnUse">
            <stop stop-color="#F8A695"/>
            <stop offset="1" stop-color="#FF6B4D"/>
        </linearGradient>
        <linearGradient id="paint31_linear" x1="57.3016" y1="164.363" x2="56.6631" y2="159.651" gradientUnits="userSpaceOnUse">
            <stop stop-color="#F8A695"/>
            <stop offset="1" stop-color="#FF6B4D"/>
        </linearGradient>
        <linearGradient id="paint32_linear" x1="145.224" y1="64.0346" x2="143.941" y2="55.6769" gradientUnits="userSpaceOnUse">
            <stop stop-color="#F8A695"/>
            <stop offset="1" stop-color="#FF6B4D"/>
        </linearGradient>
        <linearGradient id="paint33_linear" x1="152.813" y1="40.9159" x2="143.666" y2="16.9852" gradientUnits="userSpaceOnUse">
            <stop stop-color="#F8A695"/>
            <stop offset="1" stop-color="#FF6B4D"/>
        </linearGradient>
        <linearGradient id="paint34_linear" x1="134.101" y1="38.5054" x2="133.482" y2="34.4414" gradientUnits="userSpaceOnUse">
            <stop stop-color="#F8A695"/>
            <stop offset="1" stop-color="#FF6B4D"/>
        </linearGradient>
    </defs>
</svg>
