<svg width="306" height="362" viewBox="0 0 306 362" fill="none" xmlns="http://www.w3.org/2000/svg">
<path opacity="0.05" fill-rule="evenodd" clip-rule="evenodd" d="M218.888 79.5137C153.444 80.0024 113.557 16.1032 82.429 3.81326C35.6594 -14.6548 -26.0244 33.1293 13.7545 165.314C53.5334 297.499 74.1508 331.074 145.803 342.351C203.137 351.401 253.631 299.659 273.743 258.391C305.214 193.822 284.35 79.0371 218.888 79.5137Z" fill="black"/>
<path opacity="0.05" fill-rule="evenodd" clip-rule="evenodd" d="M278.749 285.782C278.851 278.976 272.131 275.646 268.359 280.612C259.503 292.352 241.028 312.757 225.578 323.237C203.92 337.94 230.872 365.579 249.775 361.615C268.678 357.651 278.472 297.493 278.743 286.12C278.743 286.027 278.745 285.915 278.749 285.782Z" fill="black"/>
<path fill-rule="evenodd" clip-rule="evenodd" d="M100.352 203.077C107.276 228.544 101.26 254.523 86.2981 274.27C63.4367 264.87 45.0753 245.54 38.1688 220.079C31.2622 194.618 37.2603 168.632 52.2225 148.885C75.096 158.291 93.4272 177.616 100.352 203.077Z" fill="#BCBCBC"/>
<path fill-rule="evenodd" clip-rule="evenodd" d="M124.856 279.513C122.985 291.822 115.494 302.55 104.599 308.522C95.9182 299.613 91.9023 287.139 93.7493 274.821C95.5963 262.504 103.093 251.766 114.002 245.811C122.664 254.732 126.678 267.197 124.856 279.513Z" fill="#BCBCBC"/>
<path fill-rule="evenodd" clip-rule="evenodd" d="M157.325 152.167C158.878 153.046 160.02 154.506 160.501 156.228C162.204 162.417 163.286 168.762 163.732 175.167C159.521 174.044 155.574 173.465 154.263 174.69C152.349 176.5 158.588 180.681 163.955 184.597C163.863 188.621 163.532 192.636 162.962 196.621C156.681 199.24 148.288 201.937 144.113 204.193C139.607 206.606 150.695 207.994 160.068 210.19C156.168 223.943 149.515 236.755 140.516 247.844C134.499 243.09 127.731 234.227 124.675 236.037C121.372 237.998 129.217 248.255 132.135 256.985C130.396 258.662 128.604 260.249 126.769 261.775C124.055 256.49 121.041 249.105 118.226 248.858C114.929 248.55 112.546 262.312 111.241 272.388C108.442 273.94 105.566 275.35 102.626 276.611C100.781 277.398 98.6829 277.323 96.8984 276.406C105.983 260.846 134.53 211.035 141.725 187.113C145.214 175.516 151.309 162.979 157.325 152.167Z" fill="#828282"/>
<path fill-rule="evenodd" clip-rule="evenodd" d="M93.421 272.171C91.8102 266.327 90.7527 260.343 90.2626 254.3C95.9358 254.053 102.536 253.045 102.493 250.36C102.457 247.893 95.0454 246.39 89.9497 244.327C89.9978 241.751 90.1302 239.162 90.3769 236.568C98.1197 234.668 111.8 235.995 111.265 232.622C110.796 229.684 99.75 227.367 92.2539 224.58C94.0011 216.529 96.6868 208.712 100.255 201.291L100.285 201.231C110.874 205.454 123.688 211.934 124.482 208.368C125.277 204.802 112.974 199.318 104.1 194.069C106.045 190.697 108.176 187.436 110.483 184.301C120.512 186.177 131.979 189.508 133.08 187.227C134.253 184.814 125.186 178.69 119.242 173.918C120.289 172.836 121.356 171.78 122.443 170.75C129.187 175.251 137.556 182.775 137.935 180.223C138.272 177.93 133.531 170.219 129.741 164.494C136.333 159.341 143.562 155.066 151.248 151.775C153.204 150.95 155.432 151.095 157.265 152.167C151.248 162.979 145.148 175.517 141.665 187.113C134.445 211.053 105.929 260.87 96.8382 276.406C95.1589 275.536 93.9197 274 93.421 272.171Z" fill="url(#paint0_linear)"/>
<path fill-rule="evenodd" clip-rule="evenodd" d="M93.421 272.171C91.8102 266.327 90.7527 260.343 90.2626 254.3C95.9358 254.053 102.536 253.045 102.493 250.36C102.457 247.893 95.0454 246.39 89.9497 244.327C89.9978 241.751 90.1302 239.162 90.3769 236.568C98.1197 234.668 111.8 235.995 111.265 232.622C110.796 229.684 99.75 227.367 92.2539 224.58C94.0011 216.529 96.6868 208.712 100.255 201.291L100.285 201.231C110.874 205.454 123.688 211.934 124.482 208.368C125.277 204.802 112.974 199.318 104.1 194.069C106.045 190.697 108.176 187.436 110.483 184.301C120.512 186.177 131.979 189.508 133.08 187.227C134.253 184.814 125.186 178.69 119.242 173.918C120.289 172.836 121.356 171.78 122.443 170.75C129.187 175.251 137.556 182.775 137.935 180.223C138.272 177.93 133.531 170.219 129.741 164.494C136.333 159.341 143.562 155.066 151.248 151.775C153.204 150.95 155.432 151.095 157.265 152.167C151.248 162.979 145.148 175.517 141.665 187.113C134.445 211.053 105.929 260.87 96.8382 276.406C95.1589 275.536 93.9197 274 93.421 272.171Z" fill="#484848"/>
<path fill-rule="evenodd" clip-rule="evenodd" d="M119.008 89.2155C117.156 88.8081 115.22 89.0799 113.551 89.9818C108.272 93.0772 103.359 96.763 98.9079 100.969C103.522 102.887 107.565 105.011 108.034 106.694C108.72 109.15 100.322 108.058 92.9098 107.298C90.5389 110.108 88.3792 113.09 86.4485 116.221C90.6959 122.037 96.8685 129.265 99.3712 133.488C102.072 138.05 90.9004 131.902 80.8113 127.425C78.7749 132.5 77.2942 137.782 76.3954 143.178C75.1626 150.678 75.0005 158.317 75.9142 165.863C84.4391 166.424 96.2007 164.657 97.9333 167.854C99.8104 171.317 86.1958 173.369 78.1101 177.508C78.7117 179.77 79.3975 182.015 80.1676 184.241C85.9431 182.334 93.2768 179.179 96.0683 180.802C99.3291 182.696 93.1023 193.701 88.1149 201.496C89.7874 204.368 91.5983 207.18 93.5596 209.907C94.9034 211.696 96.8411 212.943 99.0222 213.424C100.105 196.893 104.082 144.33 112.077 123.232C115.964 113.047 117.979 100.51 119.008 89.2155Z" fill="#484848"/>
<path fill-rule="evenodd" clip-rule="evenodd" d="M104.894 212.754C109.887 209.831 114.554 206.38 118.815 202.462C113.677 198.661 108.143 193.749 109.827 191.927C111.373 190.25 119.212 193.955 125.216 195.795C126.757 193.985 128.225 192.12 129.584 190.172C123.532 183.909 109.959 176.084 112.534 174.099C114.772 172.373 126.498 177.839 135.203 180.735C138.524 174.06 140.831 166.924 142.05 159.564V159.504C129.578 155.649 113.653 151.926 115.103 148.958C116.553 145.989 131.389 150.08 142.892 152.137C143.146 148.536 143.158 144.922 142.928 141.32C132.424 136.203 119.682 131.171 120.067 128.891C120.47 126.478 132.664 128.052 141.123 128.547C140.81 127.131 140.463 125.723 140.082 124.324C131.028 123.117 118.605 122.948 119.82 120.951C120.915 119.141 130.047 116.872 137.122 115.346C134.012 107.35 129.896 99.7852 124.874 92.8355C123.439 90.9392 121.34 89.6587 119.002 89.2517C117.973 100.546 115.958 113.083 112.083 123.298C104.088 144.415 100.111 196.959 99.0281 213.491C101.006 213.999 103.102 213.736 104.894 212.754Z" fill="url(#paint1_linear)"/>
<path fill-rule="evenodd" clip-rule="evenodd" d="M104.894 212.754C109.887 209.831 114.554 206.38 118.815 202.462C113.677 198.661 108.143 193.749 109.827 191.927C111.373 190.25 119.212 193.955 125.216 195.795C126.757 193.985 128.225 192.12 129.584 190.172C123.532 183.909 109.959 176.084 112.534 174.099C114.772 172.373 126.498 177.839 135.203 180.735C138.524 174.06 140.831 166.924 142.05 159.564V159.504C129.578 155.649 113.653 151.926 115.103 148.958C116.553 145.989 131.389 150.08 142.892 152.137C143.146 148.536 143.158 144.922 142.928 141.32C132.424 136.203 119.682 131.171 120.067 128.891C120.47 126.478 132.664 128.052 141.123 128.547C140.81 127.131 140.463 125.723 140.082 124.324C131.028 123.117 118.605 122.948 119.82 120.951C120.915 119.141 130.047 116.872 137.122 115.346C134.012 107.35 129.896 99.7852 124.874 92.8355C123.439 90.9392 121.34 89.6587 119.002 89.2517C117.973 100.546 115.958 113.083 112.083 123.298C104.088 144.415 100.111 196.959 99.0281 213.491C101.006 213.999 103.102 213.736 104.894 212.754Z" fill="#828282"/>
<path fill-rule="evenodd" clip-rule="evenodd" d="M75.7817 183.625C77.6603 183.328 79.5826 183.72 81.1963 184.729C86.2686 188.146 90.9388 192.127 95.1177 196.597C90.401 198.226 86.2499 200.096 85.6843 201.744C84.8541 204.157 93.2828 203.554 100.725 203.306C102.916 206.257 104.887 209.367 106.621 212.61C102.036 218.154 95.4546 224.978 92.7112 229.038C89.7453 233.419 101.248 227.983 111.56 224.133C113.272 229.325 114.417 234.688 114.977 240.128C115.755 247.691 115.457 255.327 114.093 262.807C105.568 262.843 93.9566 260.339 92.0374 263.41C89.9618 266.747 103.396 269.643 111.199 274.27C110.471 276.491 109.641 278.687 108.744 280.859C103.107 278.596 95.99 274.994 93.1023 276.442C89.7392 278.132 95.2801 289.499 99.7802 297.559C97.9393 300.316 95.972 302.989 93.8483 305.614C92.4025 307.316 90.396 308.442 88.1931 308.787C88.1089 292.226 87.3087 239.524 80.6187 217.979C77.3941 207.602 76.1307 194.962 75.7817 183.625Z" fill="#828282"/>
<path fill-rule="evenodd" clip-rule="evenodd" d="M82.4053 307.78C77.6109 304.55 73.1739 300.816 69.1698 296.642C74.5181 293.167 80.3237 288.612 78.7535 286.687C77.3157 284.919 69.2841 288.129 63.1897 289.595C61.7639 287.701 60.4163 285.74 59.1769 283.713C65.5841 277.842 79.5717 270.868 77.1292 268.732C75.0054 266.874 62.9972 271.598 54.1534 273.927C51.2491 267.059 49.3816 259.795 48.6125 252.375C48.6125 252.375 48.6125 252.333 48.6125 252.315C61.2465 249.238 77.3518 246.511 76.0884 243.458C74.825 240.405 59.7966 243.567 48.2155 244.906C48.1742 241.297 48.3752 237.689 48.8171 234.106C59.592 229.648 72.5809 225.418 72.3403 223.12C72.0816 220.676 59.8387 221.503 51.386 221.473C51.7871 220.081 52.2182 218.695 52.6795 217.316C61.7699 216.67 74.1572 217.273 73.0682 215.204C72.0876 213.346 63.1055 210.498 56.1688 208.567C59.7452 200.777 64.3003 193.478 69.7233 186.847C71.2654 185.043 73.4328 183.894 75.7876 183.631C76.1305 194.968 77.3879 207.602 80.6005 218.021C87.2965 239.573 88.0966 292.274 88.1748 308.829C86.1885 309.221 84.1278 308.846 82.4053 307.78Z" fill="url(#paint2_linear)"/>
<path fill-rule="evenodd" clip-rule="evenodd" d="M82.4053 307.78C77.6109 304.55 73.1739 300.816 69.1698 296.642C74.5181 293.167 80.3237 288.612 78.7535 286.687C77.3157 284.919 69.2841 288.129 63.1897 289.595C61.7639 287.701 60.4163 285.74 59.1769 283.713C65.5841 277.842 79.5717 270.868 77.1292 268.732C75.0054 266.874 62.9972 271.598 54.1534 273.927C51.2491 267.059 49.3816 259.795 48.6125 252.375C48.6125 252.375 48.6125 252.333 48.6125 252.315C61.2465 249.238 77.3518 246.511 76.0884 243.458C74.825 240.405 59.7966 243.567 48.2155 244.906C48.1742 241.297 48.3752 237.689 48.8171 234.106C59.592 229.648 72.5809 225.418 72.3403 223.12C72.0816 220.676 59.8387 221.503 51.386 221.473C51.7871 220.081 52.2182 218.695 52.6795 217.316C61.7699 216.67 74.1572 217.273 73.0682 215.204C72.0876 213.346 63.1055 210.498 56.1688 208.567C59.7452 200.777 64.3003 193.478 69.7233 186.847C71.2654 185.043 73.4328 183.894 75.7876 183.631C76.1305 194.968 77.3879 207.602 80.6005 218.021C87.2965 239.573 88.0966 292.274 88.1748 308.829C86.1885 309.221 84.1278 308.846 82.4053 307.78Z" fill="#484848"/>
<path fill-rule="evenodd" clip-rule="evenodd" d="M115.819 352.583H75.3666L69.3564 300.015H121.823L115.819 352.583Z" fill="#9E9E9E"/>
<path fill-rule="evenodd" clip-rule="evenodd" d="M69.2542 300.015L75.2583 352.583H90.7379L86.2558 300.015H69.2542Z" fill="#4E4E4E"/>
<path d="M123.869 298.513H67.311V311.466H123.869V298.513Z" fill="#DBDBDB"/>
<path fill-rule="evenodd" clip-rule="evenodd" d="M286.792 361.615H59.219L74.837 352.583H272.39L286.792 361.615Z" fill="#BCBCBC"/>
<path fill-rule="evenodd" clip-rule="evenodd" d="M168.99 335.135L165.91 352.583C165.91 352.583 176.739 352.843 179.109 353.187C181.48 353.531 192.556 353.187 192.556 353.187C192.556 353.187 193.001 353.187 192.556 351.262C192.11 349.337 184.205 347.407 182.214 346.966C181.004 346.695 180.071 345.727 179.843 344.505L178.893 339.407L168.99 335.135Z" fill="url(#paint3_linear)"/>
<path fill-rule="evenodd" clip-rule="evenodd" d="M149.51 328.215L142.212 336.058C142.212 336.058 149.907 347.902 151.495 349.241C153.083 350.58 160.465 353.941 162.324 353.464C164.183 352.988 164.4 351.093 163.257 349.241C162.114 347.389 158.348 343.914 157.68 342.562C157.012 341.211 157.758 333.222 157.758 333.222L149.51 328.215Z" fill="url(#paint4_linear)"/>
<path fill-rule="evenodd" clip-rule="evenodd" d="M190.805 208.066L189.258 271.881C189.258 271.881 158.702 335.726 158.059 336.728C157.415 337.729 153.667 338.23 149.299 336.227C144.931 334.224 145.401 331.563 145.401 331.563L164.586 264.762L145.376 205.532L190.805 208.066Z" fill="url(#paint5_linear)"/>
<path fill-rule="evenodd" clip-rule="evenodd" d="M190.805 208.066L189.259 271.881L181.979 287.067C179.985 286.849 178.05 286.256 176.276 285.318C167.384 280.78 168.166 293.161 163.798 303.46C160.79 310.507 152.169 325.783 146.953 334.773C145.1 333.138 145.365 331.563 145.365 331.563L164.55 264.762L145.377 205.532L190.805 208.066Z" fill="url(#paint6_linear)"/>
<path fill-rule="evenodd" clip-rule="evenodd" d="M144.258 198.238C144.258 198.238 142.814 198.383 142.327 209.327C141.839 220.272 142.591 233.002 149.33 240.701C156.068 248.399 177.678 276.81 177.678 276.81L167.384 334.731C167.384 334.731 167.944 337.747 172.197 339.606C176.45 341.464 179.47 340.728 179.47 340.728C179.47 340.728 197.982 281.233 195.48 269.48C192.977 257.727 179.296 200.066 179.296 200.066L144.258 198.238Z" fill="url(#paint7_linear)"/>
<path fill-rule="evenodd" clip-rule="evenodd" d="M238.707 163.425L233.359 163.676L232.627 148.006C232.609 147.613 232.912 147.28 233.303 147.262L237.234 147.077C237.625 147.059 237.958 147.362 237.976 147.755L238.707 163.425Z" fill="url(#paint8_linear)"/>
<path fill-rule="evenodd" clip-rule="evenodd" d="M238.717 163.444L237.063 166.955L235.36 167.052L233.369 163.697L238.717 163.444Z" fill="#D6E3FA"/>
<path d="M235.437 168.785L237.138 168.705L237.057 166.964L235.356 167.044L235.437 168.785Z" fill="url(#paint9_linear)"/>
<path fill-rule="evenodd" clip-rule="evenodd" d="M225.705 155.166C226.381 153.707 227.333 152.394 228.508 151.299C230.674 149.127 237.749 150.478 238.976 152.005C240.204 153.531 239.151 153.706 238.038 154.056C236.925 154.406 233.183 153.881 233.183 153.881L233.369 162.509C231.855 162.762 230.3 162.619 228.857 162.092C226.336 161.284 226.691 163.619 226.691 163.619L225.705 155.166Z" fill="url(#paint10_linear)"/>
<path fill-rule="evenodd" clip-rule="evenodd" d="M189.295 127.189C189.295 127.189 203.132 166.141 203.132 166.255V166.37L225.241 154.756C225.241 154.756 228.165 157.453 229.218 160.27L230.271 163.088C230.271 163.088 214.478 175.637 205.821 179.275C197.164 182.913 182.075 164.144 182.075 164.144L189.295 127.189Z" fill="url(#paint11_linear)"/>
<path fill-rule="evenodd" clip-rule="evenodd" d="M164.58 125.138C164.58 125.138 148.517 127.304 144.775 131.612C141.033 135.92 140.955 141.151 140.955 148.191C140.955 155.232 144.462 173.532 143.53 187.372C142.597 201.213 140.955 208.489 140.955 208.489C140.955 208.489 150.779 219.047 168.328 216.465C185.878 213.883 193.885 209.05 193.885 209.05C193.885 209.05 189.217 175.993 189.072 171.01C188.928 166.026 194.896 157.344 194.715 151.703C194.535 146.062 192.91 131.841 190.811 129.132L188.693 126.429L164.58 125.138Z" fill="url(#paint12_linear)"/>
<path fill-rule="evenodd" clip-rule="evenodd" d="M185.926 123.974C187.018 124.572 187.959 125.414 188.675 126.435C190.197 128.372 187.544 131.497 183.375 130.833C182.19 130.697 181.095 130.133 180.294 129.247C180.294 129.247 180.403 131.34 178.231 133.144C176.631 134.466 174.248 135.938 169.652 132.245C165.055 128.553 164.586 125.15 164.586 125.15L169.652 124.311L185.926 123.974Z" fill="white"/>
<path fill-rule="evenodd" clip-rule="evenodd" d="M185.342 114.712L185.944 123.974C185.944 123.974 184.193 127.111 179.14 127.189C174.086 127.268 169.646 124.287 169.646 124.287L172.516 115.31L185.342 114.712Z" fill="url(#paint13_linear)"/>
<path fill-rule="evenodd" clip-rule="evenodd" d="M202.801 81.6978C202.801 81.6978 206.507 87.2183 203.234 99.3393C201.363 106.272 198.421 111.478 197.471 117.27C196.52 123.062 193.915 123.575 191.1 123.937C188.284 124.299 178.381 120.179 174.555 120.172C170.729 120.166 165.97 121.096 162.523 118.67C160.58 117.307 159.605 101.867 159.605 101.867L171.547 78.3372L178.664 74.4155L202.801 81.6978Z" fill="#292929"/>
<path fill-rule="evenodd" clip-rule="evenodd" d="M200.202 96.8235C198.824 103.46 197.104 111.479 193.223 118.115C189.343 124.752 175.217 124.149 171.439 117.814C167.661 111.479 167.414 102.247 167.414 102.247C167.414 102.247 162.601 101.843 161.891 98.0663C161.181 94.2895 162.312 88.9741 164.701 88.2621C167.089 87.5502 168.846 90.3376 168.846 90.3376C168.846 90.3376 169.098 83.2907 174.681 79.6888C180.264 76.0868 198.788 80.4731 199.691 81.5289C200.593 82.5848 201.58 90.1808 200.202 96.8235Z" fill="url(#paint14_linear)"/>
<path fill-rule="evenodd" clip-rule="evenodd" d="M201.676 77.9271C201.676 77.9271 203.336 80.8231 203.144 86.3738C202.951 91.9245 199.36 93.7647 193.325 94.2715C187.291 94.7783 183.098 92.5701 179.669 92.7269C176.24 92.8838 173.863 101.288 173.845 110.012C173.827 118.737 169.935 119.412 166.529 120.016C163.124 120.619 149.949 111.78 157.896 95.8281C164.424 82.7297 162.745 76.4248 173.845 71.9239C184.945 67.423 194.366 72.2739 197.489 74.2649C200.611 76.2559 201.676 77.9271 201.676 77.9271Z" fill="#292929"/>
<path d="M194.709 102.531C194.709 102.531 194.005 110.736 194.005 112.528C194.005 114.32 191.563 112.667 190.811 112.528" stroke="#EB6057" stroke-linecap="round" stroke-linejoin="round"/>
<path fill-rule="evenodd" clip-rule="evenodd" d="M238.489 154.804C238.489 154.804 236.582 154.864 235.757 157.38C234.933 159.896 235.505 163.414 236.882 163.377C238.26 163.341 239.951 162.171 240.558 158.792C241.166 155.413 238.489 154.804 238.489 154.804Z" fill="url(#paint15_linear)"/>
<path fill-rule="evenodd" clip-rule="evenodd" d="M150.027 147.13C150.027 147.13 149.636 155.341 150.027 156.59C150.418 157.839 175.758 172.771 175.758 172.771L173.352 181.465C173.352 181.465 157.457 179.74 153.986 178.883C150.515 178.026 147.97 182.401 151.062 186.624C154.154 190.847 162.222 191.782 161.62 196.084C161.019 200.386 166.614 204.06 172.889 206.015C177.274 207.379 187.779 208.428 193.717 208.953V209.044C193.717 209.044 185.703 213.871 168.16 216.459C150.617 219.047 140.786 208.483 140.786 208.483C140.786 208.483 142.423 201.213 143.361 187.366C144.288 173.694 140.877 155.673 140.792 148.457L150.027 147.13Z" fill="url(#paint16_linear)"/>
<path fill-rule="evenodd" clip-rule="evenodd" d="M175.975 198.498C175.975 198.498 179.651 172.102 186.702 167.178C193.753 162.255 195.726 171.257 195.726 171.257H215.495C215.495 171.257 213.504 162.249 206.471 167.178C199.438 172.108 195.744 198.498 195.744 198.498H175.975Z" fill="url(#paint17_linear)"/>
<path fill-rule="evenodd" clip-rule="evenodd" d="M209.439 165.359H210.679C214.126 165.902 215.221 170.861 215.221 170.861H195.47C195.47 170.861 194.375 165.908 190.928 165.359H209.439Z" fill="white"/>
<path fill-rule="evenodd" clip-rule="evenodd" d="M175.343 173.218C175.343 173.218 176.805 171.921 180.258 171.89L183.712 171.854L183.074 173.833C183.074 173.833 182.605 174.708 185.408 175.04C188.212 175.372 189.62 173.513 191.376 174.437C193.133 175.36 193.181 177.333 190.636 180.066C188.091 182.799 184.476 184.247 179.873 183.939C177.127 183.731 174.621 182.293 173.051 180.023L175.343 173.218Z" fill="url(#paint18_linear)"/>
<path fill-rule="evenodd" clip-rule="evenodd" d="M148.15 131.401C146.025 130.704 143.707 131.641 142.657 133.621C139.3 140.021 136.274 146.59 133.591 153.302C127.743 167.818 142.693 171.492 154.251 176.03C160.468 178.439 166.897 180.257 173.454 181.46C173.454 181.46 175.927 178.111 175.903 175.426V172.753L146.261 157.803C146.261 157.803 153.222 152.59 154.593 144.415C155.965 136.24 151.784 132.559 148.162 131.377L148.15 131.401Z" fill="url(#paint19_linear)"/>
<path fill-rule="evenodd" clip-rule="evenodd" d="M146.104 236.007C151.447 236.846 157.86 238.324 160.621 240.779C165.771 245.353 175.012 267.869 181.209 271.549C187.405 275.23 192.441 278.789 187.64 282.289C182.839 285.788 183.429 303.755 181.792 312.908C180.589 319.659 172.888 331.642 168.93 337.476C168.143 336.721 167.575 335.766 167.287 334.713L177.581 276.792C177.581 276.792 155.971 248.43 149.233 240.731C147.996 239.295 146.945 237.708 146.104 236.007Z" fill="url(#paint20_linear)"/>
<path opacity="0.45" d="M287.707 63.447H263.48V87.7433H287.707V63.447Z" fill="url(#paint21_linear)"/>
<path fill-rule="evenodd" clip-rule="evenodd" d="M256.242 84.075L259.936 82.9951C263.63 81.9151 263.48 74.2286 263.48 74.2286V61.3776H287.707V74.2105C287.707 74.2105 287.857 81.897 284.163 82.977L280.47 84.0569L256.242 84.075Z" fill="#686868"/>
<path opacity="0.45" d="M290.569 106.471L268.648 110.681L272.845 132.665L294.767 128.456L290.569 106.471Z" fill="#A4A4A4"/>
<path fill-rule="evenodd" clip-rule="evenodd" d="M265.664 130.586L268.822 128.963C271.981 127.34 270.513 120.414 270.513 120.414L268.293 108.782L290.216 104.558L292.436 116.191C292.436 116.191 293.898 123.123 290.745 124.74L287.587 126.363L265.664 130.586Z" fill="#686868"/>
<path opacity="0.45" d="M250.473 89.1008H228.292V111.346H250.473V89.1008Z" fill="#A4A4A4"/>
<path fill-rule="evenodd" clip-rule="evenodd" d="M221.662 107.997L225.043 107.008C228.424 106.018 228.291 98.9774 228.291 98.9774V87.2124H250.479V98.9473C250.479 98.9473 250.611 105.988 247.23 106.978L243.849 107.997H221.662Z" fill="#686868"/>
<path opacity="0.45" d="M305.57 149.657L283.791 145.439L279.585 167.28L301.365 171.498L305.57 149.657Z" fill="#A4A4A4"/>
<path fill-rule="evenodd" clip-rule="evenodd" d="M273.719 162.708L277.227 162.376C280.734 162.044 281.932 155.136 281.932 155.136L284.158 143.582L305.936 147.805L303.71 159.359C303.71 159.359 302.507 166.298 299.005 166.599L295.498 166.931L273.719 162.708Z" fill="#686868"/>
<path fill-rule="evenodd" clip-rule="evenodd" d="M233.646 285.734L236.949 286.85C240.251 287.966 243.302 282.898 243.302 282.898L248.596 274.548L267.318 286.482L262.024 294.832C262.024 294.832 258.974 299.9 255.671 298.784L252.368 297.668L233.646 285.734Z" fill="#686868"/>
<path fill-rule="evenodd" clip-rule="evenodd" d="M278.334 267.567L279.946 266.089C281.559 264.611 279.778 257.136 279.778 257.136L276.932 244.605L289.061 241.829L291.906 254.36C291.906 254.36 293.711 261.836 292.075 263.314L290.462 264.792L278.334 267.567Z" fill="#686868"/>
<defs>
<linearGradient id="paint0_linear" x1="117.219" y1="184.507" x2="147.729" y2="213.904" gradientUnits="userSpaceOnUse">
<stop stop-color="#3769A5"/>
<stop offset="1" stop-color="#08448B"/>
</linearGradient>
<linearGradient id="paint1_linear" x1="124.003" y1="153.468" x2="114.672" y2="153.715" gradientUnits="userSpaceOnUse">
<stop stop-color="#3769A5"/>
<stop offset="1" stop-color="#08448B"/>
</linearGradient>
<linearGradient id="paint2_linear" x1="66.0363" y1="236.591" x2="73.9327" y2="237.211" gradientUnits="userSpaceOnUse">
<stop stop-color="#3769A5"/>
<stop offset="1" stop-color="#08448B"/>
</linearGradient>
<linearGradient id="paint3_linear" x1="179.333" y1="340.633" x2="179.333" y2="347.839" gradientUnits="userSpaceOnUse">
<stop stop-color="#2E2E2E"/>
<stop offset="1" stop-color="#B4B4B4"/>
</linearGradient>
<linearGradient id="paint4_linear" x1="153.086" y1="335.854" x2="153.086" y2="345.867" gradientUnits="userSpaceOnUse">
<stop stop-color="#2E2E2E"/>
<stop offset="1" stop-color="#B4B4B4"/>
</linearGradient>
<linearGradient id="paint5_linear" x1="168.081" y1="220.834" x2="168.081" y2="337.89" gradientUnits="userSpaceOnUse">
<stop stop-color="#A9A9A9"/>
<stop offset="1" stop-color="#E4E4E4"/>
</linearGradient>
<linearGradient id="paint6_linear" x1="168.08" y1="244.563" x2="168.08" y2="295.72" gradientUnits="userSpaceOnUse">
<stop stop-color="#2E2E2E"/>
<stop offset="1" stop-color="#B4B4B4"/>
</linearGradient>
<linearGradient id="paint7_linear" x1="168.948" y1="214.764" x2="168.948" y2="341.18" gradientUnits="userSpaceOnUse">
<stop stop-color="#A9A9A9"/>
<stop offset="1" stop-color="#E4E4E4"/>
</linearGradient>
<linearGradient id="paint8_linear" x1="235.622" y1="152.22" x2="233.219" y2="161.287" gradientUnits="userSpaceOnUse">
<stop stop-color="#35B986"/>
<stop offset="1" stop-color="#35B986"/>
</linearGradient>
<linearGradient id="paint9_linear" x1="236.269" y1="167.54" x2="236.208" y2="168.578" gradientUnits="userSpaceOnUse">
<stop stop-color="#35B986"/>
<stop offset="1" stop-color="#35B986"/>
</linearGradient>
<linearGradient id="paint10_linear" x1="231.426" y1="156.892" x2="224.411" y2="156.892" gradientUnits="userSpaceOnUse">
<stop stop-color="#F8A695"/>
<stop offset="1" stop-color="#E56045"/>
</linearGradient>
<linearGradient id="paint11_linear" x1="206.169" y1="213.918" x2="206.169" y2="118.576" gradientUnits="userSpaceOnUse">
<stop stop-color="#404143"/>
<stop offset="1" stop-color="white"/>
</linearGradient>
<linearGradient id="paint12_linear" x1="167.829" y1="214.16" x2="167.829" y2="122.93" gradientUnits="userSpaceOnUse">
<stop stop-color="#22252B"/>
<stop offset="1" stop-color="#E5E5E5"/>
</linearGradient>
<linearGradient id="paint13_linear" x1="-1455.69" y1="123.089" x2="-1456.39" y2="118.638" gradientUnits="userSpaceOnUse">
<stop stop-color="#F8A695"/>
<stop offset="1" stop-color="#E56045"/>
</linearGradient>
<linearGradient id="paint14_linear" x1="182.245" y1="100.107" x2="183.911" y2="88.0139" gradientUnits="userSpaceOnUse">
<stop stop-color="#F8A695"/>
<stop offset="1" stop-color="#E56045"/>
</linearGradient>
<linearGradient id="paint15_linear" x1="240.419" y1="155.719" x2="239.42" y2="155.63" gradientUnits="userSpaceOnUse">
<stop stop-color="#F8A695"/>
<stop offset="1" stop-color="#E56045"/>
</linearGradient>
<linearGradient id="paint16_linear" x1="167.288" y1="164.687" x2="167.288" y2="222.293" gradientUnits="userSpaceOnUse">
<stop stop-color="#292A2D"/>
<stop offset="1" stop-color="#D7D7D7"/>
</linearGradient>
<linearGradient id="paint17_linear" x1="194.868" y1="188.375" x2="196.539" y2="168.849" gradientUnits="userSpaceOnUse">
<stop stop-color="#35B986"/>
<stop offset="1" stop-color="#35B986"/>
</linearGradient>
<linearGradient id="paint18_linear" x1="-1464.36" y1="178.658" x2="-1451.01" y2="172.487" gradientUnits="userSpaceOnUse">
<stop stop-color="#F8A695"/>
<stop offset="1" stop-color="#E56045"/>
</linearGradient>
<linearGradient id="paint19_linear" x1="154.088" y1="214.16" x2="154.088" y2="122.93" gradientUnits="userSpaceOnUse">
<stop stop-color="#404143"/>
<stop offset="1" stop-color="white"/>
</linearGradient>
<linearGradient id="paint20_linear" x1="167.829" y1="266.65" x2="167.829" y2="306.814" gradientUnits="userSpaceOnUse">
<stop stop-color="#2E2E2E"/>
<stop offset="1" stop-color="#B4B4B4"/>
</linearGradient>
<linearGradient id="paint21_linear" x1="272.468" y1="86.784" x2="280.397" y2="58.5718" gradientUnits="userSpaceOnUse">
<stop stop-color="#223762"/>
<stop offset="1" stop-color="#041B48"/>
</linearGradient>
</defs>
</svg>
