<svg width="520" height="440" viewBox="0 0 520 440" fill="none" xmlns="http://www.w3.org/2000/svg">
<path opacity="0.05" fill-rule="evenodd" clip-rule="evenodd" d="M87.696 126.326C136.512 134.433 189.303 146.332 209.218 130.553C229.132 114.775 283.098 62.5507 321.387 43.9539C364.243 23.1304 433.538 14.0755 488.531 61.7592C543.524 109.443 518.172 239.899 500.668 304.718C483.163 369.537 463.997 417.099 439.472 427.085C414.947 437.07 140.192 440.845 109.168 433.843C78.1434 426.841 117.998 388.812 72.7146 333.013C27.4311 277.214 15.7209 242.186 9.32643 230.453C-15.4251 185.048 38.8803 118.219 87.696 126.326Z" fill="url(#paint0_linear)"/>
<path opacity="0.05" fill-rule="evenodd" clip-rule="evenodd" d="M182.839 126.283C209.122 120.324 228.079 100.919 241.381 87.9322C254.684 74.9458 250.195 50.3472 215.873 42.4753C181.552 34.6034 53.8442 91.1245 103.739 114.044C108.689 116.315 156.6 132.215 182.839 126.283Z" fill="url(#paint1_linear)"/>
<path fill-rule="evenodd" clip-rule="evenodd" d="M83.1632 397.511C82.0608 397.514 81.0372 396.94 80.4662 395.997C80.2052 395.571 54.4532 352.732 32.4161 293.236C-4.51537 193.546 -2.87977 124.334 4.99372 83.8353C13.163 41.8489 30.389 15.2933 56.2106 4.91627C101.181 -13.1586 155.121 24.3046 157.392 25.9051C158.811 26.9043 159.152 28.8651 158.153 30.2846C157.153 31.7042 155.192 32.0449 153.772 31.0457C153.242 30.6717 100.32 -6.08698 58.5335 10.7615C34.7999 20.2947 18.8963 45.2847 11.1707 85.0356C3.44513 124.786 1.88783 192.667 38.2799 290.957C60.1082 349.923 85.6079 392.344 85.8602 392.727C86.4577 393.699 86.4808 394.918 85.9204 395.912C85.36 396.906 84.3044 397.518 83.1632 397.511Z" fill="#313131"/>
<path d="M164.804 314.947H151.928V323.828H164.804V314.947Z" fill="#2D2D2D"/>
<path d="M391.961 211.751H288.196C283.997 211.751 280.592 215.155 280.592 219.354V338.667C280.592 342.866 283.997 346.27 288.196 346.27H391.961C396.16 346.27 399.565 342.866 399.565 338.667V219.354C399.565 215.155 396.16 211.751 391.961 211.751Z" fill="url(#paint2_linear)"/>
<path fill-rule="evenodd" clip-rule="evenodd" d="M274.92 289.983H170.868C162.951 289.983 156.53 296.689 156.53 304.961V427.198H290.51V306.292C290.519 297.272 283.542 289.983 274.92 289.983Z" fill="url(#paint3_linear)"/>
<path d="M387 219.575C387 215.392 381.585 212.002 374.905 212.002H286L268.5 269.502C261.82 269.502 191 308.819 191 313.002L188 315.002C188 319.184 184.32 346.002 191 346.002H374.905C381.585 346.002 387 342.611 387 338.429V219.575Z" fill="#2D2D2D"/>
<path fill-rule="evenodd" clip-rule="evenodd" d="M264.384 197.26L266.942 249.771L228.018 296.542L240.39 306.797L281.584 261.235L264.384 197.26Z" fill="url(#paint4_linear)"/>
<path fill-rule="evenodd" clip-rule="evenodd" d="M307.275 188.562C307.275 188.562 317.35 193.868 325.267 199.078C333.184 204.288 339.074 222.842 339.752 242.569C340.431 262.297 333.21 317.661 333.21 317.661C333.21 317.661 291.041 326.411 264.175 314.495C255.145 310.485 254.893 311.102 254.893 311.102C254.893 311.102 263.271 264.254 263.044 258.826C262.818 253.398 257.824 245.927 257.824 235.967C257.824 226.008 260.086 204.967 264.393 197.269C268.699 189.571 277.747 185.091 277.747 185.091L307.275 188.562Z" fill="url(#paint5_linear)"/>
<path fill-rule="evenodd" clip-rule="evenodd" d="M300.75 187.457L304.378 187.657L307.275 188.527C307.275 188.527 299.549 200.174 291.024 200.626C282.498 201.079 280.453 191.693 280.453 191.693C280.453 191.693 278.417 196.329 276.608 196.556C274.798 196.782 271.388 193.616 272.762 190.467C274.137 187.318 277.739 185.039 277.739 185.039L300.75 187.457Z" fill="white"/>
<path fill-rule="evenodd" clip-rule="evenodd" d="M277.469 173.279L276.599 186.97C276.599 186.97 279.209 191.606 286.682 191.719C294.156 191.832 300.742 187.457 300.742 187.457L296.479 174.184L277.469 173.279Z" fill="url(#paint6_linear)"/>
<path fill-rule="evenodd" clip-rule="evenodd" d="M251.578 124.465C251.578 124.465 246.079 132.624 250.934 150.559C253.709 160.814 258.033 168.504 259.477 177.071C260.922 185.639 264.75 186.387 268.926 186.935C273.102 187.483 287.787 181.377 293.46 181.368C299.132 181.36 306.196 182.734 311.312 179.15C314.192 177.132 315.662 154.308 315.662 154.308L297.949 119.515L287.396 113.714L251.578 124.465Z" fill="#292929"/>
<path d="M134.798 323.828H50.7036V427.198H134.798V323.828Z" fill="#9E9E9E"/>
<path d="M134.798 323.828H106.157V427.198H134.798V323.828Z" fill="url(#paint7_linear)"/>
<path fill-rule="evenodd" clip-rule="evenodd" d="M255.432 146.819C257.476 156.639 260.025 168.486 265.785 178.298C271.544 188.11 292.485 187.214 298.097 177.854C303.708 168.495 304.065 154.83 304.065 154.83C304.065 154.83 311.242 154.23 312.252 148.646C313.261 143.061 311.634 135.198 308.084 134.146C304.535 133.093 301.933 137.216 301.933 137.216C301.933 137.216 301.559 126.778 293.277 121.472C284.994 116.166 257.52 122.647 256.189 124.212C254.858 125.778 253.387 137.007 255.432 146.819Z" fill="url(#paint8_linear)"/>
<path fill-rule="evenodd" clip-rule="evenodd" d="M253.248 118.889C253.248 118.889 250.786 123.169 251.073 131.388C251.36 139.608 256.685 142.313 265.628 143.07C274.572 143.827 280.766 140.548 285.882 140.783C290.998 141.017 294.495 153.438 294.521 166.338C294.547 179.237 300.324 180.255 305.37 181.125C310.416 181.995 329.956 168.947 318.168 145.358C308.493 125.987 310.973 116.654 294.512 110.017C278.052 103.38 264.062 110.53 259.451 113.496C254.84 116.462 253.248 118.889 253.248 118.889Z" fill="#292929"/>
<path fill-rule="evenodd" clip-rule="evenodd" d="M163.421 289.983H184.153C187.958 289.983 191.043 293.067 191.043 296.872V427.198H156.53V296.872C156.53 293.067 159.615 289.983 163.421 289.983Z" fill="#2D2D2D"/>
<path d="M156.522 323.828H142.341V427.198H156.522V323.828Z" fill="#9E9E9E"/>
<path fill-rule="evenodd" clip-rule="evenodd" d="M290.676 149.785C290.676 149.785 290.798 147.959 294.069 146.584C297.34 145.21 299.628 145.714 300.498 150.481C301.368 155.248 299.001 159.014 296.522 160.336C294.043 161.658 291.389 159.188 291.389 159.188L290.676 149.785Z" fill="url(#paint9_linear)"/>
<path fill-rule="evenodd" clip-rule="evenodd" d="M264.158 314.495C291.024 326.411 333.193 317.661 333.193 317.661C333.193 317.661 340.44 262.218 339.761 242.526C339.317 229.565 336.603 217.127 332.549 208.603L309.642 207.185C309.642 207.185 313.574 240.83 312.669 247.919C311.765 255.008 269.7 284.164 264.384 290.522C261.636 293.735 259.077 297.104 256.72 300.612C255.649 306.779 254.875 311.111 254.875 311.111C254.875 311.111 255.119 310.485 264.158 314.495Z" fill="url(#paint10_linear)"/>
<path fill-rule="evenodd" clip-rule="evenodd" d="M208.852 412.498L210.201 417.917C210.201 417.917 196.046 420.865 193.671 421.987C191.296 423.109 190.469 423.875 190.634 425.31C190.8 426.745 194.001 427.198 194.001 427.198L227.931 426.963L224.651 413.698L208.852 412.498Z" fill="white"/>
<path fill-rule="evenodd" clip-rule="evenodd" d="M177.384 409.914C177.384 409.914 173.461 415.499 171.651 417.082C169.841 418.665 157.54 419.343 154.599 421.083C151.658 422.822 153.32 427.172 153.32 427.172L188.929 426.937L190.887 413.446L177.384 409.914Z" fill="white"/>
<path fill-rule="evenodd" clip-rule="evenodd" d="M225.748 311.738C225.748 311.738 204.772 311.738 200.091 313.59C195.411 315.443 193.906 318.722 194.958 327.62C196.011 336.519 207.93 413.168 207.93 413.168C207.93 413.168 221.633 417.656 223.59 415.864L225.522 414.072L225.748 311.738Z" fill="url(#paint11_linear)"/>
<path fill-rule="evenodd" clip-rule="evenodd" d="M261.705 311.738C261.705 311.738 231.255 312.555 223.521 313.903C215.786 315.252 175.653 410.558 175.653 410.558C175.653 410.558 181.386 415.386 186.215 415.69C191.043 415.995 192.253 415.69 192.253 415.69L247.576 338.806L282.176 339.737C286.913 339.862 291.474 337.936 294.686 334.453C297.898 330.969 299.45 326.268 298.941 321.558L298.48 317.331L261.705 311.738Z" fill="url(#paint12_linear)"/>
<path fill-rule="evenodd" clip-rule="evenodd" d="M298.306 327.742C292.929 330.882 286.126 334.344 281.462 334.831C272.71 335.701 247.811 329.856 240.416 329.699C233.021 329.543 241.286 335.284 240.416 339.05C239.546 342.816 223.964 347.2 216.273 360.795C208.652 374.243 188.433 415.046 188.077 415.838C189.428 415.949 190.787 415.917 192.131 415.742L247.454 338.858L282.054 339.789C289.597 339.984 296.301 335.014 298.306 327.742Z" fill="url(#paint13_linear)"/>
<path fill-rule="evenodd" clip-rule="evenodd" d="M305.022 289.983H414.268C416.252 289.983 418.155 290.771 419.558 292.174C420.961 293.577 421.75 295.48 421.75 297.464V427.198H305.022V289.983Z" fill="url(#paint14_linear)"/>
<path fill-rule="evenodd" clip-rule="evenodd" d="M294.66 289.983H315.393C319.198 289.983 322.283 293.067 322.283 296.872V427.198H287.77V296.872C287.77 295.045 288.496 293.293 289.788 292.001C291.08 290.709 292.833 289.983 294.66 289.983Z" fill="url(#paint15_linear)"/>
<path fill-rule="evenodd" clip-rule="evenodd" d="M0 440.549H498.884L464.65 427.198H31.581L0 440.549Z" fill="#BCBCBC"/>
<path fill-rule="evenodd" clip-rule="evenodd" d="M267.09 299.856C263.352 300.4 259.653 301.181 256.015 302.196C251.308 303.631 246.836 304.683 245.67 306.797C244.505 308.911 245.67 309.572 245.67 309.572H271.875C273.354 309.572 277.886 306.04 277.886 306.04L267.09 299.856Z" fill="url(#paint16_linear)"/>
<path fill-rule="evenodd" clip-rule="evenodd" d="M311.051 200.679C304.535 205.584 322.187 257.748 322.187 257.748L266.933 299.69C266.933 299.69 271.135 307.841 275.633 309.041L280.157 310.25C280.157 310.25 333.227 274.9 339.639 267.376C346.051 259.853 338.543 179.994 311.051 200.679Z" fill="url(#paint17_linear)"/>
<path d="M279.739 309.572H243.678C243.409 309.572 243.191 309.79 243.191 310.059V313.416C243.191 313.685 243.409 313.903 243.678 313.903H279.739C280.008 313.903 280.227 313.685 280.227 313.416V310.059C280.227 309.79 280.008 309.572 279.739 309.572Z" fill="#4E4E4E"/>
<path fill-rule="evenodd" clip-rule="evenodd" d="M179.724 313.903H249.107C250.455 313.903 251.265 312.581 250.908 310.937L239.154 256.93C238.797 255.295 237.414 253.964 236.066 253.964H166.683C165.335 253.964 164.526 255.286 164.882 256.93L176.61 310.937C176.993 312.572 178.35 313.903 179.724 313.903Z" fill="#4E4E4E"/>
<path fill-rule="evenodd" clip-rule="evenodd" d="M176.314 313.903H245.697C247.045 313.903 247.854 312.581 247.498 310.937L235.77 256.93C235.413 255.295 234.03 253.964 232.682 253.964H163.273C161.924 253.964 161.115 255.286 161.472 256.93L173.226 310.937C173.582 312.572 174.966 313.903 176.314 313.903Z" fill="url(#paint18_linear)"/>
<path fill-rule="evenodd" clip-rule="evenodd" d="M201.083 278.275C200.694 277.385 200.402 276.454 200.213 275.501C199.428 275.48 198.659 275.732 198.038 276.214C195.567 278.11 195.063 283.086 196.925 287.322C198.786 291.558 202.292 293.471 204.755 291.584C206.703 290.096 207.365 286.695 206.712 283.242C204.685 283.199 202.44 281.372 201.083 278.275Z" fill="#2D2D2D"/>
<path d="M151.928 314.947H32.5989V323.828H151.928V314.947Z" fill="url(#paint19_linear)"/>
<path d="M50.7037 323.828H43.1606V427.198H50.7037V323.828Z" fill="#2D2D2D"/>
<path d="M142.341 323.828H134.798V427.198H142.341V323.828Z" fill="#2D2D2D"/>
<path d="M134.798 371.068H50.7036V379.949H134.798V371.068Z" fill="#DBDBDB"/>
<path fill-rule="evenodd" clip-rule="evenodd" d="M67.3467 164.625C71.6227 165.727 75.6031 167.759 79.0046 170.574L73.2974 173.61L81.1274 172.514C82.7866 174.161 84.2466 175.997 85.4774 177.985L75.0374 180.942L86.5388 179.855C86.7476 180.264 86.9477 180.725 87.1391 181.108L75.4289 186.744L87.983 183.187C88.2701 183.961 88.5398 184.743 88.766 185.544C89.6572 188.686 90.0304 191.953 89.8709 195.216L78.7784 196.53L89.7404 196.921C89.7404 197.191 89.6882 197.46 89.6447 197.73L80.1269 199.191L89.4446 199.026C89.0616 201.171 88.4461 203.268 87.6089 205.28L80.3705 205.428L86.4605 207.794C85.1538 210.276 83.505 212.563 81.5624 214.587C75.8726 189.788 67.3467 164.625 67.3467 164.625Z" fill="#484848"/>
<path fill-rule="evenodd" clip-rule="evenodd" d="M76.6731 205.463L70.6614 209.272C69.2527 208.193 67.9425 206.991 66.7464 205.68L74.1153 199.061L64.2669 202.54C62.398 199.828 60.9873 196.828 60.0909 193.659C60.0213 193.398 59.9691 193.146 59.8995 192.885L70.0524 188.753L59.2122 189.354C59.1078 188.545 59.0382 187.744 58.9947 186.944L69.3303 182.16L58.9425 185.639C58.9315 183.434 59.1649 181.235 59.6385 179.081L69.3129 175.167L60.1518 177.054C60.5399 175.724 61.0195 174.422 61.5873 173.157L68.1036 170.905L62.0136 172.218C63.3831 169.423 65.1794 166.858 67.338 164.616C67.338 164.616 75.864 189.78 81.5103 214.578C79.7155 214.112 77.968 213.48 76.2903 212.691L76.6731 205.463Z" fill="#484848"/>
<path fill-rule="evenodd" clip-rule="evenodd" d="M95.4476 179.411C88.8473 182.974 83.1118 187.945 78.648 193.972L89.3489 196.582L75.951 198.078C73.91 201.467 72.2747 205.084 71.079 208.855L89.5751 209.403L70.1046 212.369C69.9219 213.134 69.7827 213.909 69.6348 214.683L91.3499 219.101L69.0954 218.449C68.9388 219.832 68.8257 221.232 68.7822 222.65C68.6166 228.188 69.3601 233.715 70.9833 239.012L89.8796 236.576L71.9229 241.752C72.0795 242.186 72.2448 242.621 72.4101 243.048L88.7399 241.56L73.2627 245.135C74.7889 248.493 76.6763 251.675 78.8916 254.625L90.9323 251.876L81.9104 258.261C85.1111 261.801 88.7922 264.875 92.8463 267.394C91.8458 224.294 95.4476 179.411 95.4476 179.411Z" fill="#828282"/>
<path fill-rule="evenodd" clip-rule="evenodd" d="M97.0659 250.389L108.593 254.173C110.469 251.817 112.132 249.299 113.561 246.649L98.6145 238.82L116.354 240.49C118.316 235.262 119.401 229.746 119.564 224.164C119.564 223.711 119.564 223.294 119.564 222.816L101.068 220.206L119.242 216.727C119.085 215.361 118.859 214.013 118.59 212.673L99.5019 209.081L118.128 210.473C117.225 206.843 115.921 203.324 114.24 199.983L96.57 197.565L112.5 196.877C111.304 194.851 109.97 192.909 108.506 191.067L96.7962 190.058L107.401 189.701C103.968 185.672 99.9297 182.201 95.4303 179.411C95.4303 179.411 91.8286 224.294 92.8204 267.394C95.6053 265.888 98.2441 264.126 100.703 262.132L97.0659 250.389Z" fill="#828282"/>
<path fill-rule="evenodd" clip-rule="evenodd" d="M109.011 182.334C104.252 183.871 99.887 186.43 96.2218 189.832L101.677 193.529L93.7771 192.233C91.8163 194.328 90.0678 196.612 88.5571 199.052L98.884 202.601L87.2173 201.383C86.9476 201.896 86.6866 202.418 86.4343 202.949L97.6834 209.794L85.2598 205.55C84.8596 206.506 84.4767 207.481 84.1287 208.481C82.7928 212.355 81.9709 216.388 81.684 220.476L92.9071 221.98L81.597 222.581C81.597 222.92 81.597 223.25 81.597 223.59L91.1671 225.329L81.597 225.225C81.6964 227.818 82.046 230.396 82.641 232.923L90.0622 233.027L83.5285 236.019C84.4916 238.986 85.8775 241.798 87.6436 244.37C96.8482 213.595 109.011 182.334 109.011 182.334Z" fill="#B7B7B7"/>
<path fill-rule="evenodd" clip-rule="evenodd" d="M93.9077 233.01L99.5714 237.664C101.189 236.285 102.696 234.781 104.078 233.167L97.3964 225.051L107.01 229.27C109.322 225.846 111.171 222.131 112.508 218.223C112.621 217.901 112.708 217.579 112.813 217.266L102.964 212.239L114.022 212.865C114.24 211.865 114.422 210.873 114.57 209.873L104.6 204.062L114.84 208.272C115.15 205.578 115.208 202.861 115.014 200.157L105.601 195.425L114.753 197.66C114.538 196.039 114.222 194.432 113.805 192.85L107.419 190.136L113.509 191.693C112.534 188.361 111.037 185.205 109.072 182.343C109.072 182.343 96.8918 213.596 87.7568 244.37C89.7097 243.759 91.5979 242.957 93.3944 241.978L93.9077 233.01Z" fill="#484848"/>
<path fill-rule="evenodd" clip-rule="evenodd" d="M69.2955 203.906C64.9001 207.7 61.395 212.416 59.0294 217.718L67.5468 217.927L57.6635 221.241C56.6858 224.137 56.0521 227.139 55.7756 230.183L69.8262 227.53L55.619 233.001C55.619 233.61 55.619 234.219 55.619 234.828L72.7233 234.575L55.8539 237.759C55.967 238.829 56.1062 239.907 56.315 240.986C57.1 245.192 58.5695 249.241 60.665 252.972L74.5242 248.006L61.8482 254.86C62.0396 255.164 62.2311 255.46 62.4312 255.73L74.5416 251.885L63.4578 257.208C65.1689 259.49 67.1234 261.578 69.2868 263.436L77.9172 259.365L72.21 265.68C75.2134 267.821 78.5021 269.531 81.9802 270.76C74.0283 238.394 69.2955 203.906 69.2955 203.906Z" fill="#B7B7B7"/>
<path fill-rule="evenodd" clip-rule="evenodd" d="M82.2932 257.217L91.6282 258.156C92.6548 256.066 93.4933 253.889 94.1338 251.65L81.545 248.223L95.2126 246.544C95.8274 242.27 95.7304 237.923 94.9255 233.68C94.8646 233.332 94.7689 233.001 94.6993 232.662L80.3009 233.793L93.4378 228.139C93.0898 227.13 92.6983 226.147 92.272 225.19L77.2646 225.651L91.5586 223.616C90.2737 221.023 88.7038 218.581 86.8781 216.335L73.1756 217.457L85.0859 214.291C83.8477 212.936 82.5162 211.669 81.1013 210.499L72.0968 211.717L80.0399 209.69C76.7796 207.217 73.1549 205.266 69.2954 203.906C69.2954 203.906 74.0282 238.394 81.9452 270.76C83.7903 269.158 85.4824 267.387 86.9999 265.472L82.2932 257.217Z" fill="#484848"/>
<path fill-rule="evenodd" clip-rule="evenodd" d="M104.661 314.947H64.8584L58.9424 263.367H110.577L104.661 314.947Z" fill="#9E9E9E"/>
<path fill-rule="evenodd" clip-rule="evenodd" d="M58.9424 263.367L64.8584 314.947H80.0833L75.6724 263.367H58.9424Z" fill="#4E4E4E"/>
<path d="M112.595 261.888H56.9329V274.596H112.595V261.888Z" fill="#DBDBDB"/>
<path d="M67.251 327.594H57.6462V371.068H67.251V327.594Z" fill="#4E4E4E"/>
<path d="M76.8558 327.594H67.251V371.068H76.8558V327.594Z" fill="#2D2D2D"/>
<path d="M84.3552 327.594H76.8472V371.068H84.3552V327.594Z" fill="white"/>
<path d="M114.327 327.594H84.3463V371.068H114.327V327.594Z" fill="#4E4E4E"/>
<path d="M64.1799 383.724H57.6462V427.198H64.1799V383.724Z" fill="#4E4E4E"/>
<path d="M70.7136 383.724H64.1799V427.198H70.7136V383.724Z" fill="#2D2D2D"/>
<path d="M75.8206 383.724H70.7136V427.198H75.8206V383.724Z" fill="white"/>
<path d="M96.2219 383.724H75.8206V427.198H96.2219V383.724Z" fill="#2D2D2D"/>
<path d="M93.7571 326.536L84.3696 328.567L93.566 371.057L102.953 369.026L93.7571 326.536Z" fill="white"/>
<path d="M117.408 326.535L108.021 328.566L117.217 371.057L126.604 369.026L117.408 326.535Z" fill="white"/>
<path fill-rule="evenodd" clip-rule="evenodd" d="M93.7339 326.551H117.389L126.585 369.041H102.93L93.7339 326.551Z" fill="#2D2D2D"/>
<path fill-rule="evenodd" clip-rule="evenodd" d="M93.5425 371.068L102.93 369.041H126.585L117.198 371.068H93.5425Z" fill="#2D2D2D"/>
<path d="M127.185 290.209H123.853V285.173H101.277V312.268C101.277 313.748 102.477 314.947 103.956 314.947H121.182C122.662 314.947 123.862 313.748 123.862 312.268V309.911H127.194C130.077 309.911 132.414 307.574 132.414 304.692V295.454C132.421 294.064 131.873 292.729 130.891 291.744C129.91 290.759 128.576 290.207 127.185 290.209ZM129.63 302.883C129.63 305.193 127.757 307.067 125.445 307.067H123.888V293.062H125.445C127.757 293.062 129.63 294.936 129.63 297.246V302.883Z" fill="url(#paint20_linear)"/>
<path fill-rule="evenodd" clip-rule="evenodd" d="M412.38 248.093C403.358 282.294 407.482 315.939 421.202 340.494C445.24 325.898 465.45 298.664 474.437 264.428C483.424 230.192 479.335 196.582 465.615 172.027C441.569 186.657 421.385 213.891 412.38 248.093Z" fill="#B7B7B7"/>
<path fill-rule="evenodd" clip-rule="evenodd" d="M448.435 246.256C448.695 246.348 448.831 246.634 448.739 246.894C443.093 262.768 438.424 278.972 434.757 295.415L434.757 295.417C431.504 309.725 430.286 325.381 429.882 337.47C429.68 343.513 429.681 348.66 429.733 352.295C429.76 354.113 429.798 355.552 429.83 356.537C429.846 357.029 429.861 357.408 429.871 357.663C429.876 357.791 429.881 357.887 429.883 357.952L429.887 358.025L429.888 358.049C429.888 358.049 429.888 358.049 429.389 358.073C428.889 358.097 428.889 358.097 428.889 358.097L428.888 358.071L428.884 357.997C428.882 357.931 428.877 357.833 428.872 357.704C428.862 357.446 428.847 357.065 428.831 356.57C428.799 355.579 428.76 354.134 428.734 352.309C428.681 348.661 428.68 343.498 428.882 337.437C429.287 325.32 430.509 309.593 433.781 295.197C437.457 278.714 442.137 262.471 447.796 246.559C447.889 246.299 448.175 246.163 448.435 246.256ZM429.413 358.572C429.137 358.586 428.902 358.372 428.889 358.097L429.389 358.073L429.888 358.049C429.901 358.324 429.688 358.559 429.413 358.572Z" fill="#181818"/>
<path fill-rule="evenodd" clip-rule="evenodd" d="M410.189 236.375C410.464 236.343 410.712 236.539 410.745 236.813L410.249 236.872L409.752 236.931C409.719 236.657 409.915 236.408 410.189 236.375ZM410.249 236.872C409.752 236.931 409.752 236.931 409.752 236.931L409.797 237.307C409.827 237.555 409.872 237.921 409.93 238.396C410.047 239.345 410.218 240.73 410.44 242.47C410.882 245.952 411.523 250.858 412.314 256.558C413.897 267.957 416.084 282.536 418.501 295.243C420.912 307.922 422.935 322.621 424.356 334.154C425.067 339.92 425.626 344.892 426.008 348.423C426.199 350.189 426.346 351.594 426.444 352.557C426.494 353.039 426.531 353.41 426.556 353.661L426.594 354.042C426.594 354.042 426.594 354.042 426.965 354.006L426.594 354.042C426.621 354.317 426.866 354.518 427.14 354.491C427.415 354.464 427.616 354.22 427.589 353.945L427.205 353.982C427.589 353.945 427.589 353.945 427.589 353.945L427.589 353.943L427.551 353.562C427.526 353.31 427.489 352.938 427.439 352.455C427.34 351.49 427.193 350.083 427.002 348.316C426.62 344.781 426.06 339.803 425.349 334.032C423.927 322.491 421.901 307.768 419.483 295.057C417.071 282.374 414.887 267.814 413.305 256.421C412.514 250.725 411.874 245.823 411.432 242.344C411.211 240.605 411.039 239.222 410.923 238.274C410.864 237.8 410.82 237.434 410.79 237.187L410.745 236.813C410.745 236.813 410.745 236.813 410.249 236.872Z" fill="#181818"/>
<path d="M402.401 292.097C402.401 292.097 410.231 313.521 415.982 327.403C421.732 341.285 427.1 355.568 427.1 355.568" stroke="#112244" stroke-linecap="round" stroke-linejoin="round"/>
<path fill-rule="evenodd" clip-rule="evenodd" d="M435.365 116.558C431.268 146.532 434.826 174.175 443.665 192.859C457.202 177.202 468.025 151.551 472.14 121.577C476.255 91.6029 472.68 63.9599 463.841 45.2761C450.312 60.8894 439.463 86.584 435.365 116.558Z" fill="url(#paint21_linear)"/>
<path fill-rule="evenodd" clip-rule="evenodd" d="M407.56 164.624C408.796 137.182 410.623 87.6538 411.667 58.7844C392.622 82.3566 380.407 118.463 380.407 159.005C380.407 199.078 392.353 234.81 411.014 258.391C408.9 230.714 406.438 189.623 407.56 164.624Z" fill="#484848"/>
<path fill-rule="evenodd" clip-rule="evenodd" d="M444.57 159.014C444.57 117.889 432.016 81.2955 412.502 57.7581C412.223 58.0886 411.962 58.4539 411.693 58.7931C410.649 87.6626 408.813 137.19 407.586 164.633C406.464 189.614 408.97 230.74 411.066 258.409C411.553 259.026 412.032 259.679 412.528 260.279C431.99 236.724 444.57 200.139 444.57 159.014Z" fill="#969393"/>
<path fill-rule="evenodd" clip-rule="evenodd" d="M444.753 187.101C437.358 211.76 438.315 235.95 445.779 253.572C461.709 242.96 475.812 223.285 483.189 198.626C490.567 173.966 489.627 149.776 482.163 132.154C466.25 142.757 452.148 162.441 444.753 187.101Z" fill="url(#paint22_linear)"/>
<path fill-rule="evenodd" clip-rule="evenodd" d="M462.588 427.11H391.979L381.495 335.631H473.063L462.588 427.11Z" fill="#9E9E9E"/>
<path fill-rule="evenodd" clip-rule="evenodd" d="M381.495 335.631L391.979 427.11H418.992L411.171 335.631H381.495Z" fill="#313131"/>
<path d="M476.647 333.013H377.919V355.559H476.647V333.013Z" fill="#DBDBDB"/>
<path d="M413.876 177.585C415.885 177.585 417.513 174.684 417.513 171.105C417.513 167.526 415.885 164.625 413.876 164.625C411.868 164.625 410.24 167.526 410.24 171.105C410.24 174.684 411.868 177.585 413.876 177.585Z" fill="#BCBCBC"/>
<path d="M424.85 180.839C427.381 178.309 428.281 175.106 426.861 173.686C425.441 172.267 422.238 173.167 419.707 175.698C417.175 178.228 416.275 181.431 417.695 182.851C419.115 184.271 422.318 183.37 424.85 180.839Z" fill="#BCBCBC"/>
<path d="M424.625 216.219C428.1 212.744 429.34 208.349 427.393 206.403C425.446 204.457 421.05 205.696 417.575 209.171C414.099 212.646 412.859 217.041 414.806 218.987C416.753 220.934 421.149 219.694 424.625 216.219Z" fill="#BCBCBC"/>
<path d="M423.554 232.544C425.629 228.088 425.288 223.535 422.792 222.373C420.297 221.211 416.591 223.881 414.516 228.336C412.441 232.791 412.782 237.344 415.278 238.506C417.774 239.668 421.479 236.999 423.554 232.544Z" fill="#BCBCBC"/>
<path fill-rule="evenodd" clip-rule="evenodd" d="M359.31 249.589C370.576 278.006 389.273 299.847 409.204 310.772C381.599 279.597 353.733 170.844 353.733 170.844C346.721 192.45 348.07 221.171 359.31 249.589Z" fill="#484848"/>
<path fill-rule="evenodd" clip-rule="evenodd" d="M403.68 232.027C392.37 203.61 373.691 181.795 353.759 170.844C353.759 170.844 381.599 279.571 409.23 310.772C416.269 289.165 414.92 260.444 403.68 232.027Z" fill="url(#paint23_linear)"/>
<path fill-rule="evenodd" clip-rule="evenodd" d="M403.68 232.027C392.37 203.61 373.691 181.795 353.759 170.844C353.759 170.844 381.599 279.571 409.23 310.772C416.269 289.165 414.92 260.444 403.68 232.027Z" fill="#969393"/>
<path d="M386.262 257.369C387.689 256.771 387.981 254.221 386.913 251.673C385.846 249.126 383.824 247.545 382.397 248.143C380.97 248.74 380.678 251.29 381.746 253.838C382.813 256.386 384.835 257.966 386.262 257.369Z" fill="#BCBCBC"/>
<path d="M404.335 260.262C405.762 259.664 406.054 257.114 404.986 254.567C403.919 252.019 401.897 250.438 400.47 251.036C399.043 251.633 398.751 254.183 399.819 256.731C400.886 259.279 402.908 260.859 404.335 260.262Z" fill="#BCBCBC"/>
<path d="M395.031 256.406C396.078 253.85 395.766 251.303 394.335 250.717C392.903 250.13 390.893 251.727 389.846 254.283C388.799 256.84 389.111 259.387 390.543 259.973C391.975 260.56 393.984 258.963 395.031 256.406Z" fill="#BCBCBC"/>
<path d="M396.503 266.079C397.55 263.523 397.238 260.975 395.806 260.389C394.374 259.803 392.365 261.4 391.318 263.956C390.271 266.512 390.582 269.06 392.014 269.646C393.446 270.232 395.456 268.635 396.503 266.079Z" fill="#BCBCBC"/>
<path d="M405.414 281.645C406.851 278.138 406.422 274.642 404.457 273.837C402.492 273.032 399.734 275.224 398.297 278.731C396.86 282.239 397.289 285.734 399.254 286.539C401.22 287.344 403.978 285.153 405.414 281.645Z" fill="#BCBCBC"/>
<path d="M409.531 293.58C409.679 289.792 408.079 286.655 405.957 286.572C403.835 286.489 401.994 289.492 401.846 293.279C401.698 297.066 403.298 300.204 405.42 300.287C407.542 300.37 409.382 297.367 409.531 293.58Z" fill="#BCBCBC"/>
<path d="M263.61 155.265C263.61 155.265 264.654 167.399 264.654 170.052C264.654 172.705 268.282 170.261 269.395 170.052" stroke="#EB6057" stroke-linecap="round" stroke-linejoin="round"/>
<path opacity="0.2" d="M173.46 109.085C187.881 106.097 197.149 91.9858 194.16 77.5675C191.17 63.1492 177.057 53.8835 162.635 56.872C148.214 59.8605 138.947 73.9715 141.936 88.3898C144.925 102.808 159.039 112.074 173.46 109.085Z" fill="#35B986"/>
<path d="M171.237 98.361C179.734 96.6001 185.194 88.2859 183.433 79.7907C181.672 71.2954 173.356 65.8361 164.859 67.5969C156.362 69.3577 150.901 77.6719 152.663 86.1672C154.424 94.6625 162.74 100.122 171.237 98.361Z" fill="#35B986"/>
<path fill-rule="evenodd" clip-rule="evenodd" d="M157.218 26.7401C131.988 31.959 117.05 62.7507 123.836 95.4561L215.186 76.5461C208.391 43.8234 182.448 21.5124 157.218 26.7401Z" fill="url(#paint24_linear)"/>
<path fill-rule="evenodd" clip-rule="evenodd" d="M123.827 95.4908L148.37 90.4024C143.411 66.4649 145.76 43.7364 153.442 27.7751C130.5 35.1251 117.389 64.4208 123.827 95.4908Z" fill="#484848"/>
<defs>
<linearGradient id="paint0_linear" x1="262.572" y1="27.0601" x2="262.572" y2="437.431" gradientUnits="userSpaceOnUse">
<stop stop-opacity="0.5"/>
<stop offset="1"/>
</linearGradient>
<linearGradient id="paint1_linear" x1="170.313" y1="41.7295" x2="170.313" y2="127.6" gradientUnits="userSpaceOnUse">
<stop stop-opacity="0.5"/>
<stop offset="1"/>
</linearGradient>
<linearGradient id="paint2_linear" x1="312.089" y1="232.847" x2="411.466" y2="347.404" gradientUnits="userSpaceOnUse">
<stop stop-color="#7D7D7D"/>
<stop offset="1" stop-color="#151515"/>
</linearGradient>
<linearGradient id="paint3_linear" x1="192" y1="311.502" x2="291.489" y2="438.117" gradientUnits="userSpaceOnUse">
<stop stop-color="#7D7D7D"/>
<stop offset="1" stop-color="#151515"/>
</linearGradient>
<linearGradient id="paint4_linear" x1="254.797" y1="378.026" x2="254.797" y2="179.307" gradientUnits="userSpaceOnUse">
<stop stop-color="#404143"/>
<stop offset="1" stop-color="white"/>
</linearGradient>
<linearGradient id="paint5_linear" x1="297.332" y1="316.748" x2="297.332" y2="181.826" gradientUnits="userSpaceOnUse">
<stop stop-color="#22252B"/>
<stop offset="1" stop-color="#E5E5E5"/>
</linearGradient>
<linearGradient id="paint6_linear" x1="288.788" y1="185.663" x2="287.771" y2="179.076" gradientUnits="userSpaceOnUse">
<stop stop-color="#F8A695"/>
<stop offset="1" stop-color="#FF6B4D"/>
</linearGradient>
<linearGradient id="paint7_linear" x1="113.74" y1="340.039" x2="163.026" y2="357.837" gradientUnits="userSpaceOnUse">
<stop stop-color="#7D7D7D"/>
<stop offset="1" stop-color="#151515"/>
</linearGradient>
<linearGradient id="paint8_linear" x1="284.879" y1="157.534" x2="282.414" y2="139.642" gradientUnits="userSpaceOnUse">
<stop stop-color="#F8A695"/>
<stop offset="1" stop-color="#FF6B4D"/>
</linearGradient>
<linearGradient id="paint9_linear" x1="295.788" y1="157.41" x2="293.142" y2="138.165" gradientUnits="userSpaceOnUse">
<stop stop-color="#F8A695"/>
<stop offset="1" stop-color="#FF6B4D"/>
</linearGradient>
<linearGradient id="paint10_linear" x1="297.328" y1="317.401" x2="297.328" y2="204.451" gradientUnits="userSpaceOnUse">
<stop stop-color="#2F2F2F"/>
<stop offset="1" stop-color="#E5E5E5"/>
</linearGradient>
<linearGradient id="paint11_linear" x1="210.194" y1="343.311" x2="210.194" y2="384.694" gradientUnits="userSpaceOnUse">
<stop stop-color="#5E5D5D"/>
<stop offset="1" stop-color="#B4B4B4"/>
</linearGradient>
<linearGradient id="paint12_linear" x1="237.318" y1="323.797" x2="237.318" y2="416.051" gradientUnits="userSpaceOnUse">
<stop stop-color="#A9A9A9"/>
<stop offset="1" stop-color="#E4E4E4"/>
</linearGradient>
<linearGradient id="paint13_linear" x1="243.168" y1="337.956" x2="243.168" y2="416.094" gradientUnits="userSpaceOnUse">
<stop stop-color="#7C7C7C"/>
<stop offset="1" stop-color="#E4E4E4"/>
</linearGradient>
<linearGradient id="paint14_linear" x1="335.924" y1="311.502" x2="437.776" y2="424.432" gradientUnits="userSpaceOnUse">
<stop stop-color="#7D7D7D"/>
<stop offset="1" stop-color="#151515"/>
</linearGradient>
<linearGradient id="paint15_linear" x1="288" y1="313.502" x2="293.364" y2="418.958" gradientUnits="userSpaceOnUse">
<stop offset="0.0318243" stop-color="#8B8B8B"/>
<stop offset="1" stop-color="#1C1C1C"/>
</linearGradient>
<linearGradient id="paint16_linear" x1="265.889" y1="304.644" x2="269.966" y2="302.255" gradientUnits="userSpaceOnUse">
<stop stop-color="#F8A695"/>
<stop offset="1" stop-color="#FF6B4D"/>
</linearGradient>
<linearGradient id="paint17_linear" x1="304.353" y1="383.719" x2="304.353" y2="178.751" gradientUnits="userSpaceOnUse">
<stop stop-color="#404143"/>
<stop offset="1" stop-color="white"/>
</linearGradient>
<linearGradient id="paint18_linear" x1="227" y1="258.002" x2="169.363" y2="288.538" gradientUnits="userSpaceOnUse">
<stop stop-color="#BBBBBB"/>
<stop offset="1" stop-color="#7A7A7A"/>
</linearGradient>
<linearGradient id="paint19_linear" x1="64.1899" y1="316.34" x2="64.9443" y2="329.551" gradientUnits="userSpaceOnUse">
<stop stop-color="#7D7D7D"/>
<stop offset="1" stop-color="#151515"/>
</linearGradient>
<linearGradient id="paint20_linear" x1="124" y1="290.502" x2="103.138" y2="312.192" gradientUnits="userSpaceOnUse">
<stop stop-color="#7D7D7D"/>
<stop offset="1" stop-color="#151515"/>
</linearGradient>
<linearGradient id="paint21_linear" x1="467.009" y1="45.0912" x2="405.335" y2="180.847" gradientUnits="userSpaceOnUse">
<stop offset="0.0318243" stop-color="#7A7A7A"/>
<stop offset="1" stop-color="#484848"/>
</linearGradient>
<linearGradient id="paint22_linear" x1="480" y1="132.002" x2="442" y2="255.002" gradientUnits="userSpaceOnUse">
<stop offset="0.0318243" stop-color="#7A7A7A"/>
<stop offset="1" stop-color="#484848"/>
</linearGradient>
<linearGradient id="paint23_linear" x1="380.863" y1="159.684" x2="412.817" y2="281.936" gradientUnits="userSpaceOnUse">
<stop stop-color="#4C93F4"/>
<stop offset="1" stop-color="#0849A1"/>
</linearGradient>
<linearGradient id="paint24_linear" x1="172" y1="85.0017" x2="160.5" y2="26.0017" gradientUnits="userSpaceOnUse">
<stop offset="0.0318243" stop-color="#939393"/>
<stop offset="1" stop-color="#484848"/>
</linearGradient>
</defs>
</svg>
