<svg width="12" height="11" viewBox="0 0 12 11" fill="none" xmlns="http://www.w3.org/2000/svg">
<path fill-rule="evenodd" clip-rule="evenodd" d="M6.43483 5.49942L10.8928 1.04707C11.1325 0.807339 11.1325 0.419525 10.8928 0.179796C10.6531 -0.0599321 10.2653 -0.0599321 10.0256 0.179796L5.57371 4.63821L1.12183 0.179796C0.882124 -0.0599321 0.49435 -0.0599321 0.254647 0.179796C0.014944 0.419525 0.014944 0.807339 0.254647 1.04707L4.71259 5.49942L0.254647 9.95177C0.13938 10.0663 0.0737305 10.2228 0.0737305 10.3854C0.0737305 10.548 0.13938 10.7045 0.254647 10.8191C0.369152 10.9343 0.525637 11 0.688247 11C0.850857 11 1.00733 10.9343 1.12185 10.8191L5.57373 6.36065L10.0256 10.8191C10.1401 10.9343 10.2966 11 10.4592 11C10.6218 11 10.7783 10.9343 10.8928 10.8191C11.0081 10.7045 11.0737 10.548 11.0737 10.3854C11.0737 10.2228 11.0081 10.0663 10.8928 9.95177L6.43483 5.49942Z" fill="white"/>
</svg>
