<svg width="22" height="22" viewBox="0 0 22 22" fill="none" xmlns="http://www.w3.org/2000/svg">
<path opacity="0.6" fill-rule="evenodd" clip-rule="evenodd" d="M12.8874 10.5413L21.4174 2.02205C21.876 1.56335 21.876 0.821289 21.4174 0.362584C20.9587 -0.0961217 20.2167 -0.0961217 19.7581 0.362584L11.2397 8.89347L2.72129 0.362584C2.26263 -0.0961217 1.52065 -0.0961217 1.06199 0.362584C0.603336 0.821289 0.603336 1.56335 1.06199 2.02205L9.59198 10.5413L1.06199 19.0606C0.841437 19.2798 0.71582 19.5792 0.71582 19.8904C0.71582 20.2016 0.841437 20.501 1.06199 20.7202C1.28109 20.9407 1.58052 21.0664 1.89166 21.0664C2.2028 21.0664 2.5022 20.9407 2.72133 20.7202L11.2397 12.1893L19.7581 20.7202C19.9772 20.9407 20.2766 21.0664 20.5878 21.0664C20.8989 21.0664 21.1983 20.9407 21.4175 20.7202C21.638 20.501 21.7636 20.2016 21.7636 19.8904C21.7636 19.5792 21.638 19.2798 21.4175 19.0606L12.8874 10.5413Z" fill="black"/>
</svg>
