<svg width="10" height="13" viewBox="0 0 10 13" fill="none" xmlns="http://www.w3.org/2000/svg">
<path d="M9.2443 5.20831H8.31745L8.31801 3.712C8.31801 1.66548 6.82943 0 5.00008 0C3.17073 0 1.68214 1.66563 1.68214 3.712V5.20831H0.755294C0.338012 5.20831 0 5.56923 0 6.0148V12.1935C0 12.6391 0.338012 13 0.755294 13H9.24414C9.66142 13 9.99943 12.6391 9.99943 12.1935L10 6.01542C10 5.56985 9.66142 5.20832 9.24414 5.20832L9.2443 5.20831ZM7.38321 5.20831H2.61698V3.712C2.61698 2.21508 3.68595 0.99811 5.00002 0.99811C6.31409 0.99811 7.38306 2.21571 7.38306 3.712L7.38321 5.20831Z" fill="#8D8D8D"/>
</svg>
