<svg width="14" height="14" viewBox="0 0 14 14" fill="none" xmlns="http://www.w3.org/2000/svg">
<path opacity="0.3" fill-rule="evenodd" clip-rule="evenodd" d="M10.2244 9.21625L13.7916 12.7848C14.0696 13.0622 14.0702 13.5114 13.7892 13.7919C13.5106 14.0711 13.0547 14.0668 12.7823 13.7943L9.21445 10.2264C6.97367 11.9705 3.73299 11.8128 1.67316 9.75264C-0.55772 7.52131 -0.55772 3.90419 1.67316 1.67349C3.90341 -0.557831 7.51981 -0.557831 9.75069 1.67349C11.8104 3.73357 11.9681 6.97503 10.2244 9.21625ZM8.7408 8.74249C10.4139 7.06967 10.4139 4.35651 8.7408 2.68306C7.06831 1.01023 4.3557 1.01023 2.68258 2.68306C1.01009 4.35651 1.01009 7.06967 2.68258 8.74249C4.3557 10.4159 7.06831 10.4159 8.7408 8.74249Z" fill="black"/>
</svg>
