<svg width="12" height="15" viewBox="0 0 12 15" fill="none" xmlns="http://www.w3.org/2000/svg">
<path fill-rule="evenodd" clip-rule="evenodd" d="M6.7754 2.35192V12.4587C7.3556 12.4961 8.10425 12.571 8.60959 12.6646C8.70317 12.9827 8.7406 13.7314 8.68445 14.0308H2.60168C2.6204 13.6565 2.80756 13.0389 2.93857 12.7207C3.3129 12.6084 4.06155 12.4774 4.51074 12.44V2.35192H1.9279C1.89046 2.76367 1.75945 3.54975 1.68459 3.90536C1.21668 4.03638 0.542896 4.07381 0.0562744 4.07381V0.910767H11.2299V4.14867C10.7058 4.14867 10.0507 4.09252 9.58283 3.96151C9.48925 3.54975 9.37695 2.80111 9.33952 2.35192H6.7754Z" fill="white"/>
</svg>
