<svg width="15" height="15" viewBox="0 0 15 15" fill="none" xmlns="http://www.w3.org/2000/svg">
<path d="M7.5 0C3.36271 0 0 3.36271 0 7.5C0 11.6373 3.36271 15 7.5 15C11.6373 15 15 11.6373 15 7.5C15 3.36271 11.6373 0 7.5 0ZM11.5625 5.17496L6.27469 10.4562C6.16179 10.5749 5.99991 10.6371 5.83722 10.6371C5.66871 10.6371 5.51183 10.5749 5.39312 10.4562L3.18093 8.24972C2.93689 8.00568 2.93689 7.60557 3.18093 7.36234C3.42497 7.11829 3.82508 7.11829 4.06831 7.36234L5.83726 9.13129L10.6809 4.28762C10.925 4.04358 11.3184 4.04358 11.5625 4.28762C11.8065 4.53166 11.8065 4.9309 11.5625 5.17496Z" fill="#35B986"/>
</svg>
