<svg width="125" height="44" viewBox="0 0 125 44" fill="none" xmlns="http://www.w3.org/2000/svg">
<path d="M0.912266 19.9972H5.54729C5.61972 20.8588 5.93958 21.5516 6.50689 22.0755C7.0742 22.5878 7.81653 22.844 8.73388 22.844C9.19255 22.844 9.62708 22.745 10.0375 22.5471C10.4599 22.3491 10.7979 22.0755 11.0514 21.7262C11.3169 21.3653 11.4497 20.9519 11.4497 20.4862C11.4497 19.6595 11.1721 19.0948 10.6169 18.7921C10.0737 18.4778 9.22273 18.175 8.06397 17.884C6.62759 17.5347 5.39641 17.1563 4.37043 16.7487C3.35652 16.3296 2.51159 15.7241 1.83565 14.9324C1.17178 14.1407 0.839844 13.0986 0.839844 11.8062C0.839844 10.6302 1.14764 9.61146 1.76323 8.74986C2.37882 7.87662 3.1996 7.20714 4.22559 6.74141C5.25157 6.27568 6.36204 6.04282 7.55701 6.04282C9.60898 6.04282 11.1057 6.61334 12.0472 7.75437V6.42704H15.3786V11.6141H10.9971C10.9609 10.9388 10.7013 10.3974 10.2185 9.98986C9.74779 9.57071 9.15634 9.36113 8.44419 9.36113C8.00965 9.36113 7.59926 9.44263 7.21301 9.60564C6.83882 9.757 6.53103 9.98404 6.28962 10.2868C6.04821 10.5895 5.92751 10.9504 5.92751 11.3696C5.92751 11.9168 6.08443 12.3593 6.39826 12.6969C6.71209 13.0229 7.11041 13.2674 7.59322 13.4304C8.07604 13.5934 8.60714 13.739 9.18651 13.867C10.6832 14.2047 11.9386 14.5773 12.9525 14.9848C13.9785 15.3807 14.8355 15.9861 15.5235 16.8011C16.2115 17.6162 16.5555 18.6932 16.5555 20.0321C16.5555 21.243 16.2296 22.3142 15.5778 23.2456C14.926 24.1655 14.0569 24.864 12.9706 25.3414C11.8842 25.8071 10.7195 26.04 9.4762 26.04C7.29146 26.04 5.58954 25.3472 4.37043 23.9617V25.5335H0.912266V19.9972Z" fill="#181818"/>
<path d="M24.7573 0V9.29127C25.385 8.2201 26.2058 7.40507 27.2197 6.8462C28.2457 6.28733 29.4044 6.00789 30.6959 6.00789C31.4202 6.00789 32.1323 6.1185 32.8324 6.33972C33.5446 6.56094 34.1903 6.88695 34.7697 7.31775C35.3491 7.7369 35.856 8.23174 36.2906 8.80226C36.9786 9.69878 37.4191 10.6011 37.6123 11.5093C37.8175 12.4058 37.9201 13.5294 37.9201 14.88V21.4642H40.4729V25.5335H30.8408V21.4642H33.3937V16.0501C33.3937 14.8975 33.3635 14.0766 33.3031 13.5876C33.2549 13.087 33.0617 12.5747 32.7238 12.0507C31.9513 10.8864 30.7563 10.3042 29.1389 10.3042C28.4388 10.3042 27.799 10.4323 27.2197 10.6885C26.6403 10.9446 26.1394 11.3288 25.7169 11.8411C25.4151 12.2021 25.1918 12.5805 25.047 12.9763C24.9022 13.3722 24.8177 13.7681 24.7935 14.1639C24.7694 14.5482 24.7573 15.0488 24.7573 15.6659V21.4642H27.3102V25.5335H17.678V21.4642H20.2309V4.0693H17.678V0H24.7573Z" fill="#181818"/>
<path d="M51.5898 26.04C50.1896 26.04 48.8558 25.778 47.5884 25.2541C46.3211 24.7302 45.2106 23.9966 44.257 23.0535C43.3155 22.1104 42.5792 21.0218 42.0481 19.7876C41.517 18.5418 41.2515 17.2494 41.2515 15.9104C41.2515 14.0941 41.7162 12.4175 42.6456 10.8806C43.5871 9.33202 44.8605 8.10949 46.4659 7.21296C48.0713 6.31643 49.8154 5.86817 51.6984 5.86817C53.1227 5.86817 54.4625 6.13597 55.7178 6.67155C56.9852 7.1955 58.0776 7.91155 58.995 8.81972C59.9244 9.72789 60.6546 10.7991 61.1857 12.0332C61.7289 13.2674 62.0005 14.5482 62.0005 15.8755C62.0005 17.7035 61.5358 19.4034 60.6064 20.9752C59.6769 22.5354 58.4156 23.7696 56.8223 24.6778C55.229 25.5859 53.4848 26.04 51.5898 26.04ZM51.5898 21.7437C52.6761 21.7437 53.6719 21.4875 54.5772 20.9752C55.4945 20.4513 56.2188 19.7527 56.7499 18.8794C57.293 17.9946 57.5646 17.0282 57.5646 15.9803C57.5646 14.9673 57.2991 14.0126 56.768 13.1161C56.2489 12.2079 55.5428 11.486 54.6496 10.9504C53.7564 10.4148 52.7727 10.147 51.6984 10.147C50.6362 10.147 49.6404 10.4032 48.711 10.9155C47.7816 11.4278 47.0453 12.1264 46.5021 13.0113C45.9589 13.8845 45.6874 14.8393 45.6874 15.8755C45.6874 16.9234 45.9469 17.9014 46.4659 18.8096C46.9849 19.7061 47.6971 20.4222 48.6024 20.9578C49.5076 21.4817 50.5034 21.7437 51.5898 21.7437Z" fill="#181818"/>
<path d="M63.2317 19.9972H67.8667C67.9391 20.8588 68.259 21.5516 68.8263 22.0755C69.3936 22.5878 70.1359 22.844 71.0533 22.844C71.512 22.844 71.9465 22.745 72.3569 22.5471C72.7793 22.3491 73.1173 22.0755 73.3708 21.7262C73.6363 21.3653 73.7691 20.9519 73.7691 20.4862C73.7691 19.6595 73.4915 19.0948 72.9362 18.7921C72.3931 18.4778 71.5421 18.175 70.3834 17.884C68.947 17.5347 67.7158 17.1563 66.6898 16.7487C65.6759 16.3296 64.831 15.7241 64.155 14.9324C63.4912 14.1407 63.1592 13.0986 63.1592 11.8062C63.1592 10.6302 63.467 9.61146 64.0826 8.74986C64.6982 7.87662 65.519 7.20714 66.545 6.74141C67.571 6.27568 68.6814 6.04282 69.8764 6.04282C71.9284 6.04282 73.4251 6.61334 74.3666 7.75437V6.42704H77.698V11.6141H73.3165C73.2803 10.9388 73.0207 10.3974 72.5379 9.98986C72.0672 9.57071 71.4757 9.36113 70.7636 9.36113C70.329 9.36113 69.9187 9.44263 69.5324 9.60564C69.1582 9.757 68.8504 9.98404 68.609 10.2868C68.3676 10.5895 68.2469 10.9504 68.2469 11.3696C68.2469 11.9168 68.4038 12.3593 68.7177 12.6969C69.0315 13.0229 69.4298 13.2674 69.9126 13.4304C70.3954 13.5934 70.9265 13.739 71.5059 13.867C73.0026 14.2047 74.258 14.5773 75.2719 14.9848C76.2979 15.3807 77.1548 15.9861 77.8429 16.8011C78.5309 17.6162 78.8749 18.6932 78.8749 20.0321C78.8749 21.243 78.549 22.3142 77.8972 23.2456C77.2454 24.1655 76.3763 24.864 75.29 25.3414C74.2036 25.8071 73.0389 26.04 71.7956 26.04C69.6109 26.04 67.9089 25.3472 66.6898 23.9617V25.5335H63.2317V19.9972Z" fill="#181818"/>
<path d="M87.0767 0V9.29127C87.7044 8.2201 88.5252 7.40507 89.5391 6.8462C90.565 6.28733 91.7238 6.00789 93.0153 6.00789C93.7396 6.00789 94.4517 6.1185 95.1518 6.33972C95.8639 6.56094 96.5097 6.88695 97.0891 7.31775C97.6685 7.7369 98.1754 8.23174 98.61 8.80226C99.298 9.69878 99.7385 10.6011 99.9317 11.5093C100.137 12.4058 100.239 13.5294 100.239 14.88V21.4642H102.792V25.5335H93.1602V21.4642H95.7131V16.0501C95.7131 14.8975 95.6829 14.0766 95.6225 13.5876C95.5743 13.087 95.3811 12.5747 95.0432 12.0507C94.2707 10.8864 93.0757 10.3042 91.4583 10.3042C90.7582 10.3042 90.1184 10.4323 89.5391 10.6885C88.9597 10.9446 88.4588 11.3288 88.0363 11.8411C87.7345 12.2021 87.5112 12.5805 87.3664 12.9763C87.2215 13.3722 87.1371 13.7681 87.1129 14.1639C87.0888 14.5482 87.0767 15.0488 87.0767 15.6659V21.4642H89.6296V25.5335H79.9974V21.4642H82.5503V4.0693H79.9974V0H87.0767Z" fill="#181818"/>
<path d="M113.909 26.04C112.509 26.04 111.175 25.778 109.908 25.2541C108.64 24.7302 107.53 23.9966 106.576 23.0535C105.635 22.1104 104.899 21.0218 104.368 19.7876C103.836 18.5418 103.571 17.2494 103.571 15.9104C103.571 14.0941 104.036 12.4175 104.965 10.8806C105.907 9.33202 107.18 8.10949 108.785 7.21296C110.391 6.31643 112.135 5.86817 114.018 5.86817C115.442 5.86817 116.782 6.13597 118.037 6.67155C119.305 7.1955 120.397 7.91155 121.314 8.81972C122.244 9.72789 122.974 10.7991 123.505 12.0332C124.048 13.2674 124.32 14.5482 124.32 15.8755C124.32 17.7035 123.855 19.4034 122.926 20.9752C121.996 22.5354 120.735 23.7696 119.142 24.6778C117.548 25.5859 115.804 26.04 113.909 26.04ZM113.909 21.7437C114.996 21.7437 115.991 21.4875 116.897 20.9752C117.814 20.4513 118.538 19.7527 119.069 18.8794C119.612 17.9946 119.884 17.0282 119.884 15.9803C119.884 14.9673 119.618 14.0126 119.087 13.1161C118.568 12.2079 117.862 11.486 116.969 10.9504C116.076 10.4148 115.092 10.147 114.018 10.147C112.956 10.147 111.96 10.4032 111.03 10.9155C110.101 11.4278 109.365 12.1264 108.822 13.0113C108.278 13.8845 108.007 14.8393 108.007 15.8755C108.007 16.9234 108.266 17.9014 108.785 18.8096C109.304 19.7061 110.016 20.4222 110.922 20.9578C111.827 21.4817 112.823 21.7437 113.909 21.7437Z" fill="#181818"/>
<g opacity="0.5">
<path d="M13.0081 34.8338H14.2724V33.9199H10.6762V34.8338H12.0248L9.91765 42.2692L7.57169 33.9199H6.77097L4.42501 42.283L2.27572 34.8338H3.58215V33.9199H0V34.8338H1.22215L3.86311 43.8061H4.91668L7.17835 35.8722L9.39789 43.8061H10.4796L13.0081 34.8338Z" fill="black"/>
<path d="M16.4606 36.5368H14.2972V37.3953H15.5334V42.9476H14.2972V43.8061H17.6968V42.9476H16.4606V40.0261C16.4606 38.4753 17.191 37.5338 18.8206 37.3953V36.5368C17.767 36.5784 16.7977 37.0076 16.4606 38.0184V36.5368Z" fill="black"/>
<path d="M21.5508 36.5368H19.3874V37.3953H20.6236V42.9476H19.3593V43.8061H22.787V42.9476H21.5508V36.5368ZM21.5508 33.9199H20.6236V35.3461H21.5508V33.9199Z" fill="black"/>
<path d="M25.3263 37.3953H26.9558V36.5368H25.3263V33.9199H24.3991V36.5368H22.9803V37.3953H24.3991V43.8061H27.0682V42.9476H25.3263V37.3953Z" fill="black"/>
<path d="M33.8576 41.7707C33.3238 42.6845 32.3686 43.183 31.3009 43.183C29.7838 43.183 28.4914 42.0061 28.4071 40.5107H35.15V40.2338C35.15 38.0876 33.4643 36.4122 31.2728 36.4122C29.1376 36.4122 27.48 38.1845 27.48 40.2476C27.48 42.3245 29.2078 43.9999 31.329 43.9999C32.8462 43.9999 34.2228 43.1276 34.8409 41.7707H33.8576ZM28.4071 39.763C28.5757 38.3922 29.84 37.243 31.2588 37.243C32.7619 37.243 34.0683 38.2815 34.279 39.763H28.4071Z" fill="black"/>
<path d="M42.2143 35.2215L45.951 43.8061H46.7377L50.8396 35.1938V42.8922H49.5472V43.8061H53.1434V42.8922H51.851V34.8338H53.1434V33.9199H50.362L46.3724 42.3107L42.7341 33.9199H39.9246V34.8338H41.2029V42.8922H39.9246V43.8061H43.5348V42.8922H42.2143V35.2215Z" fill="black"/>
<path d="M57.4767 43.9999C59.64 43.9999 61.3398 42.2692 61.3398 40.1507C61.3398 38.1015 59.5979 36.4122 57.5048 36.4122C55.3555 36.4122 53.6136 38.1015 53.6136 40.2199C53.6136 42.2968 55.3414 43.9999 57.4767 43.9999ZM57.4767 43.0999C55.8331 43.0999 54.5407 41.7707 54.5407 40.1922C54.5407 38.5999 55.8612 37.3122 57.4907 37.3122C59.1202 37.3122 60.4126 38.6276 60.4126 40.2061C60.4126 41.7984 59.1062 43.0999 57.4767 43.0999Z" fill="black"/>
<path d="M63.9537 36.5368H61.7904V37.3953H63.0266V42.9476H61.7904V43.8061H65.1899V42.9476H63.9537V40.0261C63.9537 38.4753 64.6842 37.5338 66.3137 37.3953V36.5368C65.2602 36.5784 64.2909 37.0076 63.9537 38.0184V36.5368Z" fill="black"/>
<path d="M73.6273 41.7707C73.0935 42.6845 72.1383 43.183 71.0706 43.183C69.5535 43.183 68.2611 42.0061 68.1768 40.5107H74.9197V40.2338C74.9197 38.0876 73.234 36.4122 71.0425 36.4122C68.9073 36.4122 67.2497 38.1845 67.2497 40.2476C67.2497 42.3245 68.9775 43.9999 71.0987 43.9999C72.6159 43.9999 73.9925 43.1276 74.6106 41.7707H73.6273ZM68.1768 39.763C68.3454 38.3922 69.6097 37.243 71.0285 37.243C72.5316 37.243 73.838 38.2815 74.0487 39.763H68.1768Z" fill="black"/>
<path d="M77.8146 42.2968H76.8453V43.8061H77.8146V42.2968Z" fill="black"/>
<path d="M83.976 33.9199V34.8338H85.2544V42.8922H83.976V43.8061H88.3589C89.2299 43.8061 89.9744 43.7368 90.6346 43.1415C91.1965 42.6292 91.5056 41.8815 91.5056 41.1338C91.5056 39.9153 90.8032 38.9322 89.6373 38.5168C90.4801 38.1153 91.028 37.2845 91.028 36.3568C91.028 35.5676 90.6908 34.8892 90.0446 34.4045C89.4687 33.9753 88.7944 33.9199 88.1061 33.9199H83.976ZM86.2658 38.1845V34.8338H87.8532C88.387 34.8338 88.9068 34.7922 89.3563 35.1107C89.8058 35.4292 90.0165 35.9276 90.0165 36.4676C90.0165 36.9938 89.8339 37.4507 89.4265 37.783C88.9208 38.1984 88.4292 38.1845 87.8111 38.1845H86.2658ZM86.2658 42.8922V39.043H87.8813C88.5275 39.043 89.1456 39.043 89.6934 39.4168C90.2132 39.7768 90.4942 40.3861 90.4942 41.0092C90.4942 41.5768 90.3115 42.2415 89.8058 42.5599C89.2861 42.8922 88.6399 42.8922 87.9937 42.8922H86.2658Z" fill="black"/>
<path d="M98.3479 41.7707C97.8141 42.6845 96.8588 43.183 95.7912 43.183C94.2741 43.183 92.9817 42.0061 92.8974 40.5107H99.6403V40.2338C99.6403 38.0876 97.9546 36.4122 95.7631 36.4122C93.6279 36.4122 91.9703 38.1845 91.9703 40.2476C91.9703 42.3245 93.6981 43.9999 95.8193 43.9999C97.3365 43.9999 98.7131 43.1276 99.3312 41.7707H98.3479ZM92.8974 39.763C93.066 38.3922 94.3303 37.243 95.7491 37.243C97.2522 37.243 98.5586 38.2815 98.7693 39.763H92.8974Z" fill="black"/>
<path d="M102.465 37.3953H104.094V36.5368H102.465V33.9199H101.538V36.5368H100.119V37.3953H101.538V43.8061H104.207V42.9476H102.465V37.3953Z" fill="black"/>
<path d="M106.965 37.3953H108.594V36.5368H106.965V33.9199H106.037V36.5368H104.619V37.3953H106.037V43.8061H108.707V42.9476H106.965V37.3953Z" fill="black"/>
<path d="M115.496 41.7707C114.962 42.6845 114.007 43.183 112.939 43.183C111.422 43.183 110.13 42.0061 110.045 40.5107H116.788V40.2338C116.788 38.0876 115.103 36.4122 112.911 36.4122C110.776 36.4122 109.118 38.1845 109.118 40.2476C109.118 42.3245 110.846 43.9999 112.967 43.9999C114.484 43.9999 115.861 43.1276 116.479 41.7707H115.496ZM110.045 39.763C110.214 38.3922 111.478 37.243 112.897 37.243C114.4 37.243 115.707 38.2815 115.917 39.763H110.045Z" fill="black"/>
<path d="M119.458 36.5368H117.295V37.3953H118.531V42.9476H117.295V43.8061H120.695V42.9476H119.458V40.0261C119.458 38.4753 120.189 37.5338 121.818 37.3953V36.5368C120.765 36.5784 119.796 37.0076 119.458 38.0184V36.5368Z" fill="black"/>
<path d="M124.32 42.2968H123.351V43.8061H124.32V42.2968Z" fill="black"/>
</g>
</svg>
