<svg width="410" height="375" viewBox="0 0 410 375" fill="none" xmlns="http://www.w3.org/2000/svg">
<path opacity="0.05" fill-rule="evenodd" clip-rule="evenodd" d="M310.281 84.364C224.081 84.8857 171.542 17.103 130.547 4.03343C68.9274 -15.5242 -12.3133 35.1624 40.0916 175.356C92.4966 315.55 119.639 351.221 214.016 363.214C289.542 372.758 356.014 317.898 382.541 274.114C423.997 205.622 396.487 83.849 310.281 84.364Z" fill="black"/>
<path fill-rule="evenodd" clip-rule="evenodd" d="M340.762 361.655H349.228L316.136 238.216H307.664L340.762 361.655Z" fill="#181818"/>
<path fill-rule="evenodd" clip-rule="evenodd" d="M328.53 265.226C325.853 284.489 329.306 302.448 336.902 314.762C347.609 305.016 355.88 288.676 358.584 269.439C361.287 250.203 357.807 232.217 350.212 219.903C339.525 229.649 331.254 245.962 328.53 265.226Z" fill="#BCBCBC"/>
<path fill-rule="evenodd" clip-rule="evenodd" d="M353.08 261.589C353.389 261.699 353.55 262.038 353.44 262.347C350.338 271.064 347.773 279.962 345.758 288.992L345.757 288.994C343.976 296.824 343.309 305.41 343.088 312.051C342.978 315.369 342.98 318.195 343.009 320.191C343.024 321.19 343.045 321.98 343.063 322.52C343.072 322.79 343.08 322.998 343.085 323.137C343.088 323.207 343.091 323.26 343.092 323.295L343.094 323.335L343.095 323.347L342.502 323.376C341.91 323.405 341.91 323.405 341.91 323.404L341.909 323.39L341.907 323.348C341.905 323.312 341.903 323.257 341.9 323.186C341.894 323.043 341.886 322.832 341.877 322.559C341.859 322.012 341.838 321.215 341.823 320.209C341.793 318.197 341.792 315.351 341.903 312.011C342.124 305.337 342.795 296.667 344.6 288.732C346.625 279.655 349.204 270.711 352.323 261.949C352.432 261.64 352.772 261.479 353.08 261.589ZM342.531 323.968C342.204 323.984 341.925 323.732 341.91 323.404L342.502 323.376L343.095 323.347C343.11 323.674 342.858 323.953 342.531 323.968Z" fill="#181818"/>
<path fill-rule="evenodd" clip-rule="evenodd" d="M333.057 256.422C333.382 256.383 333.677 256.616 333.716 256.941L333.127 257.011L332.538 257.081C332.499 256.756 332.731 256.461 333.057 256.422ZM342.395 321.389C341.805 321.447 341.805 321.447 341.805 321.447L341.784 321.239C341.77 321.101 341.75 320.897 341.723 320.633C341.668 320.104 341.588 319.332 341.483 318.362C341.273 316.422 340.965 313.69 340.574 310.523C339.793 304.185 338.681 296.111 337.356 289.147C336.025 282.15 334.82 274.132 333.949 267.868C333.513 264.735 333.16 262.039 332.917 260.126C332.795 259.17 332.7 258.409 332.636 257.887C332.604 257.626 332.579 257.425 332.563 257.289L332.538 257.081C332.538 257.081 332.538 257.081 333.127 257.011C333.716 256.941 333.716 256.941 333.716 256.941L333.741 257.146C333.757 257.281 333.781 257.482 333.813 257.742C333.878 258.262 333.972 259.021 334.094 259.976C334.337 261.886 334.689 264.577 335.124 267.705C335.994 273.962 337.196 281.957 338.521 288.926C339.853 295.927 340.969 304.031 341.752 310.377C342.143 313.552 342.452 316.29 342.662 318.234C342.768 319.206 342.848 319.98 342.903 320.511C342.93 320.777 342.951 320.982 342.965 321.12L342.986 321.331C342.986 321.331 342.986 321.332 342.395 321.389ZM342.395 321.389L341.805 321.447C341.837 321.773 342.127 322.012 342.453 321.98C342.779 321.948 343.018 321.657 342.986 321.331L342.395 321.389Z" fill="#181818"/>
<path fill-rule="evenodd" clip-rule="evenodd" d="M328.606 286.814C328.914 286.701 329.255 286.859 329.368 287.167L328.811 287.371L328.254 287.575C328.141 287.267 328.299 286.927 328.606 286.814ZM342.395 322.252L341.84 322.461L341.707 322.11C341.62 321.88 341.492 321.544 341.329 321.116C341.002 320.26 340.533 319.04 339.966 317.582C338.832 314.665 337.304 310.799 335.731 306.995C334.151 303.177 332.281 298.32 330.808 294.422C330.071 292.472 329.432 290.761 328.978 289.537C328.751 288.925 328.57 288.434 328.446 288.097L328.254 287.575C328.254 287.575 328.254 287.575 328.811 287.371C329.368 287.167 329.367 287.167 329.368 287.167L329.559 287.687C329.683 288.023 329.864 288.513 330.09 289.124C330.544 290.346 331.182 292.056 331.918 294.003C333.39 297.899 335.255 302.741 336.827 306.541C338.405 310.356 339.936 314.231 341.072 317.152C341.64 318.613 342.109 319.835 342.437 320.692C342.601 321.121 342.729 321.459 342.816 321.689L342.95 322.043L342.395 322.252ZM342.395 322.252L341.84 322.461C341.956 322.768 342.298 322.923 342.604 322.807C342.911 322.692 343.066 322.349 342.95 322.043L342.395 322.252Z" fill="#181818"/>
<path fill-rule="evenodd" clip-rule="evenodd" d="M345.762 187.389C343.988 200.359 346.371 212.438 351.51 220.699C358.684 214.117 364.225 203.121 365.992 190.152C367.758 177.182 365.383 165.103 360.243 156.842C353.069 163.424 347.535 174.42 345.762 187.389Z" fill="#BCBCBC"/>
<path fill-rule="evenodd" clip-rule="evenodd" d="M331.648 217.281C332.317 202.191 333.335 174.962 333.91 159.09C323.437 172.052 316.718 191.904 316.718 214.198C316.718 236.23 323.283 255.881 333.555 268.85C332.404 253.62 331.033 231.013 331.648 217.281Z" fill="#484848"/>
<path fill-rule="evenodd" clip-rule="evenodd" d="M351.998 214.19C351.998 191.576 345.092 171.457 334.358 158.514C334.204 158.695 334.064 158.895 333.91 159.083C333.334 174.955 332.324 202.191 331.648 217.274C331.032 231.012 332.411 253.613 333.548 268.836C333.816 269.178 334.077 269.505 334.351 269.867C345.085 256.924 351.998 236.798 351.998 214.19Z" fill="#828282"/>
<path fill-rule="evenodd" clip-rule="evenodd" d="M274.318 361.655H265.853L298.951 238.216H307.416L274.318 361.655Z" fill="#181818"/>
<path fill-rule="evenodd" clip-rule="evenodd" d="M353.578 238.484C347.729 251.373 346.471 264.63 349.241 274.783C358.704 270.175 367.845 260.49 373.687 247.594C379.529 234.698 380.774 221.414 378.03 211.295C368.561 215.903 359.426 225.588 353.578 238.484Z" fill="#484848"/>
<path fill-rule="evenodd" clip-rule="evenodd" d="M361.909 361.615H323.076L317.314 311.31H367.678L361.909 361.615Z" fill="#9E9E9E"/>
<path fill-rule="evenodd" clip-rule="evenodd" d="M317.314 311.31L323.076 361.615H337.938L333.635 311.31H317.314Z" fill="#313131"/>
<path d="M369.645 309.872H315.346V322.266H369.645V309.872Z" fill="#DBDBDB"/>
<path d="M100.683 79.2769L100.045 78.6384C99.6865 78.2806 99.106 78.2806 98.748 78.6384L47.6808 129.68C47.3227 130.038 47.3227 130.618 47.6808 130.976L48.3196 131.614C48.6776 131.972 49.2581 131.972 49.6161 131.614L100.683 80.5728C101.041 80.215 101.041 79.6348 100.683 79.2769Z" fill="#181818"/>
<path d="M335.122 224.411C336.227 224.411 337.122 222.815 337.122 220.846C337.122 218.877 336.227 217.281 335.122 217.281C334.016 217.281 333.121 218.877 333.121 220.846C333.121 222.815 334.016 224.411 335.122 224.411Z" fill="#BCBCBC"/>
<path d="M341.159 226.196C342.552 224.804 343.047 223.042 342.266 222.261C341.485 221.48 339.722 221.976 338.329 223.368C336.936 224.76 336.44 226.522 337.222 227.303C338.003 228.084 339.766 227.588 341.159 226.196Z" fill="#BCBCBC"/>
<path d="M341.033 245.653C342.943 243.744 343.623 241.328 342.552 240.257C341.48 239.186 339.063 239.865 337.153 241.775C335.242 243.684 334.562 246.1 335.634 247.171C336.705 248.242 339.123 247.563 341.033 245.653Z" fill="#BCBCBC"/>
<path d="M340.45 254.626C341.59 252.178 341.401 249.675 340.028 249.036C338.654 248.397 336.616 249.863 335.475 252.311C334.335 254.759 334.524 257.261 335.898 257.901C337.271 258.54 339.309 257.074 340.45 254.626Z" fill="#BCBCBC"/>
<path fill-rule="evenodd" clip-rule="evenodd" d="M96.1332 74.7444L96.7673 75.3781C97.1253 75.736 97.1253 76.3162 96.7673 76.674L45.7096 127.706C45.3489 128.067 44.7642 128.067 44.4035 127.706L43.7695 127.072C43.4114 126.715 43.4114 126.134 43.7695 125.777L94.8414 74.7302C95.2028 74.3794 95.7796 74.3857 96.1332 74.7444Z" fill="#181818"/>
<path d="M49.563 126.038L48.6752 126.205C48.1776 126.298 47.8501 126.778 47.9438 127.275L67.443 230.816C67.5366 231.313 68.0159 231.641 68.5135 231.547L69.4014 231.38C69.899 231.287 70.2264 230.807 70.1328 230.31L50.6336 126.769C50.5399 126.272 50.0606 125.944 49.563 126.038Z" fill="#181818"/>
<path d="M112.63 105.467L117.083 102.631C118.008 102.041 118.28 100.813 117.69 99.888L99.7399 71.7362C99.15 70.811 97.9213 70.5389 96.9957 71.1286L92.5431 73.9649C91.6174 74.5545 91.3452 75.7826 91.9352 76.7078L109.886 104.86C110.476 105.785 111.704 106.057 112.63 105.467Z" fill="#313131"/>
<path opacity="0.2" d="M120.373 113.193C124.658 110.463 125.918 104.778 123.187 100.495C120.456 96.2119 114.768 94.9526 110.483 97.6823C106.198 100.412 104.938 106.097 107.669 110.38C110.4 114.663 116.088 115.923 120.373 113.193Z" fill="#35B986"/>
<path d="M118.948 110.959C121.999 109.015 122.896 104.968 120.952 101.918C119.008 98.8688 114.958 97.9722 111.907 99.9157C108.856 101.859 107.959 105.907 109.903 108.956C111.848 112.006 115.897 112.902 118.948 110.959Z" fill="#35B986"/>
<path fill-rule="evenodd" clip-rule="evenodd" d="M103.191 85.7422C110.9 80.8327 122.711 85.575 129.577 96.337L101.651 114.122C94.7921 103.36 95.4814 90.6517 103.191 85.7422Z" fill="#BCBCBC"/>
<path fill-rule="evenodd" clip-rule="evenodd" d="M129.577 96.3366L122.075 101.112C117.056 93.2464 110.525 87.5544 104.408 85.0595C112.098 81.334 123.066 86.123 129.577 96.3366Z" fill="#484848"/>
<path d="M44.1362 127.049L43.2484 127.216C42.7508 127.31 42.4233 127.789 42.517 128.286L62.0162 231.828C62.1099 232.325 62.5892 232.652 63.0868 232.559L63.9746 232.392C64.4722 232.298 64.7997 231.819 64.706 231.322L45.2068 127.78C45.1131 127.283 44.6338 126.956 44.1362 127.049Z" fill="#181818"/>
<path d="M48.6173 134.883C52.3058 134.883 55.2959 131.894 55.2959 128.208C55.2959 124.521 52.3058 121.532 48.6173 121.532C44.9288 121.532 41.9387 124.521 41.9387 128.208C41.9387 131.894 44.9288 134.883 48.6173 134.883Z" fill="#828282"/>
<path d="M47.3723 134.883C51.0608 134.883 54.0509 131.894 54.0509 128.208C54.0509 124.521 51.0608 121.532 47.3723 121.532C43.6838 121.532 40.6937 124.521 40.6937 128.208C40.6937 131.894 43.6838 134.883 47.3723 134.883Z" fill="#BCBCBC"/>
<path d="M47.3725 131.552C49.2204 131.552 50.7185 130.055 50.7185 128.208C50.7185 126.361 49.2204 124.864 47.3725 124.864C45.5245 124.864 44.0265 126.361 44.0265 128.208C44.0265 130.055 45.5245 131.552 47.3725 131.552Z" fill="#181818"/>
<path d="M349.228 228.257H26.5203V238.209H349.228V228.257Z" fill="#484848"/>
<path d="M349.509 228.257H290.131V238.209H349.509V228.257Z" fill="#181818"/>
<path d="M349.228 234.979H26.5203V238.216H349.228V234.979Z" fill="#484848"/>
<path d="M349.228 234.979H290.131V238.216H349.228V234.979Z" fill="#181818"/>
<path fill-rule="evenodd" clip-rule="evenodd" d="M34.9856 361.655H26.5203L59.6121 238.216H68.0775L34.9856 361.655Z" fill="#828282"/>
<path fill-rule="evenodd" clip-rule="evenodd" d="M67.4953 361.655H59.0299L92.1218 238.216H100.587L67.4953 361.655Z" fill="#181818"/>
<path fill-rule="evenodd" clip-rule="evenodd" d="M133.934 361.655H142.399L109.307 238.216H100.842L133.934 361.655Z" fill="#181818"/>
<path fill-rule="evenodd" clip-rule="evenodd" d="M101.424 361.655H109.889L76.797 238.216H68.3317L101.424 361.655Z" fill="#828282"/>
<path fill-rule="evenodd" clip-rule="evenodd" d="M241.808 361.655H233.343L266.435 238.216H274.9L241.808 361.655Z" fill="#828282"/>
<path fill-rule="evenodd" clip-rule="evenodd" d="M308.246 361.655H316.711L283.62 238.216H275.154L308.246 361.655Z" fill="#828282"/>
<path fill-rule="evenodd" clip-rule="evenodd" d="M235.812 228.257H263.122L242.45 166.421H223.325L235.812 228.257Z" fill="#181818"/>
<path fill-rule="evenodd" clip-rule="evenodd" d="M233.972 228.257H261.288L240.617 166.421H221.491L233.972 228.257Z" fill="#181818"/>
<path d="M261.991 225.808H214.819V228.256H261.991V225.808Z" fill="#181818"/>
<path d="M242.658 225.808H214.819V228.256H242.658V225.808Z" fill="#4C93F4"/>
<path fill-rule="evenodd" clip-rule="evenodd" d="M295.116 210.044H185.067C184.063 210.061 183.101 209.646 182.424 208.905C181.748 208.164 181.424 207.168 181.533 206.171L187.717 135.552C187.94 133.381 189.75 131.719 191.933 131.679H301.969C302.972 131.662 303.935 132.077 304.611 132.818C305.287 133.559 305.612 134.555 305.502 135.552L299.319 206.171C299.097 208.337 297.294 209.998 295.116 210.044Z" fill="#484848"/>
<path fill-rule="evenodd" clip-rule="evenodd" d="M292.881 210.044H182.838C181.835 210.061 180.872 209.646 180.196 208.905C179.52 208.164 179.195 207.168 179.305 206.171L185.488 135.552C185.711 133.381 187.521 131.719 189.704 131.679H299.741C300.744 131.662 301.707 132.077 302.383 132.818C303.059 133.559 303.384 134.555 303.274 135.552L297.124 206.184C296.893 208.36 295.07 210.018 292.881 210.044Z" fill="#484848"/>
<path fill-rule="evenodd" clip-rule="evenodd" d="M293.047 208.834H185.512C184.72 208.848 183.96 208.528 183.427 207.955C182.893 207.383 182.637 206.613 182.724 205.843L188.869 137.081C189.047 135.396 190.489 134.108 192.22 134.091H299.729C300.521 134.077 301.281 134.397 301.815 134.969C302.348 135.542 302.604 136.311 302.518 137.081L296.372 205.81C296.212 207.499 294.78 208.801 293.047 208.834Z" fill="#BCBCBC"/>
<path fill-rule="evenodd" clip-rule="evenodd" d="M182.451 205.101L188.473 136.656C188.696 134.486 190.506 132.823 192.689 132.784H190.929C188.746 132.823 186.936 134.486 186.713 136.656L180.691 205.101C180.581 206.098 180.905 207.094 181.582 207.836C182.258 208.577 183.22 208.992 184.224 208.974H185.984C184.98 208.992 184.018 208.577 183.342 207.836C182.665 207.094 182.341 206.098 182.451 205.101Z" fill="#484848"/>
<path fill-rule="evenodd" clip-rule="evenodd" d="M180.229 195.577L179.278 206.419C179.181 207.36 179.491 208.297 180.13 208.994C180.77 209.691 181.678 210.081 182.624 210.064H292.989C295.104 210.022 296.859 208.415 297.084 206.312L298.021 195.61L180.229 195.577Z" fill="#484848"/>
<path fill-rule="evenodd" clip-rule="evenodd" d="M239.734 200.82C239.772 200.42 239.869 200.028 240.021 199.656C239.648 199.444 239.226 199.331 238.797 199.329C237.13 199.329 235.645 200.887 235.451 202.813C235.257 204.74 236.495 206.298 238.128 206.298C239.515 206.209 240.712 205.293 241.159 203.977C240.108 203.293 239.551 202.06 239.734 200.82Z" fill="#BCBCBC"/>
<path fill-rule="evenodd" clip-rule="evenodd" d="M86.7819 126.71C89.6704 127.453 92.3596 128.823 94.6583 130.723L90.8037 132.77L96.0971 132.027C97.2206 133.143 98.2089 134.386 99.0416 135.733L91.9882 137.739L99.7576 137.004C99.8982 137.278 100.032 137.565 100.166 137.853L92.2693 141.659L100.755 139.258C100.949 139.779 101.129 140.308 101.283 140.85C101.887 142.973 102.14 145.18 102.033 147.384L94.5379 148.274L101.939 148.535C101.939 148.715 101.899 148.903 101.879 149.083L95.4413 150.087L101.738 149.973C101.48 151.418 101.065 152.831 100.5 154.187L95.6086 154.287L99.6974 155.886C98.8135 157.563 97.6985 159.107 96.3849 160.474C92.5437 143.712 86.7819 126.71 86.7819 126.71Z" fill="#BCBCBC"/>
<path fill-rule="evenodd" clip-rule="evenodd" d="M93.0853 154.301L89.0031 156.876C88.0519 156.146 87.1673 155.334 86.3598 154.448L91.3386 149.973L84.6868 152.334C83.4212 150.496 82.4671 148.462 81.8628 146.314C81.8159 146.14 81.7758 145.967 81.7356 145.793L88.5949 143.01L81.2739 143.418C81.2003 142.876 81.1534 142.328 81.1267 141.786L88.1131 138.556L81.0932 140.897C81.0849 139.406 81.242 137.918 81.5616 136.462L88.0997 133.787L81.923 135.131C82.1855 134.233 82.5097 133.355 82.8934 132.502L87.2967 130.984L83.1878 131.874C84.1118 129.985 85.3242 128.252 86.7814 126.737C86.7814 126.737 92.5432 143.739 96.3576 160.488C95.1407 160.175 93.9555 159.749 92.8176 159.217L93.0853 154.301Z" fill="#BCBCBC"/>
<path fill-rule="evenodd" clip-rule="evenodd" d="M105.774 136.702C101.302 139.113 97.418 142.479 94.3972 146.561L101.631 148.334L92.577 149.304C91.1978 151.592 90.0928 154.035 89.2845 156.581L101.778 156.949L88.622 158.955C88.5015 159.47 88.4012 159.992 88.3075 160.521L102.956 163.51L87.9193 163.069C87.8123 164.005 87.732 164.948 87.7052 165.912C87.5931 169.651 88.0949 173.384 89.1908 176.961L101.959 175.316L89.8265 178.807C89.9336 179.102 90.0407 179.396 90.1611 179.683L101.223 178.673L90.7701 181.088C91.8029 183.356 93.0797 185.504 94.5779 187.496L102.715 185.643L96.6323 189.977C98.7865 192.366 101.264 194.442 103.993 196.144C103.338 167.022 105.774 136.702 105.774 136.702Z" fill="#484848"/>
<path fill-rule="evenodd" clip-rule="evenodd" d="M106.864 184.627L114.654 187.182C115.918 185.59 117.037 183.889 118 182.099L107.895 176.808L119.9 177.938C121.226 174.406 121.959 170.679 122.069 166.909C122.069 166.601 122.069 166.3 122.069 165.999L109.568 164.26L121.841 161.885C121.734 160.962 121.58 160.053 121.399 159.15L108.504 156.722L121.092 157.665C120.481 155.211 119.599 152.833 118.462 150.575L106.55 148.936L117.311 148.508C116.51 147.139 115.615 145.828 114.634 144.582L106.717 143.913L113.884 143.672C111.564 140.949 108.835 138.602 105.794 136.716C105.794 136.716 103.358 167.036 104.04 196.151C105.932 195.134 107.724 193.943 109.394 192.593L106.864 184.627Z" fill="#BCBCBC"/>
<path fill-rule="evenodd" clip-rule="evenodd" d="M114.935 138.676C111.72 139.714 108.772 141.442 106.296 143.739L109.983 146.234L104.629 145.378C103.314 146.795 102.142 148.339 101.129 149.986L108.102 152.381L100.219 151.558C100.032 151.899 99.8646 152.227 99.6906 152.615L107.293 157.243L98.901 154.36C98.6333 155.029 98.3723 155.698 98.1381 156.367C97.2353 158.983 96.6796 161.706 96.4852 164.467L104.067 165.484L96.4249 165.892C96.4249 166.119 96.4249 166.346 96.4249 166.56L102.903 167.731L96.4517 167.664C96.5177 169.417 96.753 171.16 97.1544 172.868L102.167 172.941L97.7499 174.948C98.4014 176.954 99.339 178.855 100.534 180.593C106.717 159.792 114.935 138.676 114.935 138.676Z" fill="#BCBCBC"/>
<path fill-rule="evenodd" clip-rule="evenodd" d="M104.729 172.909L108.55 176.052C109.643 175.121 110.661 174.106 111.595 173.016L107.072 167.531L113.59 170.38C115.151 168.067 116.4 165.557 117.304 162.916C117.377 162.702 117.437 162.481 117.504 162.247L110.812 158.903L118.281 159.324C118.428 158.655 118.548 157.986 118.649 157.317L111.91 153.391L118.809 156.207C119.017 154.386 119.056 152.55 118.923 150.722L112.566 147.525L118.749 149.037C118.595 147.94 118.371 146.854 118.08 145.786L113.764 143.953L117.866 145.004C117.208 142.751 116.196 140.618 114.868 138.683C114.868 138.683 106.65 159.799 100.467 180.58C101.786 180.166 103.061 179.624 104.274 178.962L104.729 172.909Z" fill="#484848"/>
<path fill-rule="evenodd" clip-rule="evenodd" d="M88.1 153.251C85.1346 155.807 82.7677 158.983 81.1671 162.555L86.9222 162.695L80.2302 164.929C79.5702 166.879 79.1413 168.9 78.952 170.949L88.448 169.157L78.845 172.849C78.845 173.257 78.845 173.672 78.845 174.08L90.402 173.906L78.9788 176.066C79.0524 176.788 79.1528 177.517 79.2866 178.247C79.839 181.11 80.861 183.863 82.3114 186.393L91.6802 183.049L83.1011 187.731C83.2349 187.932 83.3621 188.139 83.4959 188.34L91.6802 185.698L84.1852 189.256C85.3402 190.797 86.6596 192.208 88.1201 193.463L93.9555 190.714L90.0674 194.982C92.0979 196.428 94.3212 197.583 96.6724 198.413C91.2988 176.548 88.1 153.251 88.1 153.251Z" fill="#BCBCBC"/>
<path fill-rule="evenodd" clip-rule="evenodd" d="M96.8865 189.262L103.19 189.931C103.884 188.519 104.451 187.049 104.883 185.537L96.3645 183.189L105.599 182.052C106.015 179.163 105.949 176.224 105.405 173.357C105.359 173.122 105.298 172.902 105.251 172.688L95.528 173.45L104.395 169.618C104.161 168.949 103.893 168.28 103.612 167.611L93.487 167.905L103.15 166.568C102.283 164.817 101.224 163.168 99.9916 161.651L90.7232 162.387L98.7536 160.254C97.9203 159.355 97.0259 158.514 96.0768 157.739L89.9871 158.541L95.3406 157.203C93.1374 155.533 90.6879 154.216 88.0798 153.297C88.0798 153.297 91.2786 176.594 96.6255 198.459C97.876 197.377 99.023 196.182 100.052 194.887L96.8865 189.262Z" fill="#484848"/>
<path fill-rule="evenodd" clip-rule="evenodd" d="M111.997 228.256H85.1019L81.1068 193.415H115.992L111.997 228.256Z" fill="#9E9E9E"/>
<path fill-rule="evenodd" clip-rule="evenodd" d="M81.1068 193.415L85.1019 228.256H95.3942L92.4096 193.415H81.1068Z" fill="#313131"/>
<path d="M117.351 192.419H79.7418V201.007H117.351V192.419Z" fill="#DBDBDB"/>
<path fill-rule="evenodd" clip-rule="evenodd" d="M165.192 228.256H129.196L139.26 180.071H175.257L165.192 228.256Z" fill="#313131"/>
<path fill-rule="evenodd" clip-rule="evenodd" d="M162.87 228.256H126.224L136.47 180.071H173.115L162.87 228.256Z" fill="#9E9E9E"/>
<path fill-rule="evenodd" clip-rule="evenodd" d="M160.521 223.963H130.4L138.825 184.366H168.939L160.521 223.963Z" fill="#484848"/>
<path fill-rule="evenodd" clip-rule="evenodd" d="M138.825 184.366L130.4 223.963H132.542L140.96 184.366H138.825Z" fill="#313131"/>
<path fill-rule="evenodd" clip-rule="evenodd" d="M169.515 206.299L173.617 228.258H164.851L169.515 206.299Z" fill="#313131"/>
<path fill-rule="evenodd" clip-rule="evenodd" d="M135.332 210.84L150.356 198.412L155.997 202.378L167.547 190.914L160.521 223.963H132.542L135.332 210.84Z" fill="#BCBCBC"/>
<path fill-rule="evenodd" clip-rule="evenodd" d="M149.693 192.874C149.251 195.141 147.164 196.981 145.009 196.981C142.854 196.981 141.509 195.141 141.951 192.874C142.392 190.606 144.48 188.767 146.635 188.767C148.79 188.767 150.135 190.606 149.693 192.874Z" fill="#BCBCBC"/>
<path fill-rule="evenodd" clip-rule="evenodd" d="M290.471 193.41H186.266L192.398 136.463H296.602L290.471 193.41Z" fill="white"/>
<path fill-rule="evenodd" clip-rule="evenodd" d="M292.342 144.768H195.757L196.467 138.836H293.043L292.342 144.768Z" fill="#BCBCBC"/>
<path d="M254.342 224.838H236.763V228.256H254.342V224.838Z" fill="#181818"/>
<path d="M237.318 225.808H181.165V228.256H237.318V225.808Z" fill="#828282"/>
<path fill-rule="evenodd" clip-rule="evenodd" d="M254.256 225.234L237.318 228.21V225.802L254.256 222.826V225.234Z" fill="#828282"/>
<path fill-rule="evenodd" clip-rule="evenodd" d="M198.103 222.826H254.255L237.318 225.802H181.165L198.103 222.826Z" fill="#BCBCBC"/>
<path d="M254.342 228.257C255.436 228.257 256.323 227.041 256.323 225.542C256.323 224.042 255.436 222.826 254.342 222.826C253.248 222.826 252.362 224.042 252.362 225.542C252.362 227.041 253.248 228.257 254.342 228.257Z" fill="#828282"/>
<path fill-rule="evenodd" clip-rule="evenodd" d="M283.218 228.257C283.557 228.259 283.869 228.073 284.028 227.774C284.187 227.474 284.166 227.112 283.974 226.832C281.375 223.199 277.181 221.043 272.712 221.043C268.243 221.043 264.049 223.199 261.449 226.832C261.257 227.112 261.236 227.474 261.395 227.774C261.554 228.073 261.866 228.259 262.205 228.257H283.218Z" fill="#828282"/>
<path fill-rule="evenodd" clip-rule="evenodd" d="M271.072 226.097C271.918 224.274 273.047 222.597 274.418 221.127C273.848 221.056 273.273 221.02 272.698 221.02C268.229 221.016 264.034 223.171 261.436 226.806C261.244 227.085 261.223 227.448 261.382 227.747C261.541 228.046 261.853 228.233 262.192 228.23H271.828C271.092 228.257 270.644 227.013 271.072 226.097Z" fill="#828282"/>
<path fill-rule="evenodd" clip-rule="evenodd" d="M142.399 204.987L147.465 207.435L152.223 203.703L154.94 205.194L162.16 198.412L164.73 204.164L167.547 190.914L155.997 202.378L150.356 198.412L142.399 204.987Z" fill="white"/>
<path fill-rule="evenodd" clip-rule="evenodd" d="M134.081 216.706H138.919V212.519H140.599V216.706H146.949L149.365 219.121H154.418L157.723 215.816V211.77H160.086L162.046 209.81H163.525L160.521 223.963H132.542L134.081 216.706Z" fill="#484848"/>
<path fill-rule="evenodd" clip-rule="evenodd" d="M305.154 264.001C311.318 279.606 321.603 291.645 332.592 297.665C317.407 280.522 302.083 220.746 302.083 220.746C298.188 232.584 298.924 248.376 305.154 264.001Z" fill="#484848"/>
<path fill-rule="evenodd" clip-rule="evenodd" d="M329.5 254.342C323.303 238.717 313.018 226.705 302.063 220.698C302.063 220.698 317.394 280.501 332.572 297.617C336.433 285.758 335.697 269.967 329.5 254.342Z" fill="url(#paint0_linear)"/>
<path fill-rule="evenodd" clip-rule="evenodd" d="M329.5 254.342C323.303 238.717 313.018 226.705 302.063 220.698C302.063 220.698 317.394 280.501 332.572 297.617C336.433 285.758 335.697 269.967 329.5 254.342Z" fill="#828282"/>
<path d="M319.938 268.271C320.726 267.941 320.888 266.539 320.302 265.138C319.715 263.738 318.6 262.87 317.813 263.2C317.026 263.53 316.863 264.932 317.45 266.332C318.037 267.733 319.151 268.601 319.938 268.271Z" fill="#BCBCBC"/>
<path d="M329.874 269.867C330.661 269.537 330.824 268.135 330.237 266.734C329.65 265.334 328.536 264.466 327.748 264.796C326.961 265.126 326.798 266.528 327.385 267.928C327.972 269.329 329.086 270.197 329.874 269.867Z" fill="#BCBCBC"/>
<path d="M324.755 267.751C325.33 266.346 325.157 264.945 324.367 264.622C323.576 264.298 322.469 265.175 321.894 266.58C321.318 267.985 321.492 269.386 322.282 269.71C323.072 270.033 324.179 269.156 324.755 267.751Z" fill="#BCBCBC"/>
<path d="M327.161 271.858C327.738 270.446 327.562 269.039 326.768 268.714C325.974 268.39 324.863 269.272 324.286 270.684C323.708 272.096 323.884 273.503 324.678 273.828C325.472 274.152 326.584 273.27 327.161 271.858Z" fill="#BCBCBC"/>
<path d="M330.461 281.629C331.251 279.701 331.015 277.779 329.935 277.337C328.854 276.895 327.337 278.099 326.547 280.027C325.757 281.955 325.993 283.877 327.074 284.319C328.155 284.761 329.671 283.557 330.461 281.629Z" fill="#BCBCBC"/>
<path d="M332.724 288.177C332.806 286.095 331.926 284.37 330.759 284.325C329.592 284.279 328.58 285.93 328.498 288.012C328.417 290.093 329.297 291.818 330.464 291.864C331.631 291.909 332.643 290.259 332.724 288.177Z" fill="#BCBCBC"/>
<path fill-rule="evenodd" clip-rule="evenodd" d="M194.784 148.615L192.198 187.643H236.182L238.773 148.615H194.784Z" fill="#BCBCBC"/>
<path fill-rule="evenodd" clip-rule="evenodd" d="M235.822 155.446H196.19L196.48 151.886H236.111L235.822 155.446Z" fill="white"/>
<path fill-rule="evenodd" clip-rule="evenodd" d="M235.822 162.564H196.19L196.485 159.005H236.111L235.822 162.564Z" fill="white"/>
<path fill-rule="evenodd" clip-rule="evenodd" d="M234.496 169.682H196.19L196.471 166.123H234.781L234.496 169.682Z" fill="white"/>
<path fill-rule="evenodd" clip-rule="evenodd" d="M246.681 148.615L244.096 187.643H288.08L290.67 148.615H246.681Z" fill="#BCBCBC"/>
<path fill-rule="evenodd" clip-rule="evenodd" d="M287.719 155.446H248.088L248.378 151.886H288.009L287.719 155.446Z" fill="white"/>
<path fill-rule="evenodd" clip-rule="evenodd" d="M287.719 162.564H248.088L248.383 159.005H288.009L287.719 162.564Z" fill="white"/>
<path fill-rule="evenodd" clip-rule="evenodd" d="M286.393 169.682H248.088L248.368 166.123H286.678L286.393 169.682Z" fill="white"/>
<path fill-rule="evenodd" clip-rule="evenodd" d="M386.368 369H0L26.5203 361.656H361.909L386.368 369Z" fill="#BCBCBC"/>
<defs>
<linearGradient id="paint0_linear" x1="316.966" y1="214.565" x2="334.53" y2="281.787" gradientUnits="userSpaceOnUse">
<stop stop-color="#4C93F4"/>
<stop offset="1" stop-color="#0849A1"/>
</linearGradient>
</defs>
</svg>
