<svg width="1440" height="350" viewBox="0 0 1440 350" fill="none" xmlns="http://www.w3.org/2000/svg">
<rect width="1440" height="350" fill="#FAFAFA"/>
<path d="M625.088 58.209H629.288L622.496 49.713L628.856 42.201H624.656L618.992 49.353V42.201H615.584V58.209H618.992V53.289L620.24 51.801L625.088 58.209ZM629.37 52.401C629.37 56.121 632.034 58.497 635.562 58.497C637.362 58.497 639.162 57.969 640.338 56.889L638.994 54.921C638.25 55.641 636.978 56.073 635.898 56.073C633.93 56.073 632.754 54.849 632.562 53.385H641.178V52.713C641.178 48.921 638.826 46.329 635.37 46.329C631.842 46.329 629.37 49.041 629.37 52.401ZM635.37 48.753C637.386 48.753 638.154 50.217 638.226 51.321H632.514C632.658 50.169 633.474 48.753 635.37 48.753ZM643.427 60.009L642.971 62.745C643.355 62.841 644.123 62.913 644.483 62.913C646.475 62.865 648.011 62.289 648.875 60.105L654.323 46.617H651.035L648.011 54.681L644.987 46.617H641.723L646.427 58.377L645.995 59.361C645.707 59.985 645.179 60.201 644.387 60.201C644.099 60.201 643.691 60.129 643.427 60.009ZM655.684 58.209H658.732V56.745C659.644 57.873 660.916 58.497 662.308 58.497C665.236 58.497 667.444 56.289 667.444 52.425C667.444 48.633 665.26 46.329 662.308 46.329C660.94 46.329 659.644 46.929 658.732 48.105V42.201H655.684V58.209ZM658.732 54.489V50.385C659.236 49.617 660.364 49.041 661.348 49.041C663.124 49.041 664.3 50.409 664.3 52.425C664.3 54.441 663.124 55.785 661.348 55.785C660.364 55.785 659.236 55.233 658.732 54.489ZM675.122 58.497C678.962 58.497 681.266 55.713 681.266 52.401C681.266 49.113 678.962 46.329 675.122 46.329C671.306 46.329 669.002 49.113 669.002 52.401C669.002 55.713 671.306 58.497 675.122 58.497ZM675.122 55.785C673.226 55.785 672.17 54.225 672.17 52.401C672.17 50.601 673.226 49.041 675.122 49.041C677.018 49.041 678.098 50.601 678.098 52.401C678.098 54.225 677.018 55.785 675.122 55.785ZM690.488 58.209H693.536V50.721C693.536 47.385 691.112 46.329 688.472 46.329C686.648 46.329 684.824 46.905 683.408 48.153L684.56 50.193C685.544 49.281 686.696 48.825 687.944 48.825C689.48 48.825 690.488 49.593 690.488 50.769V52.377C689.72 51.441 688.352 50.961 686.816 50.961C684.968 50.961 682.784 51.945 682.784 54.657C682.784 57.249 684.968 58.497 686.816 58.497C688.328 58.497 689.696 57.945 690.488 57.009V58.209ZM690.488 55.425C689.984 56.097 689.024 56.433 688.04 56.433C686.84 56.433 685.856 55.809 685.856 54.729C685.856 53.625 686.84 52.977 688.04 52.977C689.024 52.977 689.984 53.313 690.488 53.985V55.425ZM696.559 58.209H699.607V50.553C700.111 49.809 701.455 49.257 702.463 49.257C702.799 49.257 703.087 49.281 703.303 49.329V46.353C701.863 46.353 700.423 47.169 699.607 48.201V46.617H696.559V58.209ZM713.175 58.209H716.247V42.201H713.175V48.105C712.263 46.929 710.967 46.329 709.599 46.329C706.647 46.329 704.463 48.633 704.463 52.425C704.463 56.289 706.671 58.497 709.599 58.497C710.991 58.497 712.263 57.873 713.175 56.745V58.209ZM713.175 54.465C712.647 55.233 711.567 55.785 710.535 55.785C708.807 55.785 707.607 54.417 707.607 52.425C707.607 50.409 708.807 49.041 710.535 49.041C711.567 49.041 712.647 49.593 713.175 50.361V54.465ZM724.402 56.697C725.626 57.825 727.57 58.497 729.586 58.497C732.802 58.497 734.602 56.913 734.602 54.777C734.602 51.897 731.938 51.369 729.946 50.985C728.65 50.721 727.738 50.457 727.738 49.737C727.738 49.065 728.458 48.657 729.562 48.657C730.978 48.657 732.298 49.257 732.994 50.001L734.194 47.913C733.066 47.001 731.506 46.329 729.538 46.329C726.49 46.329 724.786 48.033 724.786 49.977C724.786 52.737 727.354 53.217 729.346 53.601C730.666 53.865 731.674 54.153 731.674 54.969C731.674 55.689 731.05 56.145 729.73 56.145C728.29 56.145 726.562 55.353 725.722 54.561L724.402 56.697ZM744.696 58.209H747.744V49.977C747.744 47.721 746.52 46.329 743.976 46.329C742.08 46.329 740.64 47.241 739.896 48.129V42.201H736.848V58.209H739.896V50.409C740.424 49.713 741.36 49.041 742.536 49.041C743.856 49.041 744.696 49.545 744.696 51.153V58.209ZM756.146 58.497C759.986 58.497 762.29 55.713 762.29 52.401C762.29 49.113 759.986 46.329 756.146 46.329C752.33 46.329 750.026 49.113 750.026 52.401C750.026 55.713 752.33 58.497 756.146 58.497ZM756.146 55.785C754.25 55.785 753.194 54.225 753.194 52.401C753.194 50.601 754.25 49.041 756.146 49.041C758.042 49.041 759.122 50.601 759.122 52.401C759.122 54.225 758.042 55.785 756.146 55.785ZM764.551 58.209H767.599V50.553C768.103 49.809 769.447 49.257 770.455 49.257C770.791 49.257 771.079 49.281 771.295 49.329V46.353C769.855 46.353 768.415 47.169 767.599 48.201V46.617H764.551V58.209ZM777.088 58.497C778.36 58.497 779.176 58.161 779.632 57.753L778.984 55.449C778.816 55.617 778.384 55.785 777.928 55.785C777.256 55.785 776.872 55.233 776.872 54.513V49.281H779.224V46.617H776.872V43.449H773.8V46.617H771.88V49.281H773.8V55.329C773.8 57.393 774.952 58.497 777.088 58.497ZM780.565 52.401C780.565 55.977 783.133 58.497 786.709 58.497C789.085 58.497 790.525 57.465 791.293 56.385L789.301 54.537C788.749 55.305 787.909 55.785 786.853 55.785C785.005 55.785 783.709 54.417 783.709 52.401C783.709 50.385 785.005 49.041 786.853 49.041C787.909 49.041 788.749 49.497 789.301 50.289L791.293 48.441C790.525 47.361 789.085 46.329 786.709 46.329C783.133 46.329 780.565 48.849 780.565 52.401ZM801.109 58.209H804.157V46.617H801.109V54.465C800.581 55.137 799.645 55.785 798.469 55.785C797.173 55.785 796.333 55.257 796.333 53.649V46.617H793.285V54.849C793.285 57.105 794.485 58.497 797.029 58.497C798.925 58.497 800.317 57.633 801.109 56.745V58.209ZM811.072 58.497C812.344 58.497 813.16 58.161 813.616 57.753L812.968 55.449C812.8 55.617 812.368 55.785 811.912 55.785C811.24 55.785 810.856 55.233 810.856 54.513V49.281H813.208V46.617H810.856V43.449H807.784V46.617H805.864V49.281H807.784V55.329C807.784 57.393 808.936 58.497 811.072 58.497ZM814.285 56.697C815.509 57.825 817.453 58.497 819.469 58.497C822.685 58.497 824.485 56.913 824.485 54.777C824.485 51.897 821.821 51.369 819.829 50.985C818.533 50.721 817.621 50.457 817.621 49.737C817.621 49.065 818.341 48.657 819.445 48.657C820.861 48.657 822.181 49.257 822.877 50.001L824.077 47.913C822.949 47.001 821.389 46.329 819.421 46.329C816.373 46.329 814.669 48.033 814.669 49.977C814.669 52.737 817.237 53.217 819.229 53.601C820.549 53.865 821.557 54.153 821.557 54.969C821.557 55.689 820.933 56.145 819.613 56.145C818.173 56.145 816.445 55.353 815.605 54.561L814.285 56.697Z" fill="#1E1E1E"/>
<rect x="290.5" y="97.7964" width="49" height="39" rx="3.5" fill="#F3F3F3" stroke="#CECECE"/>
<rect x="381.827" y="97.7964" width="49" height="39" rx="3.5" fill="#F3F3F3" stroke="#CECECE"/>
<rect x="473.028" y="97.7964" width="49" height="39" rx="3.5" fill="#F3F3F3" stroke="#CECECE"/>
<path opacity="0.5" fill-rule="evenodd" clip-rule="evenodd" d="M361.543 117.974V123.086H360.175V117.974H355.567V116.726H360.175V111.758H361.543V116.726H366.151V117.974H361.543Z" fill="#1E1E1E"/>
<path opacity="0.5" fill-rule="evenodd" clip-rule="evenodd" d="M452.745 117.974V123.086H451.377V117.974H446.769V116.726H451.377V111.758H452.745V116.726H457.353V117.974H452.745Z" fill="#1E1E1E"/>
<path d="M544.404 124.296H549.876C552.072 124.296 553.35 122.982 553.35 121.056C553.35 119.616 552.288 118.302 551.01 118.104C552.108 117.87 553.116 116.862 553.116 115.35C553.116 113.55 551.838 112.29 549.75 112.29H544.404V124.296ZM545.898 117.492V113.622H549.498C550.848 113.622 551.568 114.486 551.568 115.566C551.568 116.664 550.848 117.492 549.498 117.492H545.898ZM545.898 122.964V118.824H549.57C551.046 118.824 551.802 119.796 551.802 120.894C551.802 122.172 550.974 122.964 549.57 122.964H545.898ZM556.336 114.198C556.84 114.198 557.254 113.802 557.254 113.298C557.254 112.794 556.84 112.38 556.336 112.38C555.85 112.38 555.436 112.794 555.436 113.298C555.436 113.802 555.85 114.198 556.336 114.198ZM555.67 124.296H557.02V115.602H555.67V124.296ZM559.695 126.528C560.721 127.536 561.729 127.824 563.205 127.824C565.329 127.824 567.345 126.924 567.345 124.044V115.602H565.995V116.916C565.293 115.962 564.249 115.386 563.079 115.386C560.793 115.386 559.209 117.114 559.209 119.904C559.209 122.712 560.811 124.404 563.079 124.404C564.303 124.404 565.365 123.738 565.995 122.856V124.098C565.995 126.006 564.645 126.708 563.205 126.708C561.963 126.708 561.099 126.384 560.379 125.52L559.695 126.528ZM565.995 121.794C565.527 122.55 564.483 123.216 563.403 123.216C561.657 123.216 560.613 121.812 560.613 119.904C560.613 117.978 561.657 116.592 563.403 116.592C564.483 116.592 565.527 117.24 565.995 117.996V121.794ZM580.576 124.296H581.926V118.158C581.926 116.268 580.972 115.386 579.154 115.386C577.84 115.386 576.652 116.142 576.04 116.862V112.29H574.69V124.296H576.04V117.942C576.562 117.24 577.57 116.592 578.614 116.592C579.784 116.592 580.576 117.042 580.576 118.572V124.296ZM584.117 119.94C584.117 122.658 585.971 124.512 588.545 124.512C589.967 124.512 591.137 124.044 592.001 123.18L591.353 122.298C590.669 123 589.661 123.396 588.671 123.396C586.799 123.396 585.647 122.028 585.539 120.39H592.577V120.048C592.577 117.438 591.029 115.386 588.401 115.386C585.917 115.386 584.117 117.42 584.117 119.94ZM588.383 116.502C590.363 116.502 591.227 118.104 591.245 119.4H585.539C585.611 118.068 586.529 116.502 588.383 116.502ZM600.2 124.296H601.55V118.32C601.55 116.214 600.02 115.386 598.184 115.386C596.762 115.386 595.646 115.854 594.71 116.826L595.34 117.762C596.114 116.934 596.96 116.556 598.004 116.556C599.264 116.556 600.2 117.222 600.2 118.392V119.958C599.498 119.148 598.508 118.77 597.32 118.77C595.844 118.77 594.278 119.688 594.278 121.632C594.278 123.522 595.844 124.512 597.32 124.512C598.49 124.512 599.48 124.098 600.2 123.306V124.296ZM600.2 122.46C599.678 123.18 598.76 123.54 597.806 123.54C596.546 123.54 595.664 122.748 595.664 121.65C595.664 120.534 596.546 119.742 597.806 119.742C598.76 119.742 599.678 120.102 600.2 120.822V122.46ZM610.556 124.296H611.906V112.29H610.556V116.916C609.854 115.962 608.792 115.386 607.622 115.386C605.336 115.386 603.752 117.186 603.752 119.958C603.752 122.784 605.354 124.512 607.622 124.512C608.846 124.512 609.908 123.882 610.556 123V124.296ZM610.556 121.938C610.07 122.694 609.026 123.306 607.946 123.306C606.2 123.306 605.156 121.884 605.156 119.958C605.156 118.032 606.2 116.592 607.946 116.592C609.026 116.592 610.07 117.24 610.556 117.996V121.938ZM614.106 119.94C614.106 122.658 615.96 124.512 618.534 124.512C619.956 124.512 621.126 124.044 621.99 123.18L621.342 122.298C620.658 123 619.65 123.396 618.66 123.396C616.788 123.396 615.636 122.028 615.528 120.39H622.566V120.048C622.566 117.438 621.018 115.386 618.39 115.386C615.906 115.386 614.106 117.42 614.106 119.94ZM618.372 116.502C620.352 116.502 621.216 118.104 621.234 119.4H615.528C615.6 118.068 616.518 116.502 618.372 116.502ZM624.752 124.296H626.102V118.14C626.498 117.438 627.632 116.754 628.46 116.754C628.676 116.754 628.838 116.772 629 116.808V115.422C627.812 115.422 626.804 116.088 626.102 117.006V115.602H624.752V124.296ZM633.984 124.656H635.046L639.312 111.93H638.25L633.984 124.656ZM648.325 124.296H649.819V113.622H653.635V112.29H644.527V113.622H648.325V124.296ZM656.233 114.198C656.737 114.198 657.151 113.802 657.151 113.298C657.151 112.794 656.737 112.38 656.233 112.38C655.747 112.38 655.333 112.794 655.333 113.298C655.333 113.802 655.747 114.198 656.233 114.198ZM655.567 124.296H656.917V115.602H655.567V124.296ZM661.806 124.512C662.598 124.512 663.084 124.278 663.426 123.954L663.03 122.946C662.85 123.144 662.49 123.306 662.112 123.306C661.518 123.306 661.23 122.838 661.23 122.19V116.79H662.994V115.602H661.23V113.226H659.88V115.602H658.44V116.79H659.88V122.478C659.88 123.774 660.528 124.512 661.806 124.512ZM664.901 124.296H666.251V112.29H664.901V124.296ZM668.44 119.94C668.44 122.658 670.294 124.512 672.868 124.512C674.29 124.512 675.46 124.044 676.324 123.18L675.676 122.298C674.992 123 673.984 123.396 672.994 123.396C671.122 123.396 669.97 122.028 669.862 120.39H676.9V120.048C676.9 117.438 675.352 115.386 672.724 115.386C670.24 115.386 668.44 117.42 668.44 119.94ZM672.706 116.502C674.686 116.502 675.55 118.104 675.568 119.4H669.862C669.934 118.068 670.852 116.502 672.706 116.502Z" fill="#1E1E1E"/>
<rect x="782.762" y="97.7964" width="49" height="39" rx="3.5" fill="#F3F3F3" stroke="#CECECE"/>
<rect x="874.089" y="97.7964" width="49" height="39" rx="3.5" fill="#F3F3F3" stroke="#CECECE"/>
<path opacity="0.5" fill-rule="evenodd" clip-rule="evenodd" d="M853.806 117.848V122.96H852.438V117.848H847.83V116.6H852.438V111.632H853.806V116.6H858.414V117.848H853.806Z" fill="#1E1E1E"/>
<path d="M945.666 124.296H951.138C953.334 124.296 954.612 122.982 954.612 121.056C954.612 119.616 953.55 118.302 952.272 118.104C953.37 117.87 954.378 116.862 954.378 115.35C954.378 113.55 953.1 112.29 951.012 112.29H945.666V124.296ZM947.16 117.492V113.622H950.76C952.11 113.622 952.83 114.486 952.83 115.566C952.83 116.664 952.11 117.492 950.76 117.492H947.16ZM947.16 122.964V118.824H950.832C952.308 118.824 953.064 119.796 953.064 120.894C953.064 122.172 952.236 122.964 950.832 122.964H947.16ZM960.731 124.512C963.377 124.512 965.033 122.46 965.033 119.94C965.033 117.42 963.377 115.386 960.731 115.386C958.085 115.386 956.429 117.42 956.429 119.94C956.429 122.46 958.085 124.512 960.731 124.512ZM960.731 123.306C958.877 123.306 957.833 121.722 957.833 119.94C957.833 118.176 958.877 116.592 960.731 116.592C962.585 116.592 963.611 118.176 963.611 119.94C963.611 121.722 962.585 123.306 960.731 123.306ZM967.234 124.296H968.584V112.29H967.234V124.296ZM977.577 124.296H978.927V112.29H977.577V116.916C976.875 115.962 975.813 115.386 974.643 115.386C972.357 115.386 970.773 117.186 970.773 119.958C970.773 122.784 972.375 124.512 974.643 124.512C975.867 124.512 976.929 123.882 977.577 123V124.296ZM977.577 121.938C977.091 122.694 976.047 123.306 974.967 123.306C973.221 123.306 972.177 121.884 972.177 119.958C972.177 118.032 973.221 116.592 974.967 116.592C976.047 116.592 977.091 117.24 977.577 117.996V121.938Z" fill="#1E1E1E"/>
<rect x="290.5" y="151.922" width="49" height="39" rx="3.5" fill="#F3F3F3" stroke="#CECECE"/>
<rect x="381.827" y="151.922" width="49" height="39" rx="3.5" fill="#F3F3F3" stroke="#CECECE"/>
<rect x="473.028" y="151.922" width="49" height="39" rx="3.5" fill="#F3F3F3" stroke="#CECECE"/>
<path opacity="0.5" fill-rule="evenodd" clip-rule="evenodd" d="M452.745 172.1V177.212H451.377V172.1H446.769V170.852H451.377V165.884H452.745V170.852H457.353V172.1H452.745Z" fill="#1E1E1E"/>
<path opacity="0.5" fill-rule="evenodd" clip-rule="evenodd" d="M361.543 172.1V177.212H360.175V172.1H355.567V170.852H360.175V165.884H361.543V170.852H366.151V172.1H361.543Z" fill="#1E1E1E"/>
<path d="M543.684 176.73C544.674 177.846 546.204 178.638 548.292 178.638C551.532 178.638 552.72 176.856 552.72 175.11C552.72 172.59 550.488 171.978 548.526 171.456C546.996 171.042 545.61 170.682 545.61 169.476C545.61 168.342 546.636 167.568 548.076 167.568C549.39 167.568 550.65 168.018 551.55 169.008L552.45 167.91C551.442 166.848 550.02 166.236 548.184 166.236C545.826 166.236 544.062 167.586 544.062 169.566C544.062 171.924 546.204 172.464 548.13 172.968C549.714 173.4 551.172 173.796 551.172 175.236C551.172 176.154 550.488 177.306 548.346 177.306C546.654 177.306 545.358 176.478 544.566 175.596L543.684 176.73ZM565.391 178.422H566.741V172.14C566.741 170.394 565.895 169.512 564.311 169.512C563.051 169.512 561.881 170.34 561.395 171.132C561.143 170.232 560.387 169.512 559.055 169.512C557.777 169.512 556.607 170.43 556.247 170.988V169.728H554.897V178.422H556.247V172.068C556.715 171.366 557.651 170.718 558.533 170.718C559.667 170.718 560.135 171.42 560.135 172.518V178.422H561.485V172.05C561.935 171.366 562.889 170.718 563.789 170.718C564.905 170.718 565.391 171.42 565.391 172.518V178.422ZM574.87 178.422H576.22V172.446C576.22 170.34 574.69 169.512 572.854 169.512C571.432 169.512 570.316 169.98 569.38 170.952L570.01 171.888C570.784 171.06 571.63 170.682 572.674 170.682C573.934 170.682 574.87 171.348 574.87 172.518V174.084C574.168 173.274 573.178 172.896 571.99 172.896C570.514 172.896 568.948 173.814 568.948 175.758C568.948 177.648 570.514 178.638 571.99 178.638C573.16 178.638 574.15 178.224 574.87 177.432V178.422ZM574.87 176.586C574.348 177.306 573.43 177.666 572.476 177.666C571.216 177.666 570.334 176.874 570.334 175.776C570.334 174.66 571.216 173.868 572.476 173.868C573.43 173.868 574.348 174.228 574.87 174.948V176.586ZM578.926 178.422H580.276V166.416H578.926V178.422ZM582.969 178.422H584.319V166.416H582.969V178.422ZM597.539 178.422H598.889V172.284C598.889 170.394 597.935 169.512 596.117 169.512C594.803 169.512 593.615 170.268 593.003 170.988V166.416H591.653V178.422H593.003V172.068C593.525 171.366 594.533 170.718 595.577 170.718C596.747 170.718 597.539 171.168 597.539 172.698V178.422ZM601.08 174.066C601.08 176.784 602.934 178.638 605.508 178.638C606.93 178.638 608.1 178.17 608.964 177.306L608.316 176.424C607.632 177.126 606.624 177.522 605.634 177.522C603.762 177.522 602.61 176.154 602.502 174.516H609.54V174.174C609.54 171.564 607.992 169.512 605.364 169.512C602.88 169.512 601.08 171.546 601.08 174.066ZM605.346 170.628C607.326 170.628 608.19 172.23 608.208 173.526H602.502C602.574 172.194 603.492 170.628 605.346 170.628ZM617.163 178.422H618.513V172.446C618.513 170.34 616.983 169.512 615.147 169.512C613.725 169.512 612.609 169.98 611.673 170.952L612.303 171.888C613.077 171.06 613.923 170.682 614.967 170.682C616.227 170.682 617.163 171.348 617.163 172.518V174.084C616.461 173.274 615.471 172.896 614.283 172.896C612.807 172.896 611.241 173.814 611.241 175.758C611.241 177.648 612.807 178.638 614.283 178.638C615.453 178.638 616.443 178.224 617.163 177.432V178.422ZM617.163 176.586C616.641 177.306 615.723 177.666 614.769 177.666C613.509 177.666 612.627 176.874 612.627 175.776C612.627 174.66 613.509 173.868 614.769 173.868C615.723 173.868 616.641 174.228 617.163 174.948V176.586ZM627.519 178.422H628.869V166.416H627.519V171.042C626.817 170.088 625.755 169.512 624.585 169.512C622.299 169.512 620.715 171.312 620.715 174.084C620.715 176.91 622.317 178.638 624.585 178.638C625.809 178.638 626.871 178.008 627.519 177.126V178.422ZM627.519 176.064C627.033 176.82 625.989 177.432 624.909 177.432C623.163 177.432 622.119 176.01 622.119 174.084C622.119 172.158 623.163 170.718 624.909 170.718C625.989 170.718 627.033 171.366 627.519 172.122V176.064ZM631.069 174.066C631.069 176.784 632.923 178.638 635.497 178.638C636.919 178.638 638.089 178.17 638.953 177.306L638.305 176.424C637.621 177.126 636.613 177.522 635.623 177.522C633.751 177.522 632.599 176.154 632.491 174.516H639.529V174.174C639.529 171.564 637.981 169.512 635.353 169.512C632.869 169.512 631.069 171.546 631.069 174.066ZM635.335 170.628C637.315 170.628 638.179 172.23 638.197 173.526H632.491C632.563 172.194 633.481 170.628 635.335 170.628ZM641.715 178.422H643.065V172.266C643.461 171.564 644.595 170.88 645.423 170.88C645.639 170.88 645.801 170.898 645.963 170.934V169.548C644.775 169.548 643.767 170.214 643.065 171.132V169.728H641.715V178.422ZM650.947 178.782H652.009L656.275 166.056H655.213L650.947 178.782ZM661.598 176.73C662.588 177.846 664.118 178.638 666.206 178.638C669.446 178.638 670.634 176.856 670.634 175.11C670.634 172.59 668.402 171.978 666.44 171.456C664.91 171.042 663.524 170.682 663.524 169.476C663.524 168.342 664.55 167.568 665.99 167.568C667.304 167.568 668.564 168.018 669.464 169.008L670.364 167.91C669.356 166.848 667.934 166.236 666.098 166.236C663.74 166.236 661.976 167.586 661.976 169.566C661.976 171.924 664.118 172.464 666.044 172.968C667.628 173.4 669.086 173.796 669.086 175.236C669.086 176.154 668.402 177.306 666.26 177.306C664.568 177.306 663.272 176.478 662.48 175.596L661.598 176.73ZM678.679 178.422H680.029V169.728H678.679V176.118C678.175 176.82 677.167 177.432 676.105 177.432C674.935 177.432 674.161 176.982 674.161 175.452V169.728H672.811V175.866C672.811 177.756 673.765 178.638 675.583 178.638C676.879 178.638 678.013 177.954 678.679 177.198V178.422ZM682.725 178.422H684.075V177.126C684.723 178.008 685.785 178.638 687.009 178.638C689.277 178.638 690.879 176.91 690.879 174.084C690.879 171.312 689.277 169.512 687.009 169.512C685.821 169.512 684.777 170.088 684.075 171.042V166.416H682.725V178.422ZM684.075 176.064V172.122C684.543 171.366 685.605 170.718 686.667 170.718C688.431 170.718 689.475 172.158 689.475 174.084C689.475 176.01 688.431 177.432 686.667 177.432C685.605 177.432 684.543 176.82 684.075 176.064ZM695.275 178.638C696.067 178.638 696.553 178.404 696.895 178.08L696.499 177.072C696.319 177.27 695.959 177.432 695.581 177.432C694.987 177.432 694.699 176.964 694.699 176.316V170.916H696.463V169.728H694.699V167.352H693.349V169.728H691.909V170.916H693.349V176.604C693.349 177.9 693.997 178.638 695.275 178.638ZM699.036 168.324C699.54 168.324 699.954 167.928 699.954 167.424C699.954 166.92 699.54 166.506 699.036 166.506C698.55 166.506 698.136 166.92 698.136 167.424C698.136 167.928 698.55 168.324 699.036 168.324ZM698.37 178.422H699.72V169.728H698.37V178.422ZM704.609 178.638C705.401 178.638 705.887 178.404 706.229 178.08L705.833 177.072C705.653 177.27 705.293 177.432 704.915 177.432C704.321 177.432 704.033 176.964 704.033 176.316V170.916H705.797V169.728H704.033V167.352H702.683V169.728H701.243V170.916H702.683V176.604C702.683 177.9 703.331 178.638 704.609 178.638ZM707.704 178.422H709.054V166.416H707.704V178.422ZM711.242 174.066C711.242 176.784 713.096 178.638 715.67 178.638C717.092 178.638 718.262 178.17 719.126 177.306L718.478 176.424C717.794 177.126 716.786 177.522 715.796 177.522C713.924 177.522 712.772 176.154 712.664 174.516H719.702V174.174C719.702 171.564 718.154 169.512 715.526 169.512C713.042 169.512 711.242 171.546 711.242 174.066ZM715.508 170.628C717.488 170.628 718.352 172.23 718.37 173.526H712.664C712.736 172.194 713.654 170.628 715.508 170.628Z" fill="#1E1E1E"/>
<rect x="782.762" y="151.922" width="49" height="39" rx="3.5" fill="#F3F3F3" stroke="#CECECE"/>
<rect x="874.089" y="151.922" width="49" height="39" rx="3.5" fill="#F3F3F3" stroke="#CECECE"/>
<path opacity="0.5" fill-rule="evenodd" clip-rule="evenodd" d="M853.806 171.974V177.086H852.438V171.974H847.83V170.726H852.438V165.758H853.806V170.726H858.414V171.974H853.806Z" fill="#1E1E1E"/>
<path d="M945.666 178.422H947.16V166.416H945.666V178.422ZM952.115 178.638C952.907 178.638 953.393 178.404 953.735 178.08L953.339 177.072C953.159 177.27 952.799 177.432 952.421 177.432C951.827 177.432 951.539 176.964 951.539 176.316V170.916H953.303V169.728H951.539V167.352H950.189V169.728H948.749V170.916H950.189V176.604C950.189 177.9 950.837 178.638 952.115 178.638ZM960.646 178.422H961.996V172.446C961.996 170.34 960.466 169.512 958.63 169.512C957.208 169.512 956.092 169.98 955.156 170.952L955.786 171.888C956.56 171.06 957.406 170.682 958.45 170.682C959.71 170.682 960.646 171.348 960.646 172.518V174.084C959.944 173.274 958.954 172.896 957.766 172.896C956.29 172.896 954.724 173.814 954.724 175.758C954.724 177.648 956.29 178.638 957.766 178.638C958.936 178.638 959.926 178.224 960.646 177.432V178.422ZM960.646 176.586C960.124 177.306 959.206 177.666 958.252 177.666C956.992 177.666 956.11 176.874 956.11 175.776C956.11 174.66 956.992 173.868 958.252 173.868C959.206 173.868 960.124 174.228 960.646 174.948V176.586ZM964.702 178.422H966.052V166.416H964.702V178.422ZM969.411 168.324C969.915 168.324 970.329 167.928 970.329 167.424C970.329 166.92 969.915 166.506 969.411 166.506C968.925 166.506 968.511 166.92 968.511 167.424C968.511 167.928 968.925 168.324 969.411 168.324ZM968.745 178.422H970.095V169.728H968.745V178.422ZM972.284 174.066C972.284 176.658 974.03 178.638 976.622 178.638C978.206 178.638 979.142 177.99 979.808 177.126L978.908 176.298C978.332 177.072 977.594 177.432 976.694 177.432C974.84 177.432 973.688 175.992 973.688 174.066C973.688 172.14 974.84 170.718 976.694 170.718C977.594 170.718 978.332 171.06 978.908 171.852L979.808 171.024C979.142 170.16 978.206 169.512 976.622 169.512C974.03 169.512 972.284 171.492 972.284 174.066Z" fill="#1E1E1E"/>
<rect x="473.028" y="207.666" width="49" height="39" rx="3.5" fill="#F3F3F3" stroke="#CECECE"/>
<path opacity="0.5" fill-rule="evenodd" clip-rule="evenodd" d="M452.745 227.844V232.956H451.377V227.844H446.769V226.596H451.377V221.628H452.745V226.596H457.353V227.844H452.745Z" fill="#1E1E1E"/>
<rect x="290.5" y="207.374" width="49" height="39" rx="3.5" fill="#F3F3F3" stroke="#CECECE"/>
<rect x="381.827" y="207.374" width="49" height="39" rx="3.5" fill="#F3F3F3" stroke="#CECECE"/>
<path opacity="0.5" fill-rule="evenodd" clip-rule="evenodd" d="M361.543 227.551V232.663H360.175V227.551H355.567V226.303H360.175V221.335H361.543V226.303H366.151V227.551H361.543Z" fill="#1E1E1E"/>
<path d="M555.834 219.107C555.834 215.561 553.422 212.897 549.876 212.897C546.312 212.897 543.918 215.561 543.918 219.107C543.918 222.653 546.312 225.317 549.876 225.317C551.118 225.317 552.216 224.993 553.134 224.417L554.286 225.659L555.33 224.759L554.196 223.535C555.24 222.419 555.834 220.871 555.834 219.107ZM549.876 223.985C547.176 223.985 545.466 221.897 545.466 219.107C545.466 216.299 547.176 214.229 549.876 214.229C552.558 214.229 554.286 216.299 554.286 219.107C554.286 220.439 553.89 221.609 553.188 222.455L551.496 220.637L550.452 221.519L552.162 223.373C551.514 223.769 550.758 223.985 549.876 223.985ZM563.982 225.101H565.332V216.407H563.982V222.797C563.478 223.499 562.47 224.111 561.408 224.111C560.238 224.111 559.464 223.661 559.464 222.131V216.407H558.114V222.545C558.114 224.435 559.068 225.317 560.886 225.317C562.182 225.317 563.316 224.633 563.982 223.877V225.101ZM571.826 225.317C574.472 225.317 576.128 223.265 576.128 220.745C576.128 218.225 574.472 216.191 571.826 216.191C569.18 216.191 567.524 218.225 567.524 220.745C567.524 223.265 569.18 225.317 571.826 225.317ZM571.826 224.111C569.972 224.111 568.928 222.527 568.928 220.745C568.928 218.981 569.972 217.397 571.826 217.397C573.68 217.397 574.706 218.981 574.706 220.745C574.706 222.527 573.68 224.111 571.826 224.111ZM580.525 225.317C581.317 225.317 581.803 225.083 582.145 224.759L581.749 223.751C581.569 223.949 581.209 224.111 580.831 224.111C580.237 224.111 579.949 223.643 579.949 222.995V217.595H581.713V216.407H579.949V214.031H578.599V216.407H577.159V217.595H578.599V223.283C578.599 224.579 579.247 225.317 580.525 225.317ZM583.116 220.745C583.116 223.463 584.97 225.317 587.544 225.317C588.966 225.317 590.136 224.849 591 223.985L590.352 223.103C589.668 223.805 588.66 224.201 587.67 224.201C585.798 224.201 584.646 222.833 584.538 221.195H591.576V220.853C591.576 218.243 590.028 216.191 587.4 216.191C584.916 216.191 583.116 218.225 583.116 220.745ZM587.382 217.307C589.362 217.307 590.226 218.909 590.244 220.205H584.538C584.61 218.873 585.528 217.307 587.382 217.307Z" fill="#1E1E1E"/>
<path opacity="0.4" d="M544.092 243.135H547.284C550.182 243.135 552.072 241.133 552.072 238.473C552.072 235.827 550.182 233.797 547.284 233.797H544.092V243.135ZM545.254 242.099V234.833H547.284C549.594 234.833 550.868 236.457 550.868 238.473C550.868 240.475 549.552 242.099 547.284 242.099H545.254ZM556.807 243.303C558.865 243.303 560.153 241.707 560.153 239.747C560.153 237.787 558.865 236.205 556.807 236.205C554.749 236.205 553.461 237.787 553.461 239.747C553.461 241.707 554.749 243.303 556.807 243.303ZM556.807 242.365C555.365 242.365 554.553 241.133 554.553 239.747C554.553 238.375 555.365 237.143 556.807 237.143C558.249 237.143 559.047 238.375 559.047 239.747C559.047 241.133 558.249 242.365 556.807 242.365ZM566.428 243.135H567.478V236.373H566.428V241.343C566.036 241.889 565.252 242.365 564.426 242.365C563.516 242.365 562.914 242.015 562.914 240.825V236.373H561.864V241.147C561.864 242.617 562.606 243.303 564.02 243.303C565.028 243.303 565.91 242.771 566.428 242.183V243.135ZM569.575 243.135H570.625V242.127C571.129 242.813 571.955 243.303 572.907 243.303C574.671 243.303 575.917 241.959 575.917 239.761C575.917 237.605 574.671 236.205 572.907 236.205C571.983 236.205 571.171 236.653 570.625 237.395V233.797H569.575V243.135ZM570.625 241.301V238.235C570.989 237.647 571.815 237.143 572.641 237.143C574.013 237.143 574.825 238.263 574.825 239.761C574.825 241.259 574.013 242.365 572.641 242.365C571.815 242.365 570.989 241.889 570.625 241.301ZM577.628 243.135H578.678V233.797H577.628V243.135ZM580.381 239.747C580.381 241.861 581.823 243.303 583.825 243.303C584.931 243.303 585.841 242.939 586.513 242.267L586.009 241.581C585.477 242.127 584.693 242.435 583.923 242.435C582.467 242.435 581.571 241.371 581.487 240.097H586.961V239.831C586.961 237.801 585.757 236.205 583.713 236.205C581.781 236.205 580.381 237.787 580.381 239.747ZM583.699 237.073C585.239 237.073 585.911 238.319 585.925 239.327H581.487C581.543 238.291 582.257 237.073 583.699 237.073ZM591.683 242.239C592.369 242.967 593.307 243.303 594.413 243.303C596.163 243.303 597.073 242.393 597.073 241.259C597.073 239.761 595.715 239.425 594.539 239.159C593.657 238.949 592.887 238.739 592.887 238.081C592.887 237.479 593.461 237.059 594.385 237.059C595.253 237.059 595.995 237.423 596.401 237.913L596.891 237.185C596.345 236.639 595.533 236.205 594.385 236.205C592.775 236.205 591.865 237.101 591.865 238.151C591.865 239.551 593.167 239.859 594.315 240.125C595.225 240.349 596.051 240.587 596.051 241.329C596.051 241.987 595.491 242.449 594.455 242.449C593.531 242.449 592.677 242.001 592.229 241.483L591.683 242.239ZM600.487 243.303C601.103 243.303 601.481 243.121 601.747 242.869L601.439 242.085C601.299 242.239 601.019 242.365 600.725 242.365C600.263 242.365 600.039 242.001 600.039 241.497V237.297H601.411V236.373H600.039V234.525H598.989V236.373H597.869V237.297H598.989V241.721C598.989 242.729 599.493 243.303 600.487 243.303ZM602.684 244.829L602.516 245.781C602.712 245.837 603.062 245.879 603.286 245.879C604.182 245.865 604.868 245.487 605.274 244.507L608.662 236.373H607.514L605.274 241.917L603.02 236.373H601.886L604.714 243.205L604.266 244.227C604.028 244.787 603.72 244.941 603.258 244.941C603.09 244.941 602.838 244.899 602.684 244.829ZM609.757 243.135H610.807V233.797H609.757V243.135ZM612.51 239.747C612.51 241.861 613.952 243.303 615.954 243.303C617.06 243.303 617.97 242.939 618.642 242.267L618.138 241.581C617.606 242.127 616.822 242.435 616.052 242.435C614.596 242.435 613.7 241.371 613.616 240.097H619.09V239.831C619.09 237.801 617.886 236.205 615.842 236.205C613.91 236.205 612.51 237.787 612.51 239.747ZM615.828 237.073C617.368 237.073 618.04 238.319 618.054 239.327H613.616C613.672 238.291 614.386 237.073 615.828 237.073ZM620.202 242.239C620.888 242.967 621.826 243.303 622.932 243.303C624.682 243.303 625.592 242.393 625.592 241.259C625.592 239.761 624.234 239.425 623.058 239.159C622.176 238.949 621.406 238.739 621.406 238.081C621.406 237.479 621.98 237.059 622.904 237.059C623.772 237.059 624.514 237.423 624.92 237.913L625.41 237.185C624.864 236.639 624.052 236.205 622.904 236.205C621.294 236.205 620.384 237.101 620.384 238.151C620.384 239.551 621.686 239.859 622.834 240.125C623.744 240.349 624.57 240.587 624.57 241.329C624.57 241.987 624.01 242.449 622.974 242.449C622.05 242.449 621.196 242.001 620.748 241.483L620.202 242.239Z" fill="#1E1E1E"/>
<rect x="782.762" y="207.284" width="49" height="39" rx="3.5" fill="#F3F3F3" stroke="#CECECE"/>
<rect x="874.089" y="207.284" width="49" height="39" rx="3.5" fill="#F3F3F3" stroke="#CECECE"/>
<path opacity="0.5" fill-rule="evenodd" clip-rule="evenodd" d="M853.806 227.462V232.574H852.438V227.462H847.83V226.214H852.438V221.246H853.806V226.214H858.414V227.462H853.806Z" fill="#1E1E1E"/>
<path d="M954.18 233.784H955.674V221.778H954.18V226.944H947.16V221.778H945.666V233.784H947.16V228.276H954.18V233.784ZM958.157 235.962L957.941 237.186C958.193 237.258 958.643 237.312 958.931 237.312C960.083 237.294 960.965 236.808 961.487 235.548L965.843 225.09H964.367L961.487 232.218L958.589 225.09H957.131L960.767 233.874L960.191 235.188C959.885 235.908 959.489 236.106 958.895 236.106C958.679 236.106 958.355 236.052 958.157 235.962ZM968.601 237.096V232.47C969.303 233.442 970.347 234 971.535 234C973.821 234 975.405 232.236 975.405 229.428C975.405 226.602 973.821 224.874 971.535 224.874C970.311 224.874 969.231 225.504 968.601 226.386V225.09H967.251V237.096H968.601ZM973.983 229.428C973.983 231.354 972.939 232.794 971.193 232.794C970.131 232.794 969.069 232.146 968.601 231.39V227.466C969.069 226.71 970.131 226.08 971.193 226.08C972.939 226.08 973.983 227.502 973.983 229.428ZM977.083 229.428C977.083 232.146 978.937 234 981.511 234C982.933 234 984.103 233.532 984.967 232.668L984.319 231.786C983.635 232.488 982.627 232.884 981.637 232.884C979.765 232.884 978.613 231.516 978.505 229.878H985.543V229.536C985.543 226.926 983.995 224.874 981.367 224.874C978.883 224.874 977.083 226.908 977.083 229.428ZM981.349 225.99C983.329 225.99 984.193 227.592 984.211 228.888H978.505C978.577 227.556 979.495 225.99 981.349 225.99ZM987.73 233.784H989.08V227.628C989.476 226.926 990.61 226.242 991.438 226.242C991.654 226.242 991.816 226.26 991.978 226.296V224.91C990.79 224.91 989.782 225.576 989.08 226.494V225.09H987.73V233.784ZM993.671 233.784H995.021V221.778H993.671V233.784ZM998.38 223.686C998.884 223.686 999.298 223.29 999.298 222.786C999.298 222.282 998.884 221.868 998.38 221.868C997.894 221.868 997.48 222.282 997.48 222.786C997.48 223.29 997.894 223.686 998.38 223.686ZM997.714 233.784H999.064V225.09H997.714V233.784ZM1007.62 233.784H1008.97V227.682C1008.97 225.792 1008.02 224.874 1006.2 224.874C1004.91 224.874 1003.72 225.63 1003.11 226.35V225.09H1001.76V233.784H1003.11V227.43C1003.61 226.728 1004.62 226.08 1005.68 226.08C1006.85 226.08 1007.62 226.566 1007.62 228.096V233.784ZM1017.59 233.784H1019.32L1015.45 229.032L1019.3 225.09H1017.59L1013.02 229.716V221.778H1011.67V233.784H1013.02V231.3L1014.46 229.878L1017.59 233.784Z" fill="#1E1E1E"/>
<rect x="290.5" y="262.91" width="49" height="39" rx="3.5" fill="#F3F3F3" stroke="#CECECE"/>
<path opacity="0.5" fill-rule="evenodd" clip-rule="evenodd" d="M361.543 283.088V288.2H360.175V283.088H355.567V281.84H360.175V276.872H361.543V281.84H366.151V283.088H361.543Z" fill="#1E1E1E"/>
<path d="M544.404 289.41H549.876C552.072 289.41 553.35 288.096 553.35 286.17C553.35 284.73 552.288 283.416 551.01 283.218C552.108 282.984 553.116 281.976 553.116 280.464C553.116 278.664 551.838 277.404 549.75 277.404H544.404V289.41ZM545.898 282.606V278.736H549.498C550.848 278.736 551.568 279.6 551.568 280.68C551.568 281.778 550.848 282.606 549.498 282.606H545.898ZM545.898 288.078V283.938H549.57C551.046 283.938 551.802 284.91 551.802 286.008C551.802 287.286 550.974 288.078 549.57 288.078H545.898ZM561.538 289.41H562.888V280.716H561.538V287.106C561.034 287.808 560.026 288.42 558.964 288.42C557.794 288.42 557.02 287.97 557.02 286.44V280.716H555.67V286.854C555.67 288.744 556.624 289.626 558.442 289.626C559.738 289.626 560.872 288.942 561.538 288.186V289.41ZM565.584 289.41H566.934V277.404H565.584V289.41ZM569.627 289.41H570.977V277.404H569.627V289.41ZM573.166 285.054C573.166 287.772 575.02 289.626 577.594 289.626C579.016 289.626 580.186 289.158 581.05 288.294L580.402 287.412C579.718 288.114 578.71 288.51 577.72 288.51C575.848 288.51 574.696 287.142 574.588 285.504H581.626V285.162C581.626 282.552 580.078 280.5 577.45 280.5C574.966 280.5 573.166 282.534 573.166 285.054ZM577.432 281.616C579.412 281.616 580.276 283.218 580.294 284.514H574.588C574.66 283.182 575.578 281.616 577.432 281.616ZM586.009 289.626C586.801 289.626 587.287 289.392 587.629 289.068L587.233 288.06C587.053 288.258 586.693 288.42 586.315 288.42C585.721 288.42 585.433 287.952 585.433 287.304V281.904H587.197V280.716H585.433V278.34H584.083V280.716H582.643V281.904H584.083V287.592C584.083 288.888 584.731 289.626 586.009 289.626ZM593.745 289.41H595.095V277.404H593.745V289.41ZM598.454 279.312C598.958 279.312 599.372 278.916 599.372 278.412C599.372 277.908 598.958 277.494 598.454 277.494C597.968 277.494 597.554 277.908 597.554 278.412C597.554 278.916 597.968 279.312 598.454 279.312ZM597.788 289.41H599.138V280.716H597.788V289.41ZM601.074 288.258C601.956 289.194 603.162 289.626 604.584 289.626C606.834 289.626 608.004 288.456 608.004 286.998C608.004 285.072 606.258 284.64 604.746 284.298C603.612 284.028 602.622 283.758 602.622 282.912C602.622 282.138 603.36 281.598 604.548 281.598C605.664 281.598 606.618 282.066 607.14 282.696L607.77 281.76C607.068 281.058 606.024 280.5 604.548 280.5C602.478 280.5 601.308 281.652 601.308 283.002C601.308 284.802 602.982 285.198 604.458 285.54C605.628 285.828 606.69 286.134 606.69 287.088C606.69 287.934 605.97 288.528 604.638 288.528C603.45 288.528 602.352 287.952 601.776 287.286L601.074 288.258ZM612.394 289.626C613.186 289.626 613.672 289.392 614.014 289.068L613.618 288.06C613.438 288.258 613.078 288.42 612.7 288.42C612.106 288.42 611.818 287.952 611.818 287.304V281.904H613.582V280.716H611.818V278.34H610.468V280.716H609.028V281.904H610.468V287.592C610.468 288.888 611.116 289.626 612.394 289.626Z" fill="#1E1E1E"/>
<rect x="782.762" y="263.157" width="49" height="39" rx="3.5" fill="#F3F3F3" stroke="#CECECE"/>
<rect x="874.089" y="263.157" width="49" height="39" rx="3.5" fill="#F3F3F3" stroke="#CECECE"/>
<path opacity="0.5" fill-rule="evenodd" clip-rule="evenodd" d="M853.806 283.335V288.447H852.438V283.335H847.83V282.087H852.438V277.119H853.806V282.087H858.414V283.335H853.806Z" fill="#1E1E1E"/>
<path d="M1057.92 283.663C1057.92 287.209 1060.31 289.873 1063.88 289.873C1067.42 289.873 1069.83 287.209 1069.83 283.663C1069.83 280.117 1067.42 277.453 1063.88 277.453C1060.31 277.453 1057.92 280.117 1057.92 283.663ZM1068.29 283.663C1068.29 286.453 1066.56 288.541 1063.88 288.541C1061.18 288.541 1059.47 286.453 1059.47 283.663C1059.47 280.855 1061.18 278.785 1063.88 278.785C1066.56 278.785 1068.29 280.855 1068.29 283.663ZM1072.11 289.657H1073.46V283.501C1073.86 282.799 1074.99 282.115 1075.82 282.115C1076.04 282.115 1076.2 282.133 1076.36 282.169V280.783C1075.17 280.783 1074.17 281.449 1073.46 282.367V280.963H1072.11V289.657ZM1084.36 289.657H1085.71V277.651H1084.36V282.277C1083.65 281.323 1082.59 280.747 1081.42 280.747C1079.14 280.747 1077.55 282.547 1077.55 285.319C1077.55 288.145 1079.15 289.873 1081.42 289.873C1082.65 289.873 1083.71 289.243 1084.36 288.361V289.657ZM1084.36 287.299C1083.87 288.055 1082.83 288.667 1081.75 288.667C1080 288.667 1078.96 287.245 1078.96 285.319C1078.96 283.393 1080 281.953 1081.75 281.953C1082.83 281.953 1083.87 282.601 1084.36 283.357V287.299ZM1087.9 285.301C1087.9 288.019 1089.76 289.873 1092.33 289.873C1093.75 289.873 1094.92 289.405 1095.79 288.541L1095.14 287.659C1094.46 288.361 1093.45 288.757 1092.46 288.757C1090.59 288.757 1089.43 287.389 1089.33 285.751H1096.36V285.409C1096.36 282.799 1094.82 280.747 1092.19 280.747C1089.7 280.747 1087.9 282.781 1087.9 285.301ZM1092.17 281.863C1094.15 281.863 1095.01 283.465 1095.03 284.761H1089.33C1089.4 283.429 1090.32 281.863 1092.17 281.863ZM1098.55 289.657H1099.9V283.501C1100.3 282.799 1101.43 282.115 1102.26 282.115C1102.48 282.115 1102.64 282.133 1102.8 282.169V280.783C1101.61 280.783 1100.6 281.449 1099.9 282.367V280.963H1098.55V289.657ZM1103.99 285.301C1103.99 288.019 1105.84 289.873 1108.42 289.873C1109.84 289.873 1111.01 289.405 1111.87 288.541L1111.22 287.659C1110.54 288.361 1109.53 288.757 1108.54 288.757C1106.67 288.757 1105.52 287.389 1105.41 285.751H1112.45V285.409C1112.45 282.799 1110.9 280.747 1108.27 280.747C1105.79 280.747 1103.99 282.781 1103.99 285.301ZM1108.25 281.863C1110.23 281.863 1111.1 283.465 1111.12 284.761H1105.41C1105.48 283.429 1106.4 281.863 1108.25 281.863ZM1120.94 289.657H1122.29V277.651H1120.94V282.277C1120.23 281.323 1119.17 280.747 1118 280.747C1115.72 280.747 1114.13 282.547 1114.13 285.319C1114.13 288.145 1115.73 289.873 1118 289.873C1119.23 289.873 1120.29 289.243 1120.94 288.361V289.657ZM1120.94 287.299C1120.45 288.055 1119.41 288.667 1118.33 288.667C1116.58 288.667 1115.54 287.245 1115.54 285.319C1115.54 283.393 1116.58 281.953 1118.33 281.953C1119.41 281.953 1120.45 282.601 1120.94 283.357V287.299ZM1129.63 289.657H1130.98V277.651H1129.63V289.657ZM1134.34 279.559C1134.84 279.559 1135.26 279.163 1135.26 278.659C1135.26 278.155 1134.84 277.741 1134.34 277.741C1133.85 277.741 1133.44 278.155 1133.44 278.659C1133.44 279.163 1133.85 279.559 1134.34 279.559ZM1133.67 289.657H1135.02V280.963H1133.67V289.657ZM1136.96 288.505C1137.84 289.441 1139.05 289.873 1140.47 289.873C1142.72 289.873 1143.89 288.703 1143.89 287.245C1143.89 285.319 1142.14 284.887 1140.63 284.545C1139.5 284.275 1138.51 284.005 1138.51 283.159C1138.51 282.385 1139.25 281.845 1140.43 281.845C1141.55 281.845 1142.5 282.313 1143.03 282.943L1143.66 282.007C1142.95 281.305 1141.91 280.747 1140.43 280.747C1138.36 280.747 1137.19 281.899 1137.19 283.249C1137.19 285.049 1138.87 285.445 1140.34 285.787C1141.51 286.075 1142.58 286.381 1142.58 287.335C1142.58 288.181 1141.86 288.775 1140.52 288.775C1139.34 288.775 1138.24 288.199 1137.66 287.533L1136.96 288.505ZM1148.28 289.873C1149.07 289.873 1149.56 289.639 1149.9 289.315L1149.5 288.307C1149.32 288.505 1148.96 288.667 1148.58 288.667C1147.99 288.667 1147.7 288.199 1147.7 287.551V282.151H1149.47V280.963H1147.7V278.587H1146.35V280.963H1144.91V282.151H1146.35V287.839C1146.35 289.135 1147 289.873 1148.28 289.873Z" fill="#1E1E1E"/>
<path d="M318.61 123.16C319.83 123.16 320.83 122.14 320.83 120.92C320.83 119.7 319.83 118.7 318.61 118.7H317.29V115.96H318.61C319.83 115.96 320.83 114.94 320.83 113.72C320.83 112.5 319.83 111.5 318.61 111.5C317.39 111.5 316.37 112.5 316.37 113.72V115.06H313.63V113.72C313.63 112.5 312.63 111.5 311.41 111.5C310.19 111.5 309.17 112.5 309.17 113.72C309.17 114.94 310.19 115.96 311.41 115.96H312.71V118.7H311.39C310.17 118.7 309.17 119.7 309.17 120.92C309.17 122.14 310.17 123.16 311.39 123.16C312.61 123.16 313.63 122.14 313.63 120.92V119.6H316.37V120.92C316.37 122.14 317.39 123.16 318.61 123.16ZM312.71 113.72V115.06H311.41C310.67 115.06 310.07 114.46 310.07 113.72C310.07 113 310.67 112.4 311.41 112.4C312.13 112.4 312.71 113 312.71 113.72ZM318.61 112.4C319.33 112.4 319.91 113 319.91 113.72C319.91 114.46 319.33 115.06 318.61 115.06H317.29V113.72C317.29 113 317.87 112.4 318.61 112.4ZM316.37 118.7H313.63V115.96H316.37V118.7ZM312.71 119.6V120.92C312.71 121.66 312.11 122.26 311.39 122.26C310.65 122.26 310.07 121.66 310.07 120.92C310.07 120.2 310.65 119.6 311.37 119.6H312.71ZM318.61 119.6C319.35 119.6 319.91 120.2 319.91 120.92C319.91 121.66 319.33 122.26 318.61 122.26C317.87 122.26 317.29 121.66 317.29 120.92V119.6H318.61Z" fill="black"/>
<path d="M810.61 123.16C811.83 123.16 812.83 122.14 812.83 120.92C812.83 119.7 811.83 118.7 810.61 118.7H809.29V115.96H810.61C811.83 115.96 812.83 114.94 812.83 113.72C812.83 112.5 811.83 111.5 810.61 111.5C809.39 111.5 808.37 112.5 808.37 113.72V115.06H805.63V113.72C805.63 112.5 804.63 111.5 803.41 111.5C802.19 111.5 801.17 112.5 801.17 113.72C801.17 114.94 802.19 115.96 803.41 115.96H804.71V118.7H803.39C802.17 118.7 801.17 119.7 801.17 120.92C801.17 122.14 802.17 123.16 803.39 123.16C804.61 123.16 805.63 122.14 805.63 120.92V119.6H808.37V120.92C808.37 122.14 809.39 123.16 810.61 123.16ZM804.71 113.72V115.06H803.41C802.67 115.06 802.07 114.46 802.07 113.72C802.07 113 802.67 112.4 803.41 112.4C804.13 112.4 804.71 113 804.71 113.72ZM810.61 112.4C811.33 112.4 811.91 113 811.91 113.72C811.91 114.46 811.33 115.06 810.61 115.06H809.29V113.72C809.29 113 809.87 112.4 810.61 112.4ZM808.37 118.7H805.63V115.96H808.37V118.7ZM804.71 119.6V120.92C804.71 121.66 804.11 122.26 803.39 122.26C802.65 122.26 802.07 121.66 802.07 120.92C802.07 120.2 802.65 119.6 803.37 119.6H804.71ZM810.61 119.6C811.35 119.6 811.91 120.2 811.91 120.92C811.91 121.66 811.33 122.26 810.61 122.26C809.87 122.26 809.29 121.66 809.29 120.92V119.6H810.61Z" fill="black"/>
<path d="M894.717 124H899.581C901.533 124 902.669 122.832 902.669 121.12C902.669 119.84 901.725 118.672 900.589 118.496C901.565 118.288 902.461 117.392 902.461 116.048C902.461 114.448 901.325 113.328 899.469 113.328H894.717V124ZM896.045 117.952V114.512H899.245C900.445 114.512 901.085 115.28 901.085 116.24C901.085 117.216 900.445 117.952 899.245 117.952H896.045ZM896.045 122.816V119.136H899.309C900.621 119.136 901.293 120 901.293 120.976C901.293 122.112 900.557 122.816 899.309 122.816H896.045Z" fill="black"/>
<path d="M810.61 175.16C811.83 175.16 812.83 174.14 812.83 172.92C812.83 171.7 811.83 170.7 810.61 170.7H809.29V167.96H810.61C811.83 167.96 812.83 166.94 812.83 165.72C812.83 164.5 811.83 163.5 810.61 163.5C809.39 163.5 808.37 164.5 808.37 165.72V167.06H805.63V165.72C805.63 164.5 804.63 163.5 803.41 163.5C802.19 163.5 801.17 164.5 801.17 165.72C801.17 166.94 802.19 167.96 803.41 167.96H804.71V170.7H803.39C802.17 170.7 801.17 171.7 801.17 172.92C801.17 174.14 802.17 175.16 803.39 175.16C804.61 175.16 805.63 174.14 805.63 172.92V171.6H808.37V172.92C808.37 174.14 809.39 175.16 810.61 175.16ZM804.71 165.72V167.06H803.41C802.67 167.06 802.07 166.46 802.07 165.72C802.07 165 802.67 164.4 803.41 164.4C804.13 164.4 804.71 165 804.71 165.72ZM810.61 164.4C811.33 164.4 811.91 165 811.91 165.72C811.91 166.46 811.33 167.06 810.61 167.06H809.29V165.72C809.29 165 809.87 164.4 810.61 164.4ZM808.37 170.7H805.63V167.96H808.37V170.7ZM804.71 171.6V172.92C804.71 173.66 804.11 174.26 803.39 174.26C802.65 174.26 802.07 173.66 802.07 172.92C802.07 172.2 802.65 171.6 803.37 171.6H804.71ZM810.61 171.6C811.35 171.6 811.91 172.2 811.91 172.92C811.91 173.66 811.33 174.26 810.61 174.26C809.87 174.26 809.29 173.66 809.29 172.92V171.6H810.61Z" fill="black"/>
<path d="M897.995 167.024C898.443 167.024 898.811 166.672 898.811 166.224C898.811 165.776 898.443 165.408 897.995 165.408C897.563 165.408 897.195 165.776 897.195 166.224C897.195 166.672 897.563 167.024 897.995 167.024ZM897.403 176H898.603V168.272H897.403V176Z" fill="black"/>
<path d="M810.61 232.16C811.83 232.16 812.83 231.14 812.83 229.92C812.83 228.7 811.83 227.7 810.61 227.7H809.29V224.96H810.61C811.83 224.96 812.83 223.94 812.83 222.72C812.83 221.5 811.83 220.5 810.61 220.5C809.39 220.5 808.37 221.5 808.37 222.72V224.06H805.63V222.72C805.63 221.5 804.63 220.5 803.41 220.5C802.19 220.5 801.17 221.5 801.17 222.72C801.17 223.94 802.19 224.96 803.41 224.96H804.71V227.7H803.39C802.17 227.7 801.17 228.7 801.17 229.92C801.17 231.14 802.17 232.16 803.39 232.16C804.61 232.16 805.63 231.14 805.63 229.92V228.6H808.37V229.92C808.37 231.14 809.39 232.16 810.61 232.16ZM804.71 222.72V224.06H803.41C802.67 224.06 802.07 223.46 802.07 222.72C802.07 222 802.67 221.4 803.41 221.4C804.13 221.4 804.71 222 804.71 222.72ZM810.61 221.4C811.33 221.4 811.91 222 811.91 222.72C811.91 223.46 811.33 224.06 810.61 224.06H809.29V222.72C809.29 222 809.87 221.4 810.61 221.4ZM808.37 227.7H805.63V224.96H808.37V227.7ZM804.71 228.6V229.92C804.71 230.66 804.11 231.26 803.39 231.26C802.65 231.26 802.07 230.66 802.07 229.92C802.07 229.2 802.65 228.6 803.37 228.6H804.71ZM810.61 228.6C811.35 228.6 811.91 229.2 811.91 229.92C811.91 230.66 811.33 231.26 810.61 231.26C809.87 231.26 809.29 230.66 809.29 229.92V228.6H810.61Z" fill="black"/>
<path d="M900.891 233H902.539L897.707 227.4L902.155 222.328H900.491L895.771 227.848V222.328H894.443V233H895.771V229.416L896.843 228.2L900.891 233Z" fill="black"/>
<path d="M405.998 123H407.47L403.166 112.328H401.518L397.23 123H398.702L399.646 120.632H405.054L405.998 123ZM402.35 113.512L404.654 119.448H400.03L402.35 113.512ZM408.817 123H410.017V112.328H408.817V123ZM414.363 123.192C415.067 123.192 415.499 122.984 415.803 122.696L415.451 121.8C415.291 121.976 414.971 122.12 414.635 122.12C414.107 122.12 413.851 121.704 413.851 121.128V116.328H415.419V115.272H413.851V113.16H412.651V115.272H411.371V116.328H412.651V121.384C412.651 122.536 413.227 123.192 414.363 123.192Z" fill="black"/>
<path d="M497.137 123H498.465V112.328H497.297L494.625 115.08L495.425 115.896L497.137 114.088V123Z" fill="black"/>
<path d="M318.61 177.16C319.83 177.16 320.83 176.14 320.83 174.92C320.83 173.7 319.83 172.7 318.61 172.7H317.29V169.96H318.61C319.83 169.96 320.83 168.94 320.83 167.72C320.83 166.5 319.83 165.5 318.61 165.5C317.39 165.5 316.37 166.5 316.37 167.72V169.06H313.63V167.72C313.63 166.5 312.63 165.5 311.41 165.5C310.19 165.5 309.17 166.5 309.17 167.72C309.17 168.94 310.19 169.96 311.41 169.96H312.71V172.7H311.39C310.17 172.7 309.17 173.7 309.17 174.92C309.17 176.14 310.17 177.16 311.39 177.16C312.61 177.16 313.63 176.14 313.63 174.92V173.6H316.37V174.92C316.37 176.14 317.39 177.16 318.61 177.16ZM312.71 167.72V169.06H311.41C310.67 169.06 310.07 168.46 310.07 167.72C310.07 167 310.67 166.4 311.41 166.4C312.13 166.4 312.71 167 312.71 167.72ZM318.61 166.4C319.33 166.4 319.91 167 319.91 167.72C319.91 168.46 319.33 169.06 318.61 169.06H317.29V167.72C317.29 167 317.87 166.4 318.61 166.4ZM316.37 172.7H313.63V169.96H316.37V172.7ZM312.71 173.6V174.92C312.71 175.66 312.11 176.26 311.39 176.26C310.65 176.26 310.07 175.66 310.07 174.92C310.07 174.2 310.65 173.6 311.37 173.6H312.71ZM318.61 173.6C319.35 173.6 319.91 174.2 319.91 174.92C319.91 175.66 319.33 176.26 318.61 176.26C317.87 176.26 317.29 175.66 317.29 174.92V173.6H318.61Z" fill="black"/>
<path d="M405.998 177H407.47L403.166 166.328H401.518L397.23 177H398.702L399.646 174.632H405.054L405.998 177ZM402.35 167.512L404.654 173.448H400.03L402.35 167.512ZM408.817 177H410.017V166.328H408.817V177ZM414.363 177.192C415.067 177.192 415.499 176.984 415.803 176.696L415.451 175.8C415.291 175.976 414.971 176.12 414.635 176.12C414.107 176.12 413.851 175.704 413.851 175.128V170.328H415.419V169.272H413.851V167.16H412.651V169.272H411.371V170.328H412.651V175.384C412.651 176.536 413.227 177.192 414.363 177.192Z" fill="black"/>
<path d="M493.161 177H500.489V175.816H495.257C498.233 173.464 500.441 171.48 500.441 169.304C500.441 167.176 498.633 166.168 496.857 166.168C495.353 166.168 493.961 166.776 493.145 167.848L493.961 168.696C494.585 167.896 495.577 167.352 496.857 167.352C497.961 167.352 499.081 167.944 499.081 169.304C499.081 171.144 497.001 172.92 493.161 175.944V177Z" fill="black"/>
<path d="M318.61 232.16C319.83 232.16 320.83 231.14 320.83 229.92C320.83 228.7 319.83 227.7 318.61 227.7H317.29V224.96H318.61C319.83 224.96 320.83 223.94 320.83 222.72C320.83 221.5 319.83 220.5 318.61 220.5C317.39 220.5 316.37 221.5 316.37 222.72V224.06H313.63V222.72C313.63 221.5 312.63 220.5 311.41 220.5C310.19 220.5 309.17 221.5 309.17 222.72C309.17 223.94 310.19 224.96 311.41 224.96H312.71V227.7H311.39C310.17 227.7 309.17 228.7 309.17 229.92C309.17 231.14 310.17 232.16 311.39 232.16C312.61 232.16 313.63 231.14 313.63 229.92V228.6H316.37V229.92C316.37 231.14 317.39 232.16 318.61 232.16ZM312.71 222.72V224.06H311.41C310.67 224.06 310.07 223.46 310.07 222.72C310.07 222 310.67 221.4 311.41 221.4C312.13 221.4 312.71 222 312.71 222.72ZM318.61 221.4C319.33 221.4 319.91 222 319.91 222.72C319.91 223.46 319.33 224.06 318.61 224.06H317.29V222.72C317.29 222 317.87 221.4 318.61 221.4ZM316.37 227.7H313.63V224.96H316.37V227.7ZM312.71 228.6V229.92C312.71 230.66 312.11 231.26 311.39 231.26C310.65 231.26 310.07 230.66 310.07 229.92C310.07 229.2 310.65 228.6 311.37 228.6H312.71ZM318.61 228.6C319.35 228.6 319.91 229.2 319.91 229.92C319.91 230.66 319.33 231.26 318.61 231.26C317.87 231.26 317.29 230.66 317.29 229.92V228.6H318.61Z" fill="black"/>
<path d="M405.998 232H407.47L403.166 221.328H401.518L397.23 232H398.702L399.646 229.632H405.054L405.998 232ZM402.35 222.512L404.654 228.448H400.03L402.35 222.512ZM408.817 232H410.017V221.328H408.817V232ZM414.363 232.192C415.067 232.192 415.499 231.984 415.803 231.696L415.451 230.8C415.291 230.976 414.971 231.12 414.635 231.12C414.107 231.12 413.851 230.704 413.851 230.128V225.328H415.419V224.272H413.851V222.16H412.651V224.272H411.371V225.328H412.651V230.384C412.651 231.536 413.227 232.192 414.363 232.192Z" fill="black"/>
<path d="M493.511 230.432C494.167 231.392 495.495 232.192 497.303 232.192C499.655 232.192 501.079 230.896 501.079 229.12C501.079 227.408 499.591 226.576 498.615 226.496C499.623 226.32 500.919 225.552 500.919 224.016C500.919 222.208 499.351 221.168 497.303 221.168C495.655 221.168 494.423 221.888 493.655 222.816L494.391 223.648C495.175 222.8 496.039 222.352 497.207 222.352C498.503 222.352 499.591 222.992 499.591 224.176C499.591 225.408 498.455 225.936 497.111 225.936C496.679 225.936 496.183 225.936 496.007 225.92V227.136C496.167 227.12 496.663 227.12 497.111 227.12C498.679 227.12 499.767 227.68 499.767 229.008C499.767 230.24 498.823 231.008 497.271 231.008C496.007 231.008 494.919 230.432 494.295 229.6L493.511 230.432Z" fill="black"/>
<path d="M312.122 283.984H317.882V282.4H312.122V283.984Z" fill="black"/>
<rect x="381.5" y="262.5" width="71" height="39" rx="3.5" fill="#F3F3F3" stroke="#CECECE"/>
<path d="M395.639 285.496C396.519 286.488 397.879 287.192 399.735 287.192C402.615 287.192 403.671 285.608 403.671 284.056C403.671 281.816 401.687 281.272 399.943 280.808C398.583 280.44 397.351 280.12 397.351 279.048C397.351 278.04 398.263 277.352 399.543 277.352C400.711 277.352 401.831 277.752 402.631 278.632L403.431 277.656C402.535 276.712 401.271 276.168 399.639 276.168C397.543 276.168 395.975 277.368 395.975 279.128C395.975 281.224 397.879 281.704 399.591 282.152C400.999 282.536 402.295 282.888 402.295 284.168C402.295 284.984 401.687 286.008 399.783 286.008C398.279 286.008 397.127 285.272 396.423 284.488L395.639 285.496ZM406.806 289.944V285.832C407.43 286.696 408.358 287.192 409.414 287.192C411.446 287.192 412.854 285.624 412.854 283.128C412.854 280.616 411.446 279.08 409.414 279.08C408.326 279.08 407.366 279.64 406.806 280.424V279.272H405.606V289.944H406.806ZM411.59 283.128C411.59 284.84 410.662 286.12 409.11 286.12C408.166 286.12 407.222 285.544 406.806 284.872V281.384C407.222 280.712 408.166 280.152 409.11 280.152C410.662 280.152 411.59 281.416 411.59 283.128ZM419.626 287H420.826V281.688C420.826 279.816 419.466 279.08 417.834 279.08C416.57 279.08 415.578 279.496 414.746 280.36L415.306 281.192C415.994 280.456 416.746 280.12 417.674 280.12C418.794 280.12 419.626 280.712 419.626 281.752V283.144C419.002 282.424 418.122 282.088 417.066 282.088C415.754 282.088 414.362 282.904 414.362 284.632C414.362 286.312 415.754 287.192 417.066 287.192C418.106 287.192 418.986 286.824 419.626 286.12V287ZM419.626 285.368C419.162 286.008 418.346 286.328 417.498 286.328C416.378 286.328 415.594 285.624 415.594 284.648C415.594 283.656 416.378 282.952 417.498 282.952C418.346 282.952 419.162 283.272 419.626 283.912V285.368ZM422.783 283.128C422.783 285.432 424.335 287.192 426.639 287.192C428.047 287.192 428.879 286.616 429.471 285.848L428.671 285.112C428.159 285.8 427.503 286.12 426.703 286.12C425.055 286.12 424.031 284.84 424.031 283.128C424.031 281.416 425.055 280.152 426.703 280.152C427.503 280.152 428.159 280.456 428.671 281.16L429.471 280.424C428.879 279.656 428.047 279.08 426.639 279.08C424.335 279.08 422.783 280.84 422.783 283.128ZM430.705 283.128C430.705 285.544 432.353 287.192 434.641 287.192C435.905 287.192 436.945 286.776 437.713 286.008L437.137 285.224C436.529 285.848 435.633 286.2 434.753 286.2C433.089 286.2 432.065 284.984 431.969 283.528H438.225V283.224C438.225 280.904 436.849 279.08 434.513 279.08C432.305 279.08 430.705 280.888 430.705 283.128ZM434.497 280.072C436.257 280.072 437.025 281.496 437.041 282.648H431.969C432.033 281.464 432.849 280.072 434.497 280.072Z" fill="black"/>
<path opacity="0.5" fill-rule="evenodd" clip-rule="evenodd" d="M944.976 283.088V288.2H943.608V283.088H939V281.84H943.608V276.872H944.976V281.84H949.584V283.088H944.976Z" fill="#1E1E1E"/>
<rect x="964.933" y="262.5" width="71" height="39" rx="3.5" fill="#F3F3F3" stroke="#CECECE"/>
<path d="M979.072 285.496C979.952 286.488 981.312 287.192 983.168 287.192C986.048 287.192 987.104 285.608 987.104 284.056C987.104 281.816 985.12 281.272 983.376 280.808C982.016 280.44 980.784 280.12 980.784 279.048C980.784 278.04 981.696 277.352 982.976 277.352C984.144 277.352 985.264 277.752 986.064 278.632L986.864 277.656C985.968 276.712 984.704 276.168 983.072 276.168C980.976 276.168 979.408 277.368 979.408 279.128C979.408 281.224 981.312 281.704 983.024 282.152C984.432 282.536 985.728 282.888 985.728 284.168C985.728 284.984 985.12 286.008 983.216 286.008C981.712 286.008 980.56 285.272 979.856 284.488L979.072 285.496ZM990.239 289.944V285.832C990.863 286.696 991.791 287.192 992.847 287.192C994.879 287.192 996.287 285.624 996.287 283.128C996.287 280.616 994.879 279.08 992.847 279.08C991.759 279.08 990.799 279.64 990.239 280.424V279.272H989.039V289.944H990.239ZM995.023 283.128C995.023 284.84 994.095 286.12 992.543 286.12C991.599 286.12 990.655 285.544 990.239 284.872V281.384C990.655 280.712 991.599 280.152 992.543 280.152C994.095 280.152 995.023 281.416 995.023 283.128ZM1003.06 287H1004.26V281.688C1004.26 279.816 1002.9 279.08 1001.27 279.08C1000 279.08 999.011 279.496 998.179 280.36L998.739 281.192C999.427 280.456 1000.18 280.12 1001.11 280.12C1002.23 280.12 1003.06 280.712 1003.06 281.752V283.144C1002.43 282.424 1001.55 282.088 1000.5 282.088C999.187 282.088 997.795 282.904 997.795 284.632C997.795 286.312 999.187 287.192 1000.5 287.192C1001.54 287.192 1002.42 286.824 1003.06 286.12V287ZM1003.06 285.368C1002.59 286.008 1001.78 286.328 1000.93 286.328C999.811 286.328 999.027 285.624 999.027 284.648C999.027 283.656 999.811 282.952 1000.93 282.952C1001.78 282.952 1002.59 283.272 1003.06 283.912V285.368ZM1006.22 283.128C1006.22 285.432 1007.77 287.192 1010.07 287.192C1011.48 287.192 1012.31 286.616 1012.9 285.848L1012.1 285.112C1011.59 285.8 1010.94 286.12 1010.14 286.12C1008.49 286.12 1007.46 284.84 1007.46 283.128C1007.46 281.416 1008.49 280.152 1010.14 280.152C1010.94 280.152 1011.59 280.456 1012.1 281.16L1012.9 280.424C1012.31 279.656 1011.48 279.08 1010.07 279.08C1007.77 279.08 1006.22 280.84 1006.22 283.128ZM1014.14 283.128C1014.14 285.544 1015.79 287.192 1018.07 287.192C1019.34 287.192 1020.38 286.776 1021.15 286.008L1020.57 285.224C1019.96 285.848 1019.07 286.2 1018.19 286.2C1016.52 286.2 1015.5 284.984 1015.4 283.528H1021.66V283.224C1021.66 280.904 1020.28 279.08 1017.95 279.08C1015.74 279.08 1014.14 280.888 1014.14 283.128ZM1017.93 280.072C1019.69 280.072 1020.46 281.496 1020.47 282.648H1015.4C1015.47 281.464 1016.28 280.072 1017.93 280.072Z" fill="black"/>
<path d="M807.137 289H808.465V278.328H807.297L804.625 281.08L805.425 281.896L807.137 280.088V289Z" fill="black"/>
<path d="M899.116 288.28C899.116 288.76 899.516 289.16 899.996 289.16C900.476 289.16 900.876 288.76 900.876 288.28C900.876 287.8 900.476 287.4 899.996 287.4C899.516 287.4 899.116 287.8 899.116 288.28Z" fill="black"/>
</svg>
