<svg width="19" height="12" viewBox="0 0 19 12" fill="none" xmlns="http://www.w3.org/2000/svg">
<g opacity="0.2">
<path d="M9.41791 0C4.03857 0 0.272095 5.918 0.272095 5.918C0.272095 5.918 3.01574 11.836 9.41791 11.836C15.8735 11.836 18.5637 5.918 18.5637 5.918C18.5637 5.918 14.8517 0 9.41791 0ZM9.41791 9.68344C7.31983 9.68344 5.65247 8.01608 5.65247 5.918C5.65247 3.81992 7.31983 2.15256 9.41791 2.15256C11.516 2.15256 13.1834 3.81992 13.1834 5.918C13.1834 8.01608 11.516 9.68344 9.41791 9.68344Z" fill="black"/>
<path d="M11.0318 5.91798C11.0318 6.80966 10.3095 7.53189 9.41786 7.53189C8.52618 7.53189 7.80396 6.80966 7.80396 5.91798C7.80396 5.02631 8.52618 4.30408 9.41786 4.30408C10.3095 4.30408 11.0318 5.02631 11.0318 5.91798Z" fill="black"/>
</g>
</svg>
