<svg width="18" height="14" viewBox="0 0 18 14" fill="none" xmlns="http://www.w3.org/2000/svg">
<path d="M16.3624 0.26872C16.1238 0.305251 15.9033 0.425075 15.7373 0.607732C12.1612 4.36164 9.48384 7.45941 6.07136 11.082L2.18704 7.64515C1.96939 7.45226 1.68757 7.35728 1.40293 7.38212C1.1197 7.40696 0.856019 7.5487 0.671822 7.77813C0.487654 8.00608 0.398359 8.30124 0.423472 8.59935C0.447191 8.89744 0.583924 9.17214 0.802974 9.3636L5.44629 13.4785C5.87323 13.8555 6.50525 13.8248 6.89733 13.4084C10.7299 9.38697 13.4676 6.16202 17.2555 2.1859C17.5876 1.84835 17.6755 1.32521 17.4718 0.888285C17.2695 0.452816 16.8216 0.202966 16.3625 0.26873L16.3624 0.26872Z" fill="#35B986"/>
</svg>
