<svg width="379" height="331" viewBox="0 0 379 331" fill="none" xmlns="http://www.w3.org/2000/svg">
    <path opacity="0.05" fill-rule="evenodd" clip-rule="evenodd" d="M295.994 76.6454C217.699 77.1179 169.997 15.5368 132.752 3.67416C76.7965 -14.1229 3.00003 31.9353 50.5954 159.331C98.1908 286.727 122.842 319.133 208.564 330C277.157 338.7 337.56 288.85 361.651 249.066C399.267 186.83 374.282 76.1729 295.994 76.6454Z" fill="black"/>
    <path fill-rule="evenodd" clip-rule="evenodd" d="M0.864258 330.139H366.905L341.787 323.625H24.0351L0.864258 330.139Z" fill="#BCBCBC"/>
    <path fill-rule="evenodd" clip-rule="evenodd" d="M295.2 130.843H296.46C296.042 130.781 295.617 130.781 295.2 130.843Z" fill="white"/>
    <path fill-rule="evenodd" clip-rule="evenodd" d="M275.179 130.843H276.439C276.021 130.781 275.596 130.781 275.179 130.843Z" fill="white"/>
    <path fill-rule="evenodd" clip-rule="evenodd" d="M207.695 317.602L159.419 323.631H211.657V317.602H207.695Z" fill="#484848"/>
    <path fill-rule="evenodd" clip-rule="evenodd" d="M215.614 317.602L263.889 323.631H211.657V317.602H215.614Z" fill="#484848"/>
    <path d="M215.601 244.455H207.695V317.602H215.601V244.455Z" fill="url(#paint0_linear)"/>
    <path d="M215.406 244.436H207.5V317.583H215.406V244.436Z" fill="#484848"/>
    <path d="M218.902 248.216H204.394V261.729H218.902V248.216Z" fill="url(#paint1_linear)"/>
    <path fill-rule="evenodd" clip-rule="evenodd" d="M137.981 323.625H145.49L116.126 214.026H108.617L137.981 323.625Z" fill="#181818"/>
    <path fill-rule="evenodd" clip-rule="evenodd" d="M79.0266 323.625H71.5109L100.874 214.026H108.39L79.0266 323.625Z" fill="#181818"/>
    <path fill-rule="evenodd" clip-rule="evenodd" d="M311.812 323.625H319.328L289.958 214.026H282.449L311.812 323.625Z" fill="#181818"/>
    <path fill-rule="evenodd" clip-rule="evenodd" d="M252.858 323.625H245.349L274.713 214.026H282.222L252.858 323.625Z" fill="#181818"/>
    <path fill-rule="evenodd" clip-rule="evenodd" d="M100.295 323.625H107.804L78.4407 214.026H70.9249L100.295 323.625Z" fill="#828282"/>
    <path fill-rule="evenodd" clip-rule="evenodd" d="M190.49 311.844C190.49 311.844 191.668 317.218 191.75 319.284C191.748 320.75 191.536 322.207 191.12 323.612H157.485C157.485 323.612 153.075 323.852 151.96 322.157C150.845 320.462 152.558 318.673 157.044 316.89C164.446 313.942 176.781 311.85 176.781 311.85L178.256 304.706L190.49 311.844Z" fill="#181818"/>
    <path fill-rule="evenodd" clip-rule="evenodd" d="M132.481 311.844C132.481 311.844 133.659 317.218 133.741 319.284C133.739 320.75 133.527 322.207 133.111 323.612H99.4822C99.4822 323.612 95.0723 323.852 93.9572 322.157C92.8421 320.462 94.5557 318.673 99.0412 316.89C106.443 313.942 118.779 311.85 118.779 311.85L120.253 304.706L132.481 311.844Z" fill="#181818"/>
    <path d="M159.419 238.01H142.498V245.601H159.419V238.01Z" fill="url(#paint2_linear)"/>
    <path fill-rule="evenodd" clip-rule="evenodd" d="M271.424 150.851H201.2C199.492 150.851 198.1 152.514 198.094 154.587V154.707C197.943 163.864 197.312 173.007 196.204 182.099C195.352 189.418 194.035 196.675 192.26 203.827C190.452 210.883 188.071 217.371 185.122 222.197C181.84 227.548 177.439 232.126 172.22 235.616C167.017 239.056 161.151 241.135 155.28 241.135C151.276 241.137 147.332 240.157 143.795 238.281C142.227 237.462 140.406 238.331 139.726 240.234C139.045 242.136 139.77 244.341 141.338 245.16C145.165 247.187 149.387 248.357 153.711 248.587L153.799 248.631H224.175L255.378 229.807L265.634 212.212L271.934 164.793L271.424 150.851Z" fill="url(#paint3_linear)"/>
    <path fill-rule="evenodd" clip-rule="evenodd" d="M198.837 141.786L165.587 190.446L129.274 197.773L131.322 207.342C131.322 207.342 171.918 207.122 175.673 206.24C179.427 205.358 209.062 166.689 209.062 166.689L198.837 141.786Z" fill="url(#paint4_linear)"/>
    <path fill-rule="evenodd" clip-rule="evenodd" d="M198.944 141.748L165.694 190.408L129.381 197.735L131.429 207.304C131.429 207.304 172.025 207.084 175.78 206.202C179.534 205.32 209.169 166.651 209.169 166.651L198.944 141.748Z" fill="url(#paint5_linear)"/>
    <path fill-rule="evenodd" clip-rule="evenodd" d="M174.501 219.495C163.671 221.044 158.077 222.147 153.365 228.113C148.652 234.079 117.84 307.214 117.84 307.214C117.84 307.214 122.25 310.95 127.705 311.403L133.186 311.857L172.075 245.122L174.501 219.495Z" fill="url(#paint6_linear)"/>
    <path fill-rule="evenodd" clip-rule="evenodd" d="M157.151 234.52C158.367 245.349 155.589 257.722 154.379 264.016C153.17 270.309 132.292 290.091 127.649 300.555C126.176 303.798 125.014 307.173 124.178 310.635C125.317 311.017 126.496 311.264 127.693 311.372L133.174 311.825L172.063 245.091L174.495 219.463C167.886 220.408 163.23 221.196 159.526 223.016C157.52 226.496 156.687 230.53 157.151 234.52Z" fill="url(#paint7_linear)"/>
    <path fill-rule="evenodd" clip-rule="evenodd" d="M234.154 131.082C234.154 131.082 246.622 134.78 252.462 141.792C258.301 148.804 245.053 230.721 245.053 230.721L240.889 230.242L182.3 223.552C182.3 223.552 190.162 149.465 196.462 143.272C202.762 137.08 213.05 133.161 213.05 133.161L234.154 131.082Z" fill="url(#paint8_linear)"/>
    <path fill-rule="evenodd" clip-rule="evenodd" d="M236.063 156.452C236.063 156.452 240.12 163.817 239.9 169.115C238.885 193.785 183.547 212.584 183.547 212.584L182.287 223.539L245.04 230.702L254.188 171.389L236.063 156.452Z" fill="url(#paint9_linear)"/>
    <path fill-rule="evenodd" clip-rule="evenodd" d="M243.604 230.576C243.604 230.576 192.84 208.369 172.554 218.197C157.321 225.536 176.529 311.214 176.529 311.214C176.529 311.214 182.256 313.867 186.792 313.426L191.328 312.985L194.597 238.13L225.202 244.82L242.105 238.413L243.604 230.576Z" fill="url(#paint10_linear)"/>
    <path fill-rule="evenodd" clip-rule="evenodd" d="M242.149 238.388L243.623 230.576C235.951 227.328 228.118 224.472 220.156 222.021C219.299 224.113 218.127 226.431 216.823 227.514C214.177 229.688 189.652 225.341 182.911 227.514C176.17 229.688 181.475 234.362 185.343 239.761C189.211 245.16 180.259 256.865 182.911 271.67L185.563 286.475L186.458 313.451H186.811L191.347 313.01L194.616 238.155L225.221 244.845L242.149 238.388Z" fill="url(#paint11_linear)"/>
    <path fill-rule="evenodd" clip-rule="evenodd" d="M223.734 195.965C220.728 195.394 217.652 195.281 214.612 195.631C209.837 196.261 207.128 200.583 207.128 200.583C207.128 200.583 221.126 204.47 223.236 204.526C225.347 204.583 228.579 202.775 228.579 202.775L223.734 195.965Z" fill="url(#paint12_linear)"/>
    <path d="M211.494 238.01H194.572V245.954H211.494V238.01Z" fill="url(#paint13_linear)"/>
    <path fill-rule="evenodd" clip-rule="evenodd" d="M267.001 154.581V154.701C266.851 163.858 266.22 173.001 265.112 182.092C264.26 189.412 262.942 196.669 261.168 203.821C259.36 210.876 256.978 217.365 254.03 222.191C250.745 227.546 246.339 232.126 241.115 235.616C235.912 239.056 230.047 241.135 224.175 241.135C220.171 241.137 216.227 240.157 212.69 238.281C211.122 237.462 209.301 238.331 208.621 240.234C207.94 242.136 208.665 244.341 210.233 245.16C214.525 247.438 219.31 248.63 224.169 248.631C231.25 248.631 238.085 246.156 244.076 242.199C250.124 238.15 255.219 232.834 259.007 226.62C262.673 220.597 265.307 213.125 267.266 205.288C270.214 193.539 271.676 180.933 272.419 171.206C273.163 161.479 273.188 154.663 273.188 154.581C273.188 152.508 271.815 150.801 270.107 150.801C268.4 150.801 267.008 152.464 267.001 154.537V154.581Z" fill="url(#paint14_linear)"/>
    <path fill-rule="evenodd" clip-rule="evenodd" d="M252.858 142.334C252.858 142.334 271.229 177.928 270.599 183.793C269.969 189.658 227.829 203.669 227.829 203.669C227.829 203.669 223.111 196.406 222.915 195.353C222.638 193.873 252.298 177.714 252.298 177.714C252.298 177.714 236.611 162.33 235.502 154.222C234.394 146.114 241.853 140.488 246.559 140.488C251.265 140.488 252.858 142.334 252.858 142.334Z" fill="url(#paint15_linear)"/>
    <path fill-rule="evenodd" clip-rule="evenodd" d="M216.483 131.082L213.056 133.161C213.056 133.161 212.098 134.213 215.229 137.08C218.36 139.946 222.474 139.6 226.821 137.634C231.168 135.669 234.154 131.082 234.154 131.082L231.439 130.408L216.483 131.082Z" fill="white"/>
    <path fill-rule="evenodd" clip-rule="evenodd" d="M214.266 120.373L216.483 131.083C216.483 131.083 218.077 133.111 222.569 133.161C227.061 133.212 231.439 130.408 231.439 130.408L231.571 119.503L214.266 120.373Z" fill="url(#paint16_linear)"/>
    <path fill-rule="evenodd" clip-rule="evenodd" d="M208.337 81.6729C208.337 81.6729 207.342 96.9752 207.165 102.33C206.989 107.685 213.598 109.052 213.598 109.052L223.299 98.9093L219.015 82.9202L208.337 81.6729Z" fill="#292929"/>
    <path fill-rule="evenodd" clip-rule="evenodd" d="M208.388 99.9422C208.703 105.971 209.131 113.254 211.657 119.623C214.183 125.992 226.726 127.378 230.922 122.319C235.118 117.261 236.592 109.178 236.592 109.178C236.592 109.178 240.914 109.48 242.035 106.248C243.157 103.017 242.898 98.1909 240.882 97.2396C238.866 96.2883 236.945 98.4996 236.945 98.4996C236.945 98.4996 237.676 92.2627 233.241 88.3379C228.805 84.4131 211.865 85.7486 210.926 86.555C209.988 87.3614 208.073 93.9133 208.388 99.9422Z" fill="url(#paint17_linear)"/>
    <path fill-rule="evenodd" clip-rule="evenodd" d="M234.066 106.412C234.066 106.412 235.679 98.6699 235.093 95.1734C234.507 91.677 232.573 89.3587 228.566 87.9538C224.56 86.5489 213.069 87.8971 210.498 87.1537C207.928 86.4103 206.454 85.1756 207.348 80.0916C208.243 75.0076 215.576 67.8699 225.964 68.9408C236.353 70.0118 241.279 74.6926 244.688 77.8362C248.096 80.9799 245.985 89.5603 245.053 96.7358C244.121 103.911 241.607 113.745 239.471 117.179C237.336 120.612 232.63 119.837 232.63 119.837L236.498 108.498C236.498 108.498 238.224 109.266 240.221 106.916C242.218 104.567 243.012 100.415 241.859 98.4116C240.706 96.4082 237.499 96.8807 236.479 99.4573C235.458 102.034 234.066 106.412 234.066 106.412Z" fill="#292929"/>
    <path fill-rule="evenodd" clip-rule="evenodd" d="M209.087 202.158L224.522 205.144L217.516 205.188H209.087V202.158Z" fill="#181818"/>
    <path fill-rule="evenodd" clip-rule="evenodd" d="M209.371 202.504L224.402 205.143V203.008L209.371 200.368V202.504Z" fill="#828282"/>
    <path fill-rule="evenodd" clip-rule="evenodd" d="M159.621 200.337C158.65 200.337 157.863 201.414 157.863 202.75C157.863 204.085 158.65 205.162 159.621 205.162H209.452V200.337H159.621Z" fill="#828282"/>
    <path fill-rule="evenodd" clip-rule="evenodd" d="M41.3344 323.625H33.825L63.1886 214.026H70.7043L41.3344 323.625Z" fill="url(#paint18_linear)"/>
    <path fill-rule="evenodd" clip-rule="evenodd" d="M41.133 323.795H33.6235L62.9872 214.196H70.5029L41.133 323.795Z" fill="#828282"/>
    <path fill-rule="evenodd" clip-rule="evenodd" d="M51.6488 238.054C54.049 255.158 50.9621 271.103 44.2212 282.033C34.7336 273.383 27.3817 258.9 24.9815 241.796C22.5812 224.692 25.6682 208.747 32.409 197.817C41.9029 206.466 49.2485 220.95 51.6488 238.054Z" fill="#BCBCBC"/>
    <path fill-rule="evenodd" clip-rule="evenodd" d="M30.4816 234.985C30.6455 234.927 30.8256 235.013 30.8838 235.177C33.6414 242.946 35.9213 250.877 37.7107 258.925C39.3076 265.949 39.9039 273.63 40.1019 279.549C40.2009 282.51 40.2003 285.033 40.175 286.816C40.1623 287.707 40.1434 288.414 40.1277 288.898C40.1198 289.141 40.1128 289.327 40.1077 289.453C40.1051 289.516 40.103 289.564 40.1016 289.596L40.0999 289.633L40.0994 289.646C40.0993 289.646 40.0993 289.646 39.7847 289.631L40.0994 289.646C40.091 289.819 39.9434 289.954 39.7696 289.945C39.5958 289.937 39.4617 289.789 39.4701 289.616L39.488 289.616C39.4701 289.616 39.4701 289.616 39.4701 289.616L39.4706 289.604L39.4722 289.569C39.4736 289.537 39.4757 289.49 39.4782 289.428C39.4832 289.303 39.4902 289.118 39.4981 288.878C39.5137 288.397 39.5324 287.694 39.5451 286.807C39.5703 285.032 39.5709 282.519 39.4723 279.57C39.2749 273.669 38.6806 266.032 37.0962 259.064L37.0959 259.063C35.312 251.04 33.0392 243.133 30.2901 235.387C30.2319 235.223 30.3176 235.043 30.4816 234.985Z" fill="#181818"/>
    <path fill-rule="evenodd" clip-rule="evenodd" d="M48.1499 230.402C48.3226 230.422 48.4462 230.579 48.4259 230.751L48.113 230.715L47.8002 230.678C47.8205 230.505 47.9771 230.382 48.1499 230.402ZM39.8854 287.867C39.5719 287.837 39.5719 287.837 39.5719 287.837L39.5902 287.649C39.6024 287.526 39.6205 287.344 39.6444 287.109C39.6921 286.637 39.763 285.949 39.8555 285.086C40.0405 283.358 40.312 280.927 40.6579 278.108C41.3496 272.472 42.3397 265.283 43.5324 259.086C44.7215 252.908 45.7885 245.806 46.5584 240.247C46.9433 237.468 47.2537 235.075 47.468 233.378C47.5751 232.529 47.6582 231.854 47.7145 231.391C47.7426 231.159 47.7641 230.981 47.7785 230.861L47.8002 230.678C47.8002 230.678 47.8002 230.678 48.113 230.715C48.4259 230.751 48.4259 230.751 48.4259 230.751L48.404 230.935C48.3895 231.056 48.3681 231.235 48.3399 231.467C48.2835 231.931 48.2003 232.607 48.093 233.457C47.8785 235.156 47.5677 237.552 47.1824 240.334C46.412 245.897 45.3433 253.011 44.1511 259.205C42.9624 265.381 41.9743 272.553 41.2832 278.185C40.9378 281 40.6667 283.428 40.4819 285.153C40.3896 286.015 40.3188 286.701 40.2711 287.172C40.2473 287.407 40.2293 287.589 40.2172 287.711L40.199 287.896C40.199 287.897 40.199 287.897 39.8854 287.867ZM39.8854 287.867L39.5719 287.837C39.5552 288.01 39.6821 288.164 39.8552 288.18C40.0284 288.197 40.1823 288.07 40.199 287.897L39.8854 287.867Z" fill="#181818"/>
    <path fill-rule="evenodd" clip-rule="evenodd" d="M52.0517 257.37C52.2151 257.429 52.299 257.61 52.2393 257.774L51.9435 257.665L51.6477 257.557C51.7075 257.394 51.8884 257.31 52.0517 257.37ZM39.8918 288.648C39.5971 288.537 39.5971 288.537 39.5971 288.537L39.7156 288.224C39.793 288.019 39.9066 287.72 40.0517 287.34C40.3419 286.58 40.7579 285.496 41.2614 284.2C42.2682 281.609 43.6251 278.171 45.0249 274.782C46.4215 271.4 48.077 267.095 49.384 263.633C50.0373 261.902 50.6033 260.383 51.0059 259.297C51.2072 258.754 51.3677 258.319 51.4778 258.019C51.5329 257.87 51.5753 257.754 51.604 257.676L51.6477 257.557C51.6477 257.557 51.6477 257.557 51.9435 257.665C52.2393 257.774 52.2393 257.774 52.2393 257.774L52.1955 257.893C52.1667 257.972 52.1241 258.087 52.069 258.237C51.9587 258.537 51.7981 258.972 51.5966 259.516C51.1937 260.603 50.6272 262.123 49.9733 263.855C48.6659 267.318 47.0076 271.631 45.6071 275.022C44.2097 278.405 42.8546 281.84 41.8486 284.429C41.3457 285.723 40.9301 286.806 40.6403 287.565C40.4954 287.945 40.3819 288.243 40.3047 288.447L40.1867 288.759C40.1867 288.759 40.1866 288.759 39.8918 288.648ZM39.8918 288.648L39.5971 288.537C39.5358 288.7 39.618 288.882 39.7808 288.943C39.9436 289.004 40.1254 288.922 40.1867 288.759L39.8918 288.648Z" fill="#181818"/>
    <path fill-rule="evenodd" clip-rule="evenodd" d="M36.8993 168.907C38.4743 180.423 36.3575 191.145 31.7964 198.479C25.4336 192.632 20.5197 182.874 18.9447 171.389C17.3698 159.904 19.4865 149.151 24.0476 141.818C30.4105 147.632 35.3306 157.391 36.8993 168.907Z" fill="#484848"/>
    <path fill-rule="evenodd" clip-rule="evenodd" d="M49.4235 195.442C48.7935 182.048 47.9305 157.869 47.4202 143.783C56.7125 155.293 62.6784 172.92 62.6784 192.707C62.6784 212.268 56.851 229.713 47.7415 241.216C48.7431 227.709 50.0031 207.638 49.4235 195.442Z" fill="#484848"/>
    <path fill-rule="evenodd" clip-rule="evenodd" d="M31.3745 192.701C31.3745 172.623 37.5043 154.763 47.0296 143.272C47.1619 143.436 47.2942 143.613 47.4265 143.776C47.9368 157.869 48.8314 182.048 49.4299 195.435C50.0032 207.638 48.7432 227.709 47.7415 241.223C47.5021 241.525 47.269 241.853 47.0296 242.136C37.498 230.639 31.3745 212.779 31.3745 192.701Z" fill="#828282"/>
    <path fill-rule="evenodd" clip-rule="evenodd" d="M29.9633 214.266C35.1481 225.713 36.2632 237.475 33.8125 246.49C25.4148 242.401 17.3069 233.802 12.1158 222.355C6.92474 210.908 5.81597 199.146 8.26661 190.131C16.6643 194.22 24.8037 202.819 29.9633 214.266Z" fill="#484848"/>
    <path fill-rule="evenodd" clip-rule="evenodd" d="M22.5674 323.581H57.0276L62.1431 278.921H17.4519L22.5674 323.581Z" fill="#9E9E9E"/>
    <path fill-rule="evenodd" clip-rule="evenodd" d="M62.1429 278.921L57.0274 323.581H43.8418L47.6595 278.921H62.1429Z" fill="#313131"/>
    <path d="M15.984 288.831H64.1653V277.825H15.984V288.831Z" fill="#DBDBDB"/>
    <path d="M46.3366 201.773C47.3178 201.773 48.1132 200.357 48.1132 198.611C48.1132 196.864 47.3178 195.448 46.3366 195.448C45.3555 195.448 44.5601 196.864 44.5601 198.611C44.5601 200.357 45.3555 201.773 46.3366 201.773Z" fill="#BCBCBC"/>
    <path d="M44.4777 204.34C45.1715 203.646 44.7327 202.082 43.4977 200.847C42.2627 199.612 40.699 199.173 40.0052 199.867C39.3115 200.561 39.7502 202.124 40.9853 203.36C42.2203 204.595 43.7839 205.033 44.4777 204.34Z" fill="#BCBCBC"/>
    <path d="M45.8853 221.977C46.8374 221.025 46.2351 218.879 44.54 217.184C42.8449 215.489 40.6989 214.887 39.7468 215.839C38.7947 216.791 39.397 218.937 41.0921 220.632C42.7872 222.327 44.9332 222.929 45.8853 221.977Z" fill="#BCBCBC"/>
    <path d="M45.6442 231.514C46.8648 230.945 47.0339 228.723 46.022 226.55C45.01 224.377 43.2001 223.076 41.9794 223.644C40.7588 224.213 40.5897 226.435 41.6016 228.608C42.6136 230.781 44.4235 232.082 45.6442 231.514Z" fill="#BCBCBC"/>
    <path d="M33.8251 214.032L320.185 214.032V205.194L33.8251 205.194V214.032Z" fill="#484848"/>
    <path d="M267.487 214.032H320.178V205.194H267.487V214.032Z" fill="#101F30"/>
    <path d="M267.738 214.032H320.178V211.16H267.738V214.032Z" fill="#223762"/>
    <path fill-rule="evenodd" clip-rule="evenodd" d="M275.317 323.625H282.827L253.463 214.026H245.954L275.317 323.625Z" fill="#828282"/>
    <path fill-rule="evenodd" clip-rule="evenodd" d="M216.363 323.625H208.848L238.211 214.026H245.727L216.363 323.625Z" fill="#828282"/>
    <path fill-rule="evenodd" clip-rule="evenodd" d="M174.299 205.194H132.443V203.02H172.762C173.597 203.02 174.274 203.697 174.274 204.532V205.162L174.299 205.194Z" fill="#181818"/>
    <path fill-rule="evenodd" clip-rule="evenodd" d="M103.06 189.035H200.708C201.601 189.055 202.46 188.688 203.063 188.029C203.667 187.37 203.956 186.483 203.858 185.595L198.371 122.899C198.174 120.97 196.567 119.494 194.629 119.459H96.9811C96.0879 119.439 95.2295 119.806 94.626 120.464C94.0226 121.123 93.7329 122.011 93.8312 122.899L99.3184 185.595C99.5157 187.523 101.122 189 103.06 189.035Z" fill="#4E4E4E"/>
    <path fill-rule="evenodd" clip-rule="evenodd" d="M100.364 189.035H198.012C198.905 189.055 199.764 188.688 200.367 188.029C200.97 187.37 201.26 186.483 201.162 185.595L195.675 122.899C195.477 120.97 193.871 119.494 191.933 119.459H94.2848C93.3916 119.439 92.5332 119.806 91.9298 120.464C91.3263 121.123 91.0366 122.011 91.1349 122.899L96.6221 185.595C96.8194 187.523 98.4262 189 100.364 189.035Z" fill="url(#paint19_linear)"/>
    <path fill-rule="evenodd" clip-rule="evenodd" d="M110.878 205.188C110.58 205.188 110.305 205.023 110.165 204.759C110.025 204.495 110.043 204.175 110.211 203.928C112.517 200.701 116.239 198.786 120.205 198.786C124.172 198.786 127.894 200.701 130.2 203.928C130.368 204.175 130.386 204.495 130.246 204.759C130.106 205.023 129.831 205.188 129.532 205.188H110.878Z" fill="url(#paint20_linear)"/>
    <path fill-rule="evenodd" clip-rule="evenodd" d="M121.658 203.292C120.902 201.673 119.894 200.184 118.672 198.882C119.177 198.819 119.686 198.787 120.196 198.787C124.162 198.786 127.883 200.701 130.188 203.928C130.356 204.175 130.373 204.495 130.233 204.759C130.093 205.023 129.819 205.188 129.52 205.188H120.99C121.639 205.188 122.036 204.085 121.658 203.292Z" fill="url(#paint21_linear)"/>
    <path fill-rule="evenodd" clip-rule="evenodd" d="M72.9599 236.92C67.4601 250.78 58.3379 261.458 48.6046 266.788C62.0737 251.567 75.694 198.478 75.694 198.478C79.1148 209.031 78.4596 223.048 72.9599 236.92Z" fill="#484848"/>
    <path fill-rule="evenodd" clip-rule="evenodd" d="M51.3325 228.346C56.8322 214.486 65.9544 203.808 75.6877 198.478C75.6877 198.478 62.0863 251.567 48.5983 266.788C45.1775 256.242 45.8327 242.218 51.3325 228.346Z" fill="url(#paint22_linear)"/>
    <path fill-rule="evenodd" clip-rule="evenodd" d="M51.3325 228.346C56.8322 214.486 65.9544 203.808 75.6877 198.478C75.6877 198.478 62.0863 251.567 48.5983 266.788C45.1775 256.242 45.8327 242.218 51.3325 228.346Z" fill="#828282"/>
    <path d="M62.0245 238.992C62.5461 237.747 62.4044 236.501 61.708 236.209C61.0117 235.917 60.0243 236.69 59.5027 237.935C58.9811 239.18 59.1227 240.426 59.8191 240.718C60.5155 241.01 61.5029 240.237 62.0245 238.992Z" fill="#BCBCBC"/>
    <path d="M53.2083 240.411C53.7299 239.166 53.5883 237.92 52.8919 237.628C52.1955 237.337 51.2081 238.109 50.6865 239.355C50.1649 240.6 50.3066 241.846 51.003 242.137C51.6993 242.429 52.6867 241.656 53.2083 240.411Z" fill="#BCBCBC"/>
    <path d="M57.7252 241.996C58.4239 241.71 58.5756 240.465 58.064 239.216C57.5524 237.967 56.5712 237.186 55.8725 237.472C55.1738 237.758 55.0222 239.003 55.5338 240.252C56.0454 241.502 57.0265 242.282 57.7252 241.996Z" fill="#BCBCBC"/>
    <path d="M57.0117 246.716C57.7104 246.43 57.8621 245.185 57.3504 243.936C56.8388 242.687 55.8577 241.906 55.159 242.192C54.4603 242.478 54.3087 243.723 54.8203 244.972C55.3319 246.221 56.313 247.002 57.0117 246.716Z" fill="#BCBCBC"/>
    <path d="M53.4757 254.961C54.4352 254.568 54.6444 252.861 53.9429 251.148C53.2414 249.435 51.8949 248.365 50.9354 248.758C49.9759 249.15 49.7668 250.858 50.4683 252.571C51.1697 254.283 52.5162 255.354 53.4757 254.961Z" fill="#BCBCBC"/>
    <path d="M50.4536 261.681C51.4896 261.64 52.2709 260.108 52.1985 258.258C52.1262 256.409 51.2276 254.942 50.1916 254.983C49.1555 255.023 48.3743 256.556 48.4467 258.405C48.519 260.255 49.4175 261.721 50.4536 261.681Z" fill="#BCBCBC"/>
    <path fill-rule="evenodd" clip-rule="evenodd" d="M143.304 205.188H119.068L137.414 150.291H154.385L143.304 205.188Z" fill="#181818"/>
    <path fill-rule="evenodd" clip-rule="evenodd" d="M141.395 205.188H117.16L135.505 150.291H152.477L141.395 205.188Z" fill="#181818"/>
    <path fill-rule="evenodd" clip-rule="evenodd" d="M144.709 135.808C144.548 135.246 144.47 134.665 144.476 134.081C143.859 133.991 143.229 134.063 142.649 134.289C140.4 135.171 139.222 138.069 140.015 140.772C140.809 143.474 143.279 144.949 145.521 144.073C147.292 143.38 148.382 141.433 148.382 139.317C146.575 138.968 145.14 137.596 144.709 135.808Z" fill="#2D2D2D"/>
    <path d="M214.026 102.128C214.026 102.128 212.665 109.827 212.917 111.742C213.169 113.657 218.127 112.258 218.127 112.258" stroke="#EB6057" stroke-linecap="round" stroke-linejoin="round"/>
    <path fill-rule="evenodd" clip-rule="evenodd" d="M234.154 81.213C228.743 79.1152 212.388 83.9724 210.07 81.7044C209.352 80.9988 208.81 79.3483 208.363 77.4016C207.881 78.2507 207.538 79.1717 207.348 80.1294C206.454 85.2134 207.928 86.4293 210.498 87.1916C213.069 87.9539 224.566 86.5616 228.566 87.9917C232.567 89.4217 234.507 91.7149 235.093 95.2113C235.679 98.7077 234.066 106.469 234.066 106.469C234.066 106.469 239.572 83.3109 234.154 81.213Z" fill="#292929"/>
    <path d="M209.452 205.194C210.423 205.194 211.21 204.114 211.21 202.781C211.21 201.448 210.423 200.368 209.452 200.368C208.482 200.368 207.695 201.448 207.695 202.781C207.695 204.114 208.482 205.194 209.452 205.194Z" fill="#181818"/>
    <path d="M237.329 101.681C237.329 101.681 238.791 100.698 239.276 102.015C239.761 103.332 239.711 104.604 238.016 105.411C237.462 105.653 236.815 105.441 236.51 104.919" stroke="#EB6057" stroke-linecap="round" stroke-linejoin="round"/>
    <defs>
        <linearGradient id="paint0_linear" x1="211.423" y1="298.243" x2="221.803" y2="288.981" gradientUnits="userSpaceOnUse">
            <stop stop-color="#223762"/>
            <stop offset="1" stop-color="#041B48"/>
        </linearGradient>
        <linearGradient id="paint1_linear" x1="208.235" y1="250.335" x2="217.775" y2="263.685" gradientUnits="userSpaceOnUse">
            <stop stop-color="#7D7D7D"/>
            <stop offset="1" stop-color="#151515"/>
        </linearGradient>
        <linearGradient id="paint2_linear" x1="154.745" y1="244.486" x2="154.339" y2="243.057" gradientUnits="userSpaceOnUse">
            <stop stop-color="#223762"/>
            <stop offset="1" stop-color="#041B48"/>
        </linearGradient>
        <linearGradient id="paint3_linear" x1="174.538" y1="166.186" x2="237.116" y2="276.68" gradientUnits="userSpaceOnUse">
            <stop stop-color="#7D7D7D"/>
            <stop offset="1" stop-color="#151515"/>
        </linearGradient>
        <linearGradient id="paint4_linear" x1="160.446" y1="188.505" x2="176.149" y2="174.828" gradientUnits="userSpaceOnUse">
            <stop stop-color="#63B1FF"/>
            <stop offset="0.95" stop-color="#083F9E"/>
        </linearGradient>
        <linearGradient id="paint5_linear" x1="169.268" y1="249.934" x2="169.268" y2="131.003" gradientUnits="userSpaceOnUse">
            <stop stop-color="#404143"/>
            <stop offset="1" stop-color="white"/>
        </linearGradient>
        <linearGradient id="paint6_linear" x1="146.158" y1="230.196" x2="146.158" y2="312.057" gradientUnits="userSpaceOnUse">
            <stop stop-color="#A9A9A9"/>
            <stop offset="1" stop-color="#E4E4E4"/>
        </linearGradient>
        <linearGradient id="paint7_linear" x1="149.325" y1="230.164" x2="149.325" y2="312.025" gradientUnits="userSpaceOnUse">
            <stop stop-color="#7C7C7C"/>
            <stop offset="1" stop-color="#E4E4E4"/>
        </linearGradient>
        <linearGradient id="paint8_linear" x1="218.113" y1="227.776" x2="218.113" y2="128.684" gradientUnits="userSpaceOnUse">
            <stop stop-color="#22252B"/>
            <stop offset="1" stop-color="#E5E5E5"/>
        </linearGradient>
        <linearGradient id="paint9_linear" x1="218.227" y1="228.508" x2="218.227" y2="154.665" gradientUnits="userSpaceOnUse">
            <stop stop-color="#2F2F2F"/>
            <stop offset="1" stop-color="#E5E5E5"/>
        </linearGradient>
        <linearGradient id="paint10_linear" x1="205.126" y1="227.017" x2="205.126" y2="313.687" gradientUnits="userSpaceOnUse">
            <stop stop-color="#A9A9A9"/>
            <stop offset="1" stop-color="#E4E4E4"/>
        </linearGradient>
        <linearGradient id="paint11_linear" x1="211.639" y1="232.614" x2="211.639" y2="313.649" gradientUnits="userSpaceOnUse">
            <stop stop-color="#7C7C7C"/>
            <stop offset="1" stop-color="#E4E4E4"/>
        </linearGradient>
        <linearGradient id="paint12_linear" x1="210.901" y1="200.548" x2="230.866" y2="193.176" gradientUnits="userSpaceOnUse">
            <stop stop-color="#F8A695"/>
            <stop offset="1" stop-color="#FF6B4D"/>
        </linearGradient>
        <linearGradient id="paint13_linear" x1="199.052" y1="239.256" x2="202.832" y2="249.75" gradientUnits="userSpaceOnUse">
            <stop stop-color="#7D7D7D"/>
            <stop offset="1" stop-color="#151515"/>
        </linearGradient>
        <linearGradient id="paint14_linear" x1="225.526" y1="166.143" x2="297.754" y2="228.52" gradientUnits="userSpaceOnUse">
            <stop stop-color="#7D7D7D"/>
            <stop offset="1" stop-color="#151515"/>
        </linearGradient>
        <linearGradient id="paint15_linear" x1="246.76" y1="244.755" x2="246.76" y2="130.133" gradientUnits="userSpaceOnUse">
            <stop stop-color="#404143"/>
            <stop offset="1" stop-color="white"/>
        </linearGradient>
        <linearGradient id="paint16_linear" x1="223.224" y1="131.165" x2="223.11" y2="125.89" gradientUnits="userSpaceOnUse">
            <stop stop-color="#F8A695"/>
            <stop offset="1" stop-color="#FF6B4D"/>
        </linearGradient>
        <linearGradient id="paint17_linear" x1="221.392" y1="120.605" x2="230.923" y2="83.5242" gradientUnits="userSpaceOnUse">
            <stop stop-color="#F8A695"/>
            <stop offset="1" stop-color="#FF6B4D"/>
        </linearGradient>
        <linearGradient id="paint18_linear" x1="-2724.7" y1="286.298" x2="-2724.7" y2="212.924" gradientUnits="userSpaceOnUse">
            <stop stop-color="#A7BDE5"/>
            <stop offset="1" stop-color="#2F66CB"/>
        </linearGradient>
        <linearGradient id="paint19_linear" x1="174.899" y1="124.145" x2="104.541" y2="165.151" gradientUnits="userSpaceOnUse">
            <stop stop-color="#BBBBBB"/>
            <stop offset="1" stop-color="#7A7A7A"/>
        </linearGradient>
        <linearGradient id="paint20_linear" x1="113.637" y1="202.387" x2="130.845" y2="193.857" gradientUnits="userSpaceOnUse">
            <stop stop-color="#F8A695"/>
            <stop offset="1" stop-color="#FF6B4D"/>
        </linearGradient>
        <linearGradient id="paint21_linear" x1="120.722" y1="202.387" x2="132.122" y2="199.137" gradientUnits="userSpaceOnUse">
            <stop stop-color="#F8A695"/>
            <stop offset="1" stop-color="#FF6B4D"/>
        </linearGradient>
        <linearGradient id="paint22_linear" x1="62.4559" y1="193.029" x2="46.855" y2="252.71" gradientUnits="userSpaceOnUse">
            <stop stop-color="#4C93F4"/>
            <stop offset="1" stop-color="#0849A1"/>
        </linearGradient>
    </defs>
</svg>
